<svg class="tfig" style="--w:676px" xmlns="http://www.w3.org/2000/svg" xmlns:xlink="http://www.w3.org/1999/xlink" viewBox="0 0 338.33 253.29"><style>:root.tfig{--bg:#dfe8f1;--ink:#101c26;--soft:#475666;--faint:#788999;--line2:rgba(16,28,38,.24);--fa:#1f6b9e;--fb:#9a6418;--fc:#3d7a50;--fd:#a6454d;--fe:#6a58a6}@media (prefers-color-scheme:dark){:root.tfig{--bg:#08131d;--ink:#dce8f2;--soft:#8ba2b6;--faint:#54687d;--line2:rgba(220,232,242,.22);--fa:#5fa9e0;--fb:#d9a45f;--fc:#7fbf91;--fd:#e08a90;--fe:#ae9de0}}</style>
<defs>
<g>
<g id="tree-based-decision-tree-blog-glyph-0-0">
<path d="M 2.359375 0.09375 C 1.992188 0.09375 1.679688 0.0625 1.421875 0 C 1.171875 -0.0703125 0.90625 -0.179688 0.625 -0.328125 L 0.53125 -1.78125 L 0.671875 -1.78125 L 1.125 -0.84375 C 1.332031 -0.664062 1.535156 -0.535156 1.734375 -0.453125 C 1.941406 -0.367188 2.148438 -0.328125 2.359375 -0.328125 C 2.710938 -0.328125 2.988281 -0.421875 3.1875 -0.609375 C 3.382812 -0.796875 3.484375 -1.046875 3.484375 -1.359375 C 3.484375 -1.617188 3.425781 -1.820312 3.3125 -1.96875 C 3.195312 -2.125 3.03125 -2.257812 2.8125 -2.375 C 2.59375 -2.488281 2.332031 -2.617188 2.03125 -2.765625 C 1.757812 -2.910156 1.523438 -3.050781 1.328125 -3.1875 C 1.128906 -3.320312 0.976562 -3.476562 0.875 -3.65625 C 0.769531 -3.84375 0.71875 -4.078125 0.71875 -4.359375 C 0.71875 -4.554688 0.765625 -4.75 0.859375 -4.9375 C 0.960938 -5.132812 1.097656 -5.3125 1.265625 -5.46875 C 1.441406 -5.632812 1.632812 -5.757812 1.84375 -5.84375 C 2.050781 -5.9375 2.269531 -5.984375 2.5 -5.984375 C 2.78125 -5.984375 3.035156 -5.953125 3.265625 -5.890625 C 3.503906 -5.828125 3.742188 -5.734375 3.984375 -5.609375 L 4.0625 -4.1875 L 3.921875 -4.1875 L 3.515625 -5.125 C 3.304688 -5.28125 3.125 -5.390625 2.96875 -5.453125 C 2.8125 -5.523438 2.632812 -5.5625 2.4375 -5.5625 C 2.164062 -5.5625 1.945312 -5.46875 1.78125 -5.28125 C 1.613281 -5.101562 1.53125 -4.882812 1.53125 -4.625 C 1.53125 -4.320312 1.617188 -4.085938 1.796875 -3.921875 C 1.984375 -3.753906 2.273438 -3.570312 2.671875 -3.375 C 3.035156 -3.207031 3.332031 -3.046875 3.5625 -2.890625 C 3.800781 -2.734375 3.972656 -2.554688 4.078125 -2.359375 C 4.191406 -2.160156 4.25 -1.910156 4.25 -1.609375 C 4.25 -1.328125 4.1875 -1.078125 4.0625 -0.859375 C 3.945312 -0.648438 3.796875 -0.472656 3.609375 -0.328125 C 3.421875 -0.191406 3.21875 -0.0859375 3 -0.015625 C 2.78125 0.0546875 2.566406 0.09375 2.359375 0.09375 Z M 2.359375 0.09375 "/>
</g>
<g id="tree-based-decision-tree-blog-glyph-0-1">
<path d="M 0.421875 0 L 0.421875 -0.140625 L 0.984375 -0.421875 L 0.984375 -5.6875 L 0.453125 -6.15625 L 0.453125 -6.21875 L 1.65625 -6.703125 L 1.703125 -6.703125 L 1.703125 -3.453125 L 1.75 -3.453125 C 1.96875 -3.679688 2.179688 -3.847656 2.390625 -3.953125 C 2.609375 -4.054688 2.84375 -4.109375 3.09375 -4.109375 C 3.445312 -4.109375 3.734375 -4.019531 3.953125 -3.84375 C 4.179688 -3.664062 4.296875 -3.40625 4.296875 -3.0625 L 4.296875 -0.421875 L 4.859375 -0.140625 L 4.859375 0 L 2.953125 0 L 2.953125 -0.140625 L 3.578125 -0.40625 L 3.578125 -2.640625 C 3.578125 -2.898438 3.492188 -3.097656 3.328125 -3.234375 C 3.171875 -3.378906 2.960938 -3.453125 2.703125 -3.453125 C 2.535156 -3.453125 2.351562 -3.421875 2.15625 -3.359375 C 1.96875 -3.304688 1.816406 -3.234375 1.703125 -3.140625 L 1.703125 -0.40625 L 2.34375 -0.140625 L 2.34375 0 Z M 0.421875 0 "/>
</g>
<g id="tree-based-decision-tree-blog-glyph-0-2">
<path d="M 2.40625 0.09375 C 2.019531 0.09375 1.675781 0 1.375 -0.1875 C 1.082031 -0.375 0.851562 -0.625 0.6875 -0.9375 C 0.53125 -1.25 0.453125 -1.609375 0.453125 -2.015625 C 0.453125 -2.410156 0.53125 -2.765625 0.6875 -3.078125 C 0.851562 -3.398438 1.082031 -3.648438 1.375 -3.828125 C 1.675781 -4.015625 2.019531 -4.109375 2.40625 -4.109375 C 2.800781 -4.109375 3.144531 -4.015625 3.4375 -3.828125 C 3.738281 -3.648438 3.96875 -3.398438 4.125 -3.078125 C 4.289062 -2.765625 4.375 -2.410156 4.375 -2.015625 C 4.375 -1.609375 4.289062 -1.25 4.125 -0.9375 C 3.96875 -0.625 3.738281 -0.375 3.4375 -0.1875 C 3.144531 0 2.800781 0.09375 2.40625 0.09375 Z M 2.53125 -0.296875 C 2.78125 -0.296875 2.976562 -0.367188 3.125 -0.515625 C 3.28125 -0.660156 3.394531 -0.851562 3.46875 -1.09375 C 3.539062 -1.332031 3.578125 -1.578125 3.578125 -1.828125 C 3.578125 -2.148438 3.53125 -2.457031 3.4375 -2.75 C 3.351562 -3.039062 3.21875 -3.273438 3.03125 -3.453125 C 2.851562 -3.640625 2.613281 -3.734375 2.3125 -3.734375 C 2.0625 -3.734375 1.859375 -3.65625 1.703125 -3.5 C 1.546875 -3.351562 1.429688 -3.164062 1.359375 -2.9375 C 1.285156 -2.707031 1.25 -2.460938 1.25 -2.203125 C 1.25 -1.878906 1.289062 -1.570312 1.375 -1.28125 C 1.46875 -0.988281 1.609375 -0.75 1.796875 -0.5625 C 1.984375 -0.382812 2.226562 -0.296875 2.53125 -0.296875 Z M 2.53125 -0.296875 "/>
</g>
<g id="tree-based-decision-tree-blog-glyph-0-3">
<path d="M 2.015625 0.09375 C 1.671875 0.09375 1.382812 0.00390625 1.15625 -0.171875 C 0.925781 -0.347656 0.8125 -0.609375 0.8125 -0.953125 L 0.8125 -3.609375 L 0.25 -3.875 L 0.25 -4.015625 L 1.53125 -4.015625 L 1.53125 -1.375 C 1.53125 -1.113281 1.613281 -0.914062 1.78125 -0.78125 C 1.945312 -0.644531 2.15625 -0.578125 2.40625 -0.578125 C 2.570312 -0.578125 2.75 -0.601562 2.9375 -0.65625 C 3.132812 -0.707031 3.289062 -0.785156 3.40625 -0.890625 L 3.40625 -3.609375 L 2.765625 -3.875 L 2.765625 -4.015625 L 4.125 -4.015625 L 4.125 -0.40625 L 4.75 -0.140625 L 4.75 0 L 3.40625 0 L 3.40625 -0.5625 L 3.359375 -0.5625 C 3.128906 -0.332031 2.910156 -0.164062 2.703125 -0.0625 C 2.492188 0.0390625 2.265625 0.09375 2.015625 0.09375 Z M 2.015625 0.09375 "/>
</g>
<g id="tree-based-decision-tree-blog-glyph-0-4">
<path d="M 0.390625 0 L 0.390625 -0.140625 L 0.953125 -0.421875 L 0.953125 -5.6875 L 0.421875 -6.15625 L 0.421875 -6.21875 L 1.625 -6.703125 L 1.671875 -6.703125 L 1.671875 -0.421875 L 2.234375 -0.140625 L 2.234375 0 Z M 0.390625 0 "/>
</g>
<g id="tree-based-decision-tree-blog-glyph-0-5">
<path d="M 1.953125 0.09375 C 1.648438 0.09375 1.378906 0.0195312 1.140625 -0.125 C 0.910156 -0.28125 0.726562 -0.492188 0.59375 -0.765625 C 0.457031 -1.035156 0.390625 -1.359375 0.390625 -1.734375 C 0.390625 -2.242188 0.488281 -2.675781 0.6875 -3.03125 C 0.882812 -3.382812 1.144531 -3.648438 1.46875 -3.828125 C 1.800781 -4.015625 2.160156 -4.109375 2.546875 -4.109375 C 2.710938 -4.109375 2.859375 -4.097656 2.984375 -4.078125 C 3.109375 -4.066406 3.222656 -4.050781 3.328125 -4.03125 L 3.328125 -5.6875 L 2.75 -6.15625 L 2.75 -6.21875 L 3.984375 -6.703125 L 4.046875 -6.703125 L 4.046875 -0.40625 L 4.671875 -0.140625 L 4.671875 0 L 3.421875 0 L 3.34375 -0.453125 L 3.28125 -0.453125 C 3.050781 -0.265625 2.832031 -0.125 2.625 -0.03125 C 2.414062 0.0507812 2.191406 0.09375 1.953125 0.09375 Z M 1.109375 -1.9375 C 1.109375 -1.445312 1.238281 -1.085938 1.5 -0.859375 C 1.757812 -0.640625 2.070312 -0.53125 2.4375 -0.53125 C 2.582031 -0.53125 2.726562 -0.550781 2.875 -0.59375 C 3.03125 -0.632812 3.179688 -0.703125 3.328125 -0.796875 L 3.328125 -3.296875 C 3.179688 -3.421875 3.035156 -3.515625 2.890625 -3.578125 C 2.753906 -3.640625 2.601562 -3.671875 2.4375 -3.671875 C 2.195312 -3.671875 1.972656 -3.613281 1.765625 -3.5 C 1.566406 -3.382812 1.40625 -3.195312 1.28125 -2.9375 C 1.164062 -2.6875 1.109375 -2.351562 1.109375 -1.9375 Z M 1.109375 -1.9375 "/>
</g>
<g id="tree-based-decision-tree-blog-glyph-0-6">
<path d="M 0.625 0 L 0.625 -0.140625 L 1.34375 -0.5 L 1.34375 -5.390625 L 0.625 -5.75 L 0.625 -5.90625 L 2.859375 -5.90625 L 2.859375 -5.75 L 2.140625 -5.390625 L 2.140625 -0.5 L 2.859375 -0.140625 L 2.859375 0 Z M 0.625 0 "/>
</g>
<g id="tree-based-decision-tree-blog-glyph-0-7">
<path d="M 1.796875 0 L 0.390625 -3.609375 L -0.203125 -3.875 L -0.203125 -4.015625 L 1.9375 -4.015625 L 1.9375 -3.875 L 1.203125 -3.609375 L 1.203125 -3.5625 L 2.125 -1.078125 L 2.15625 -1.078125 L 3.4375 -4.015625 L 3.625 -4.015625 L 4.890625 -1.109375 L 4.921875 -1.109375 L 5.828125 -3.5 L 5.828125 -3.5625 L 5.1875 -3.875 L 5.1875 -4.015625 L 6.9375 -4.015625 L 6.9375 -3.875 L 6.28125 -3.5625 L 4.78125 0 L 4.59375 0 L 3.3125 -2.90625 L 1.984375 0 Z M 1.796875 0 "/>
</g>
<g id="tree-based-decision-tree-blog-glyph-0-8">
<path d="M 0.46875 0 L 0.46875 -0.140625 L 1.03125 -0.421875 L 1.03125 -3.09375 L 0.484375 -3.5625 L 0.484375 -3.625 L 1.59375 -4.109375 L 1.65625 -4.109375 L 1.75 -3.28125 L 1.765625 -3.28125 C 1.984375 -3.570312 2.1875 -3.773438 2.375 -3.890625 C 2.5625 -4.015625 2.738281 -4.078125 2.90625 -4.078125 C 3.03125 -4.078125 3.132812 -4.046875 3.21875 -3.984375 C 3.300781 -3.921875 3.34375 -3.828125 3.34375 -3.703125 C 3.34375 -3.671875 3.332031 -3.601562 3.3125 -3.5 L 3.265625 -3.171875 L 2.3125 -3.359375 C 2.09375 -3.265625 1.90625 -3.101562 1.75 -2.875 L 1.75 -0.421875 L 2.375 -0.140625 L 2.375 0 Z M 0.46875 0 "/>
</g>
<g id="tree-based-decision-tree-blog-glyph-0-9">
<path d="M 1.375 -5.1875 C 1.21875 -5.1875 1.085938 -5.238281 0.984375 -5.34375 C 0.890625 -5.445312 0.84375 -5.578125 0.84375 -5.734375 C 0.84375 -5.890625 0.890625 -6.015625 0.984375 -6.109375 C 1.085938 -6.210938 1.21875 -6.265625 1.375 -6.265625 C 1.53125 -6.265625 1.65625 -6.210938 1.75 -6.109375 C 1.851562 -6.015625 1.90625 -5.890625 1.90625 -5.734375 C 1.90625 -5.578125 1.851562 -5.445312 1.75 -5.34375 C 1.65625 -5.238281 1.53125 -5.1875 1.375 -5.1875 Z M 0.484375 0 L 0.484375 -0.140625 L 1.046875 -0.421875 L 1.046875 -3.09375 L 0.515625 -3.5625 L 0.515625 -3.625 L 1.703125 -4.109375 L 1.765625 -4.109375 L 1.765625 -0.421875 L 2.328125 -0.140625 L 2.328125 0 Z M 0.484375 0 "/>
</g>
<g id="tree-based-decision-tree-blog-glyph-0-10">
<path d="M 1.859375 0.09375 C 1.597656 0.09375 1.367188 0.0117188 1.171875 -0.140625 C 0.984375 -0.296875 0.890625 -0.515625 0.890625 -0.796875 L 0.890625 -3.609375 L 0.15625 -3.609375 L 0.15625 -3.65625 L 0.921875 -4.015625 L 1.5625 -5 L 1.609375 -5 L 1.609375 -4.015625 L 2.78125 -4.015625 L 2.78125 -3.609375 L 1.609375 -3.609375 L 1.609375 -0.953125 C 1.609375 -0.796875 1.675781 -0.679688 1.8125 -0.609375 C 1.945312 -0.535156 2.109375 -0.5 2.296875 -0.5 C 2.410156 -0.5 2.515625 -0.503906 2.609375 -0.515625 C 2.710938 -0.523438 2.800781 -0.539062 2.875 -0.5625 L 2.890625 -0.5625 L 2.890625 -0.46875 C 2.835938 -0.34375 2.722656 -0.21875 2.546875 -0.09375 C 2.367188 0.0273438 2.140625 0.09375 1.859375 0.09375 Z M 1.859375 0.09375 "/>
</g>
<g id="tree-based-decision-tree-blog-glyph-0-11">
<path d="M 2.3125 0.09375 C 1.738281 0.09375 1.285156 -0.0820312 0.953125 -0.4375 C 0.617188 -0.789062 0.453125 -1.253906 0.453125 -1.828125 C 0.453125 -2.273438 0.535156 -2.671875 0.703125 -3.015625 C 0.878906 -3.359375 1.113281 -3.625 1.40625 -3.8125 C 1.695312 -4.007812 2.007812 -4.109375 2.34375 -4.109375 C 2.820312 -4.109375 3.195312 -3.941406 3.46875 -3.609375 C 3.738281 -3.285156 3.875 -2.816406 3.875 -2.203125 L 3.828125 -2.15625 L 1.15625 -2.15625 C 1.15625 -1.882812 1.207031 -1.628906 1.3125 -1.390625 C 1.414062 -1.148438 1.578125 -0.953125 1.796875 -0.796875 C 2.023438 -0.648438 2.328125 -0.578125 2.703125 -0.578125 C 3.023438 -0.578125 3.410156 -0.695312 3.859375 -0.9375 L 3.875 -0.9375 L 3.875 -0.84375 C 3.738281 -0.59375 3.535156 -0.375 3.265625 -0.1875 C 2.992188 0 2.675781 0.09375 2.3125 0.09375 Z M 2.203125 -3.71875 C 1.921875 -3.71875 1.6875 -3.617188 1.5 -3.421875 C 1.320312 -3.222656 1.210938 -2.941406 1.171875 -2.578125 L 3.1875 -2.578125 C 3.125 -2.984375 3.007812 -3.273438 2.84375 -3.453125 C 2.675781 -3.628906 2.460938 -3.71875 2.203125 -3.71875 Z M 2.203125 -3.71875 "/>
</g>
<g id="tree-based-decision-tree-blog-glyph-0-12">
<path d="M 1.90625 0.09375 C 1.625 0.09375 1.378906 0.0664062 1.171875 0.015625 C 0.972656 -0.0234375 0.769531 -0.101562 0.5625 -0.21875 L 0.5625 -1.21875 L 0.6875 -1.21875 L 0.96875 -0.71875 C 1.15625 -0.394531 1.457031 -0.234375 1.875 -0.234375 C 2.125 -0.234375 2.3125 -0.289062 2.4375 -0.40625 C 2.570312 -0.519531 2.640625 -0.671875 2.640625 -0.859375 C 2.640625 -1.035156 2.597656 -1.171875 2.515625 -1.265625 C 2.429688 -1.359375 2.3125 -1.441406 2.15625 -1.515625 C 2.007812 -1.597656 1.832031 -1.6875 1.625 -1.78125 C 1.3125 -1.914062 1.070312 -2.0625 0.90625 -2.21875 C 0.75 -2.382812 0.671875 -2.617188 0.671875 -2.921875 C 0.671875 -3.140625 0.734375 -3.335938 0.859375 -3.515625 C 0.984375 -3.703125 1.140625 -3.847656 1.328125 -3.953125 C 1.523438 -4.054688 1.726562 -4.109375 1.9375 -4.109375 C 2.15625 -4.109375 2.359375 -4.082031 2.546875 -4.03125 C 2.734375 -3.976562 2.921875 -3.90625 3.109375 -3.8125 L 3.109375 -2.828125 L 2.984375 -2.828125 L 2.6875 -3.3125 C 2.5 -3.613281 2.257812 -3.765625 1.96875 -3.765625 C 1.769531 -3.765625 1.609375 -3.710938 1.484375 -3.609375 C 1.367188 -3.503906 1.3125 -3.363281 1.3125 -3.1875 C 1.3125 -2.988281 1.382812 -2.835938 1.53125 -2.734375 C 1.675781 -2.628906 1.882812 -2.507812 2.15625 -2.375 C 2.332031 -2.289062 2.503906 -2.207031 2.671875 -2.125 C 2.835938 -2.039062 2.972656 -1.921875 3.078125 -1.765625 C 3.191406 -1.617188 3.25 -1.40625 3.25 -1.125 C 3.25 -0.863281 3.175781 -0.640625 3.03125 -0.453125 C 2.894531 -0.273438 2.722656 -0.140625 2.515625 -0.046875 C 2.304688 0.0429688 2.101562 0.09375 1.90625 0.09375 Z M 1.90625 0.09375 "/>
</g>
<g id="tree-based-decision-tree-blog-glyph-0-13">
<path d="M 0.921875 0.09375 L 0.921875 -5.6875 L 0.390625 -6.15625 L 0.390625 -6.21875 L 1.578125 -6.703125 L 1.640625 -6.703125 L 1.640625 -3.5625 L 1.671875 -3.5625 C 1.898438 -3.75 2.117188 -3.882812 2.328125 -3.96875 C 2.546875 -4.0625 2.773438 -4.109375 3.015625 -4.109375 C 3.316406 -4.109375 3.582031 -4.03125 3.8125 -3.875 C 4.050781 -3.71875 4.234375 -3.5 4.359375 -3.21875 C 4.492188 -2.9375 4.5625 -2.597656 4.5625 -2.203125 C 4.5625 -1.710938 4.46875 -1.296875 4.28125 -0.953125 C 4.101562 -0.617188 3.851562 -0.359375 3.53125 -0.171875 C 3.21875 0.00390625 2.863281 0.09375 2.46875 0.09375 C 2.226562 0.09375 2 0.0664062 1.78125 0.015625 C 1.570312 -0.0234375 1.378906 -0.078125 1.203125 -0.140625 L 0.96875 0.09375 Z M 2.515625 -3.5 C 2.378906 -3.5 2.234375 -3.472656 2.078125 -3.421875 C 1.921875 -3.378906 1.773438 -3.3125 1.640625 -3.21875 L 1.640625 -0.703125 C 1.804688 -0.578125 1.972656 -0.484375 2.140625 -0.421875 C 2.304688 -0.367188 2.492188 -0.34375 2.703125 -0.34375 C 2.910156 -0.34375 3.101562 -0.394531 3.28125 -0.5 C 3.457031 -0.613281 3.597656 -0.789062 3.703125 -1.03125 C 3.804688 -1.28125 3.859375 -1.601562 3.859375 -2 C 3.859375 -2.519531 3.726562 -2.898438 3.46875 -3.140625 C 3.207031 -3.378906 2.890625 -3.5 2.515625 -3.5 Z M 2.515625 -3.5 "/>
</g>
<g id="tree-based-decision-tree-blog-glyph-0-14">
<path d="M 2.3125 -1.453125 C 2.1875 -1.453125 2.0625 -1.46875 1.9375 -1.5 C 1.71875 -1.394531 1.578125 -1.296875 1.515625 -1.203125 C 1.460938 -1.109375 1.4375 -1.019531 1.4375 -0.9375 C 1.4375 -0.832031 1.472656 -0.738281 1.546875 -0.65625 C 1.617188 -0.582031 1.738281 -0.546875 1.90625 -0.546875 L 3.109375 -0.546875 C 3.546875 -0.546875 3.863281 -0.445312 4.0625 -0.25 C 4.269531 -0.0625 4.375 0.222656 4.375 0.609375 C 4.375 0.859375 4.289062 1.101562 4.125 1.34375 C 3.957031 1.582031 3.71875 1.773438 3.40625 1.921875 C 3.101562 2.066406 2.738281 2.140625 2.3125 2.140625 C 1.96875 2.140625 1.6875 2.078125 1.46875 1.953125 C 1.25 1.835938 1.082031 1.6875 0.96875 1.5 C 0.863281 1.3125 0.8125 1.109375 0.8125 0.890625 C 0.8125 0.816406 0.816406 0.75 0.828125 0.6875 C 0.847656 0.625 0.875 0.566406 0.90625 0.515625 L 1.484375 0.0625 L 1.484375 0.046875 C 1.273438 -0.00390625 1.113281 -0.0976562 1 -0.234375 C 0.894531 -0.378906 0.84375 -0.539062 0.84375 -0.71875 C 0.84375 -0.84375 0.875 -0.988281 0.9375 -1.15625 L 1.625 -1.59375 C 1.382812 -1.707031 1.191406 -1.867188 1.046875 -2.078125 C 0.910156 -2.285156 0.84375 -2.519531 0.84375 -2.78125 C 0.84375 -3.03125 0.90625 -3.253906 1.03125 -3.453125 C 1.15625 -3.660156 1.328125 -3.820312 1.546875 -3.9375 C 1.773438 -4.050781 2.03125 -4.109375 2.3125 -4.109375 C 2.425781 -4.109375 2.554688 -4.09375 2.703125 -4.0625 C 2.847656 -4.03125 2.957031 -3.992188 3.03125 -3.953125 L 4.4375 -4.015625 L 4.4375 -3.546875 L 3.484375 -3.59375 L 3.46875 -3.578125 C 3.5625 -3.472656 3.632812 -3.347656 3.6875 -3.203125 C 3.738281 -3.066406 3.765625 -2.925781 3.765625 -2.78125 C 3.765625 -2.53125 3.703125 -2.304688 3.578125 -2.109375 C 3.453125 -1.910156 3.273438 -1.75 3.046875 -1.625 C 2.828125 -1.507812 2.582031 -1.453125 2.3125 -1.453125 Z M 2.390625 -1.828125 C 2.597656 -1.828125 2.765625 -1.914062 2.890625 -2.09375 C 3.023438 -2.28125 3.09375 -2.503906 3.09375 -2.765625 C 3.09375 -3.054688 3.007812 -3.289062 2.84375 -3.46875 C 2.675781 -3.65625 2.476562 -3.75 2.25 -3.75 C 2.019531 -3.75 1.835938 -3.65625 1.703125 -3.46875 C 1.578125 -3.289062 1.515625 -3.070312 1.515625 -2.8125 C 1.515625 -2.519531 1.597656 -2.28125 1.765625 -2.09375 C 1.929688 -1.914062 2.140625 -1.828125 2.390625 -1.828125 Z M 1.4375 0.71875 C 1.4375 1.039062 1.535156 1.3125 1.734375 1.53125 C 1.929688 1.75 2.1875 1.859375 2.5 1.859375 C 2.75 1.859375 2.960938 1.8125 3.140625 1.71875 C 3.328125 1.625 3.472656 1.5 3.578125 1.34375 C 3.691406 1.195312 3.75 1.035156 3.75 0.859375 C 3.75 0.703125 3.722656 0.566406 3.671875 0.453125 C 3.628906 0.335938 3.539062 0.25 3.40625 0.1875 C 3.269531 0.125 3.070312 0.09375 2.8125 0.09375 L 1.875 0.09375 C 1.71875 0.132812 1.601562 0.210938 1.53125 0.328125 C 1.46875 0.453125 1.4375 0.582031 1.4375 0.71875 Z M 1.4375 0.71875 "/>
</g>
<g id="tree-based-decision-tree-blog-glyph-0-15">
<path d="M 0.421875 2.0625 L 0.421875 1.90625 L 0.984375 1.625 L 0.984375 -3.09375 L 0.453125 -3.5625 L 0.453125 -3.625 L 1.5625 -4.109375 L 1.625 -4.109375 L 1.6875 -3.5625 L 1.75 -3.5625 C 1.976562 -3.757812 2.195312 -3.898438 2.40625 -3.984375 C 2.613281 -4.066406 2.835938 -4.109375 3.078125 -4.109375 C 3.390625 -4.109375 3.660156 -4.03125 3.890625 -3.875 C 4.117188 -3.71875 4.300781 -3.5 4.4375 -3.21875 C 4.570312 -2.9375 4.640625 -2.597656 4.640625 -2.203125 C 4.640625 -1.710938 4.546875 -1.296875 4.359375 -0.953125 C 4.179688 -0.617188 3.9375 -0.359375 3.625 -0.171875 C 3.320312 0.00390625 2.984375 0.09375 2.609375 0.09375 C 2.273438 0.09375 1.972656 0.0625 1.703125 0 L 1.703125 1.625 L 2.34375 1.90625 L 2.34375 2.0625 Z M 2.59375 -3.5 C 2.445312 -3.5 2.296875 -3.472656 2.140625 -3.421875 C 1.992188 -3.378906 1.847656 -3.3125 1.703125 -3.21875 L 1.703125 -0.71875 C 1.878906 -0.570312 2.0625 -0.472656 2.25 -0.421875 C 2.4375 -0.367188 2.644531 -0.34375 2.875 -0.34375 C 3.15625 -0.34375 3.398438 -0.460938 3.609375 -0.703125 C 3.816406 -0.941406 3.921875 -1.34375 3.921875 -1.90625 C 3.921875 -2.28125 3.859375 -2.582031 3.734375 -2.8125 C 3.617188 -3.039062 3.457031 -3.210938 3.25 -3.328125 C 3.050781 -3.441406 2.832031 -3.5 2.59375 -3.5 Z M 2.59375 -3.5 "/>
</g>
<g id="tree-based-decision-tree-blog-glyph-0-16">
<path d="M 1.78125 -1.78125 L 1.5625 -3.078125 C 2 -3.234375 2.347656 -3.421875 2.609375 -3.640625 C 2.867188 -3.859375 3 -4.128906 3 -4.453125 C 3 -4.710938 2.945312 -4.921875 2.84375 -5.078125 C 2.75 -5.234375 2.628906 -5.347656 2.484375 -5.421875 C 2.335938 -5.492188 2.175781 -5.53125 2 -5.53125 C 1.882812 -5.53125 1.757812 -5.507812 1.625 -5.46875 C 1.5 -5.4375 1.359375 -5.363281 1.203125 -5.25 L 1.203125 -4.359375 L 0.625 -4.359375 C 0.53125 -4.359375 0.460938 -4.382812 0.421875 -4.4375 C 0.378906 -4.488281 0.359375 -4.585938 0.359375 -4.734375 C 0.359375 -4.929688 0.441406 -5.125 0.609375 -5.3125 C 0.773438 -5.507812 0.992188 -5.671875 1.265625 -5.796875 C 1.546875 -5.921875 1.859375 -5.984375 2.203125 -5.984375 C 2.503906 -5.984375 2.773438 -5.910156 3.015625 -5.765625 C 3.253906 -5.628906 3.441406 -5.441406 3.578125 -5.203125 C 3.710938 -4.960938 3.78125 -4.695312 3.78125 -4.40625 C 3.78125 -4.019531 3.644531 -3.671875 3.375 -3.359375 C 3.113281 -3.046875 2.664062 -2.75 2.03125 -2.46875 L 1.96875 -1.78125 Z M 1.875 0.046875 C 1.726562 0.046875 1.597656 -0.00390625 1.484375 -0.109375 C 1.378906 -0.222656 1.328125 -0.351562 1.328125 -0.5 C 1.328125 -0.644531 1.378906 -0.769531 1.484375 -0.875 C 1.597656 -0.988281 1.726562 -1.046875 1.875 -1.046875 C 2.019531 -1.046875 2.144531 -0.988281 2.25 -0.875 C 2.363281 -0.769531 2.421875 -0.644531 2.421875 -0.5 C 2.421875 -0.351562 2.363281 -0.222656 2.25 -0.109375 C 2.144531 -0.00390625 2.019531 0.046875 1.875 0.046875 Z M 1.875 0.046875 "/>
</g>
<g id="tree-based-decision-tree-blog-glyph-0-17">
<path d="M 0.578125 0 L 0.578125 -0.140625 L 1.296875 -0.5 L 1.296875 -5.390625 L 0.578125 -5.75 L 0.578125 -5.90625 L 3.203125 -5.90625 C 3.859375 -5.90625 4.414062 -5.785156 4.875 -5.546875 C 5.34375 -5.316406 5.695312 -5 5.9375 -4.59375 C 6.175781 -4.1875 6.296875 -3.726562 6.296875 -3.21875 C 6.296875 -2.75 6.21875 -2.316406 6.0625 -1.921875 C 5.90625 -1.535156 5.679688 -1.195312 5.390625 -0.90625 C 5.109375 -0.625 4.773438 -0.398438 4.390625 -0.234375 C 4.003906 -0.078125 3.585938 0 3.140625 0 Z M 3 -5.40625 L 2.09375 -5.40625 L 2.09375 -0.484375 L 3.125 -0.484375 C 3.613281 -0.484375 4.03125 -0.582031 4.375 -0.78125 C 4.71875 -0.988281 4.984375 -1.273438 5.171875 -1.640625 C 5.359375 -2.003906 5.453125 -2.4375 5.453125 -2.9375 C 5.453125 -3.4375 5.351562 -3.867188 5.15625 -4.234375 C 4.96875 -4.609375 4.691406 -4.894531 4.328125 -5.09375 C 3.960938 -5.300781 3.519531 -5.40625 3 -5.40625 Z M 3 -5.40625 "/>
</g>
<g id="tree-based-decision-tree-blog-glyph-0-18">
<path d="M 0.421875 0 L 0.421875 -0.140625 L 0.984375 -0.421875 L 0.984375 -3.09375 L 0.453125 -3.5625 L 0.453125 -3.625 L 1.5625 -4.109375 L 1.625 -4.109375 L 1.703125 -3.453125 L 1.75 -3.453125 C 1.96875 -3.679688 2.179688 -3.847656 2.390625 -3.953125 C 2.609375 -4.054688 2.84375 -4.109375 3.09375 -4.109375 C 3.445312 -4.109375 3.734375 -4.019531 3.953125 -3.84375 C 4.179688 -3.664062 4.296875 -3.40625 4.296875 -3.0625 L 4.296875 -0.421875 L 4.859375 -0.140625 L 4.859375 0 L 2.953125 0 L 2.953125 -0.140625 L 3.578125 -0.421875 L 3.578125 -2.640625 C 3.578125 -2.898438 3.492188 -3.097656 3.328125 -3.234375 C 3.171875 -3.378906 2.960938 -3.453125 2.703125 -3.453125 C 2.535156 -3.453125 2.351562 -3.421875 2.15625 -3.359375 C 1.96875 -3.304688 1.816406 -3.234375 1.703125 -3.140625 L 1.703125 -0.421875 L 2.34375 -0.140625 L 2.34375 0 Z M 0.421875 0 "/>
</g>
<g id="tree-based-decision-tree-blog-glyph-0-19">
<path d="M 1.390625 0.09375 C 1.109375 0.09375 0.875 0.0078125 0.6875 -0.15625 C 0.507812 -0.320312 0.421875 -0.550781 0.421875 -0.84375 C 0.421875 -1.132812 0.53125 -1.382812 0.75 -1.59375 C 0.96875 -1.8125 1.332031 -1.976562 1.84375 -2.09375 L 2.6875 -2.296875 L 2.6875 -2.953125 C 2.6875 -3.160156 2.609375 -3.335938 2.453125 -3.484375 C 2.304688 -3.628906 2.128906 -3.703125 1.921875 -3.703125 C 1.835938 -3.703125 1.753906 -3.691406 1.671875 -3.671875 C 1.585938 -3.648438 1.476562 -3.609375 1.34375 -3.546875 L 1.34375 -2.71875 L 0.765625 -2.71875 C 0.671875 -2.71875 0.601562 -2.738281 0.5625 -2.78125 C 0.53125 -2.832031 0.515625 -2.914062 0.515625 -3.03125 C 0.515625 -3.195312 0.582031 -3.363281 0.71875 -3.53125 C 0.863281 -3.695312 1.0625 -3.832031 1.3125 -3.9375 C 1.5625 -4.050781 1.835938 -4.109375 2.140625 -4.109375 C 2.566406 -4.109375 2.882812 -4.019531 3.09375 -3.84375 C 3.300781 -3.664062 3.40625 -3.429688 3.40625 -3.140625 L 3.40625 -0.59375 C 3.445312 -0.550781 3.503906 -0.515625 3.578125 -0.484375 C 3.660156 -0.460938 3.769531 -0.453125 3.90625 -0.453125 L 4.25 -0.453125 L 4.265625 -0.421875 L 4.265625 -0.40625 C 4.203125 -0.269531 4.097656 -0.148438 3.953125 -0.046875 C 3.816406 0.0429688 3.644531 0.09375 3.4375 0.09375 C 3.25 0.09375 3.097656 0.0429688 2.984375 -0.046875 C 2.867188 -0.148438 2.789062 -0.285156 2.75 -0.453125 L 2.6875 -0.453125 C 2.53125 -0.296875 2.335938 -0.164062 2.109375 -0.0625 C 1.878906 0.0390625 1.640625 0.09375 1.390625 0.09375 Z M 1.125 -1.015625 C 1.125 -0.648438 1.34375 -0.46875 1.78125 -0.46875 C 1.925781 -0.46875 2.066406 -0.476562 2.203125 -0.5 C 2.347656 -0.53125 2.507812 -0.585938 2.6875 -0.671875 L 2.6875 -2 C 2.207031 -1.90625 1.859375 -1.804688 1.640625 -1.703125 C 1.421875 -1.609375 1.28125 -1.503906 1.21875 -1.390625 C 1.15625 -1.273438 1.125 -1.148438 1.125 -1.015625 Z M 1.125 -1.015625 "/>
</g>
<g id="tree-based-decision-tree-blog-glyph-0-20">
<path d="M 2.3125 0.09375 C 1.738281 0.09375 1.285156 -0.0820312 0.953125 -0.4375 C 0.617188 -0.789062 0.453125 -1.253906 0.453125 -1.828125 C 0.453125 -2.273438 0.546875 -2.664062 0.734375 -3 C 0.929688 -3.34375 1.195312 -3.613281 1.53125 -3.8125 C 1.863281 -4.007812 2.238281 -4.109375 2.65625 -4.109375 C 2.90625 -4.109375 3.117188 -4.070312 3.296875 -4 C 3.484375 -3.925781 3.625 -3.835938 3.71875 -3.734375 C 3.820312 -3.640625 3.875 -3.546875 3.875 -3.453125 C 3.875 -3.359375 3.8125 -3.257812 3.6875 -3.15625 L 3.40625 -2.921875 L 2.765625 -3.734375 C 2.710938 -3.742188 2.664062 -3.75 2.625 -3.75 C 2.332031 -3.75 2.070312 -3.675781 1.84375 -3.53125 C 1.625 -3.382812 1.453125 -3.191406 1.328125 -2.953125 C 1.210938 -2.710938 1.15625 -2.445312 1.15625 -2.15625 C 1.15625 -1.644531 1.289062 -1.253906 1.5625 -0.984375 C 1.84375 -0.710938 2.222656 -0.578125 2.703125 -0.578125 C 3.023438 -0.578125 3.410156 -0.695312 3.859375 -0.9375 L 3.875 -0.9375 L 3.875 -0.84375 C 3.738281 -0.59375 3.535156 -0.375 3.265625 -0.1875 C 2.992188 0 2.675781 0.09375 2.3125 0.09375 Z M 2.3125 0.09375 "/>
</g>
<g id="tree-based-decision-tree-blog-glyph-0-21">
<path d="M 0.296875 0 L 0.296875 -0.140625 L 0.859375 -0.4375 L 3.15625 -5.9375 L 3.5625 -5.9375 L 5.8125 -0.46875 L 6.40625 -0.140625 L 6.40625 0 L 4.1875 0 L 4.1875 -0.140625 L 4.984375 -0.453125 L 4.3125 -2.09375 L 2.140625 -2.09375 L 1.46875 -0.453125 L 2.21875 -0.140625 L 2.21875 0 Z M 2.34375 -2.59375 L 4.109375 -2.59375 L 3.21875 -4.796875 Z M 2.34375 -2.59375 "/>
</g>
<g id="tree-based-decision-tree-blog-glyph-0-22">
<path d="M 0.421875 0 L 0.421875 -0.140625 L 0.984375 -0.421875 L 0.984375 -3.09375 L 0.453125 -3.5625 L 0.453125 -3.625 L 1.5625 -4.109375 L 1.625 -4.109375 L 1.703125 -3.453125 L 1.75 -3.453125 C 1.96875 -3.679688 2.175781 -3.847656 2.375 -3.953125 C 2.582031 -4.054688 2.8125 -4.109375 3.0625 -4.109375 C 3.34375 -4.109375 3.582031 -4.046875 3.78125 -3.921875 C 3.988281 -3.796875 4.125 -3.601562 4.1875 -3.34375 L 4.203125 -3.34375 C 4.453125 -3.601562 4.6875 -3.796875 4.90625 -3.921875 C 5.125 -4.046875 5.363281 -4.109375 5.625 -4.109375 C 5.957031 -4.109375 6.234375 -4.019531 6.453125 -3.84375 C 6.671875 -3.664062 6.78125 -3.40625 6.78125 -3.0625 L 6.78125 -0.421875 L 7.34375 -0.140625 L 7.34375 0 L 5.4375 0 L 5.4375 -0.140625 L 6.0625 -0.421875 L 6.0625 -2.640625 C 6.0625 -2.898438 5.984375 -3.097656 5.828125 -3.234375 C 5.671875 -3.378906 5.472656 -3.453125 5.234375 -3.453125 C 5.023438 -3.453125 4.832031 -3.414062 4.65625 -3.34375 C 4.476562 -3.28125 4.328125 -3.1875 4.203125 -3.0625 L 4.203125 -0.421875 L 4.828125 -0.140625 L 4.828125 0 L 2.890625 0 L 2.890625 -0.140625 L 3.5 -0.421875 L 3.5 -2.640625 C 3.5 -2.898438 3.414062 -3.097656 3.25 -3.234375 C 3.09375 -3.378906 2.894531 -3.453125 2.65625 -3.453125 C 2.507812 -3.453125 2.34375 -3.421875 2.15625 -3.359375 C 1.96875 -3.304688 1.816406 -3.234375 1.703125 -3.140625 L 1.703125 -0.421875 L 2.28125 -0.140625 L 2.28125 0 Z M 0.421875 0 "/>
</g>
<g id="tree-based-decision-tree-blog-glyph-0-23">
<path d="M 0.484375 0 L 0.484375 -0.140625 L 1.046875 -0.421875 L 1.046875 -3.609375 L 0.34375 -3.609375 L 0.34375 -4.015625 L 1.046875 -4.015625 L 1.046875 -4.3125 C 1.046875 -4.550781 1.101562 -4.804688 1.21875 -5.078125 C 1.332031 -5.347656 1.488281 -5.601562 1.6875 -5.84375 C 1.882812 -6.09375 2.109375 -6.296875 2.359375 -6.453125 C 2.617188 -6.609375 2.882812 -6.6875 3.15625 -6.6875 C 3.332031 -6.6875 3.457031 -6.660156 3.53125 -6.609375 C 3.601562 -6.554688 3.640625 -6.488281 3.640625 -6.40625 C 3.640625 -6.382812 3.632812 -6.351562 3.625 -6.3125 C 3.625 -6.269531 3.617188 -6.234375 3.609375 -6.203125 L 3.515625 -5.875 L 2.40625 -6.125 C 2.21875 -6.007812 2.0625 -5.804688 1.9375 -5.515625 C 1.820312 -5.222656 1.765625 -4.890625 1.765625 -4.515625 L 1.765625 -4.015625 L 2.9375 -4.015625 L 2.9375 -3.609375 L 1.765625 -3.609375 L 1.765625 -0.40625 L 2.390625 -0.140625 L 2.390625 0 Z M 0.484375 0 "/>
</g>
<g id="tree-based-decision-tree-blog-glyph-0-24">
<path d="M 0.53125 0 L 0.53125 -0.140625 L 1.25 -0.5 L 1.25 -5.375 L 0.546875 -5.75 L 0.546875 -5.90625 L 1.859375 -5.90625 L 5.265625 -1.609375 L 5.265625 -5.421875 L 4.375 -5.75 L 4.375 -5.90625 L 6.609375 -5.90625 L 6.609375 -5.75 L 5.90625 -5.40625 L 5.90625 0.046875 L 5.5625 0.046875 L 1.875 -4.609375 L 1.875 -0.484375 L 2.765625 -0.140625 L 2.765625 0 Z M 0.53125 0 "/>
</g>
<g id="tree-based-decision-tree-blog-glyph-0-25">
<path d="M 0.328125 1.765625 L 0.859375 -0.78125 L 1.84375 -0.78125 L 1.84375 -0.6875 L 0.46875 1.765625 Z M 0.328125 1.765625 "/>
</g>
<g id="tree-based-decision-tree-blog-glyph-0-26">
<path d="M -0.203125 -4.015625 L 1.9375 -4.015625 L 1.9375 -3.875 L 1.203125 -3.609375 L 1.203125 -3.5625 L 2.390625 -0.96875 L 2.40625 -0.96875 L 3.421875 -3.5 L 3.421875 -3.5625 L 2.75 -3.875 L 2.75 -4.015625 L 4.5 -4.015625 L 4.5 -3.875 L 3.828125 -3.578125 L 1.84375 1.25 C 1.707031 1.5625 1.554688 1.785156 1.390625 1.921875 C 1.234375 2.066406 1.03125 2.140625 0.78125 2.140625 C 0.625 2.140625 0.523438 2.117188 0.484375 2.078125 C 0.441406 2.035156 0.421875 1.929688 0.421875 1.765625 L 0.421875 1.40625 L 1.28125 1.40625 C 1.363281 1.300781 1.4375 1.1875 1.5 1.0625 C 1.570312 0.945312 1.644531 0.796875 1.71875 0.609375 C 1.800781 0.429688 1.90625 0.207031 2.03125 -0.0625 L 0.390625 -3.609375 L -0.203125 -3.875 Z M -0.203125 -4.015625 "/>
</g>
<g id="tree-based-decision-tree-blog-glyph-0-27">
<path d="M 3.546875 0 L 3.546875 -0.140625 L 4.109375 -0.421875 L 4.109375 -3.609375 L 1.765625 -3.609375 L 1.765625 -0.40625 L 2.390625 -0.140625 L 2.390625 0 L 0.484375 0 L 0.484375 -0.140625 L 1.046875 -0.421875 L 1.046875 -3.609375 L 0.34375 -3.609375 L 0.34375 -4.015625 L 1.046875 -4.015625 L 1.046875 -4.265625 C 1.046875 -4.492188 1.097656 -4.742188 1.203125 -5.015625 C 1.316406 -5.285156 1.457031 -5.546875 1.625 -5.796875 C 1.800781 -6.046875 2 -6.25 2.21875 -6.40625 C 2.4375 -6.5625 2.65625 -6.640625 2.875 -6.640625 C 3.039062 -6.640625 3.15625 -6.613281 3.21875 -6.5625 C 3.28125 -6.507812 3.3125 -6.453125 3.3125 -6.390625 C 3.3125 -6.335938 3.300781 -6.273438 3.28125 -6.203125 L 3.203125 -5.8125 L 2.25 -6.03125 C 2.09375 -5.882812 1.972656 -5.671875 1.890625 -5.390625 C 1.804688 -5.117188 1.765625 -4.804688 1.765625 -4.453125 L 1.765625 -4.015625 L 4.8125 -4.015625 L 4.8125 -0.421875 L 5.375 -0.140625 L 5.375 0 Z M 4.4375 -5.1875 C 4.28125 -5.1875 4.148438 -5.238281 4.046875 -5.34375 C 3.941406 -5.445312 3.890625 -5.578125 3.890625 -5.734375 C 3.890625 -5.890625 3.941406 -6.015625 4.046875 -6.109375 C 4.148438 -6.210938 4.28125 -6.265625 4.4375 -6.265625 C 4.59375 -6.265625 4.71875 -6.210938 4.8125 -6.109375 C 4.914062 -6.015625 4.96875 -5.890625 4.96875 -5.734375 C 4.96875 -5.578125 4.914062 -5.445312 4.8125 -5.34375 C 4.71875 -5.238281 4.59375 -5.1875 4.4375 -5.1875 Z M 4.4375 -5.1875 "/>
</g>
<g id="tree-based-decision-tree-blog-glyph-0-28">
<path d="M 1.125 0.046875 C 0.96875 0.046875 0.835938 -0.00390625 0.734375 -0.109375 C 0.628906 -0.222656 0.578125 -0.351562 0.578125 -0.5 C 0.578125 -0.644531 0.628906 -0.769531 0.734375 -0.875 C 0.835938 -0.988281 0.96875 -1.046875 1.125 -1.046875 C 1.269531 -1.046875 1.394531 -0.988281 1.5 -0.875 C 1.601562 -0.769531 1.65625 -0.644531 1.65625 -0.5 C 1.65625 -0.351562 1.601562 -0.222656 1.5 -0.109375 C 1.394531 -0.00390625 1.269531 0.046875 1.125 0.046875 Z M 1.125 0.046875 "/>
</g>
<g id="tree-based-decision-tree-blog-glyph-0-29">
<path d="M 2.03125 0 L 0.390625 -3.609375 L -0.203125 -3.875 L -0.203125 -4.015625 L 1.9375 -4.015625 L 1.9375 -3.875 L 1.203125 -3.609375 L 1.203125 -3.5625 L 2.34375 -1.0625 L 2.375 -1.0625 L 3.390625 -3.5 L 3.390625 -3.5625 L 2.75 -3.875 L 2.75 -4.015625 L 4.5 -4.015625 L 4.5 -3.875 L 3.828125 -3.5625 L 2.21875 0 Z M 2.03125 0 "/>
</g>
<g id="tree-based-decision-tree-blog-glyph-0-30">
<path d="M 2.03125 0 L 2.03125 -0.140625 L 2.84375 -0.5 L 2.84375 -2.75 L 0.859375 -5.453125 L 0.3125 -5.75 L 0.3125 -5.90625 L 2.46875 -5.90625 L 2.46875 -5.75 L 1.828125 -5.4375 L 1.828125 -5.40625 L 3.421875 -3.234375 L 4.859375 -5.390625 L 4.859375 -5.4375 L 4.203125 -5.75 L 4.203125 -5.90625 L 6.109375 -5.90625 L 6.109375 -5.75 L 5.53125 -5.453125 L 3.640625 -2.765625 L 3.640625 -0.5 L 4.453125 -0.140625 L 4.453125 0 Z M 2.03125 0 "/>
</g>
<g id="tree-based-decision-tree-blog-glyph-1-0">
<path d="M 3.25 -3.59375 L 3.796875 -3.59375 L 2.015625 0.78125 C 1.972656 0.882812 1.925781 0.972656 1.875 1.046875 C 1.832031 1.128906 1.773438 1.191406 1.703125 1.234375 C 1.628906 1.285156 1.546875 1.320312 1.453125 1.34375 C 1.359375 1.375 1.242188 1.390625 1.109375 1.390625 L 0.578125 1.390625 L 0.578125 0.921875 L 1.40625 0.921875 L 1.8125 -0.0625 L 0.375 -3.59375 L 0.9375 -3.59375 L 1.546875 -2.09375 L 2.078125 -0.71875 L 2.109375 -0.71875 L 2.640625 -2.09375 Z M 3.25 -3.59375 "/>
</g>
<g id="tree-based-decision-tree-blog-glyph-1-1">
<path d="M 2.15625 0.078125 C 1.894531 0.078125 1.660156 0.0351562 1.453125 -0.046875 C 1.242188 -0.140625 1.066406 -0.265625 0.921875 -0.421875 C 0.773438 -0.585938 0.660156 -0.785156 0.578125 -1.015625 C 0.503906 -1.242188 0.46875 -1.5 0.46875 -1.78125 C 0.46875 -2.070312 0.503906 -2.332031 0.578125 -2.5625 C 0.660156 -2.789062 0.773438 -2.988281 0.921875 -3.15625 C 1.066406 -3.320312 1.238281 -3.445312 1.4375 -3.53125 C 1.644531 -3.625 1.867188 -3.671875 2.109375 -3.671875 C 2.347656 -3.671875 2.566406 -3.625 2.765625 -3.53125 C 2.960938 -3.445312 3.128906 -3.328125 3.265625 -3.171875 C 3.410156 -3.015625 3.519531 -2.828125 3.59375 -2.609375 C 3.664062 -2.398438 3.703125 -2.171875 3.703125 -1.921875 L 3.703125 -1.65625 L 1.046875 -1.65625 L 1.046875 -1.484375 C 1.046875 -1.328125 1.070312 -1.179688 1.125 -1.046875 C 1.175781 -0.910156 1.25 -0.796875 1.34375 -0.703125 C 1.4375 -0.609375 1.550781 -0.53125 1.6875 -0.46875 C 1.820312 -0.414062 1.976562 -0.390625 2.15625 -0.390625 C 2.394531 -0.390625 2.597656 -0.445312 2.765625 -0.5625 C 2.941406 -0.675781 3.078125 -0.828125 3.171875 -1.015625 L 3.59375 -0.75 C 3.476562 -0.5 3.296875 -0.296875 3.046875 -0.140625 C 2.804688 0.00390625 2.507812 0.078125 2.15625 0.078125 Z M 2.109375 -3.21875 C 1.960938 -3.21875 1.820312 -3.1875 1.6875 -3.125 C 1.5625 -3.070312 1.445312 -2.992188 1.34375 -2.890625 C 1.25 -2.796875 1.175781 -2.679688 1.125 -2.546875 C 1.070312 -2.421875 1.046875 -2.28125 1.046875 -2.125 L 1.046875 -2.078125 L 3.109375 -2.078125 L 3.109375 -2.15625 C 3.109375 -2.3125 3.082031 -2.453125 3.03125 -2.578125 C 2.988281 -2.710938 2.921875 -2.828125 2.828125 -2.921875 C 2.742188 -3.015625 2.640625 -3.085938 2.515625 -3.140625 C 2.398438 -3.191406 2.265625 -3.21875 2.109375 -3.21875 Z M 2.109375 -3.21875 "/>
</g>
<g id="tree-based-decision-tree-blog-glyph-1-2">
<path d="M 2.125 0.078125 C 1.75 0.078125 1.425781 0.0117188 1.15625 -0.109375 C 0.882812 -0.234375 0.65625 -0.40625 0.46875 -0.625 L 0.84375 -0.953125 C 1.007812 -0.765625 1.191406 -0.617188 1.390625 -0.515625 C 1.597656 -0.421875 1.847656 -0.375 2.140625 -0.375 C 2.421875 -0.375 2.648438 -0.425781 2.828125 -0.53125 C 3.003906 -0.632812 3.09375 -0.789062 3.09375 -1 C 3.09375 -1.09375 3.070312 -1.171875 3.03125 -1.234375 C 3 -1.296875 2.953125 -1.34375 2.890625 -1.375 C 2.835938 -1.414062 2.773438 -1.445312 2.703125 -1.46875 C 2.628906 -1.488281 2.550781 -1.503906 2.46875 -1.515625 L 1.890625 -1.609375 C 1.765625 -1.628906 1.628906 -1.65625 1.484375 -1.6875 C 1.335938 -1.71875 1.203125 -1.769531 1.078125 -1.84375 C 0.960938 -1.914062 0.863281 -2.007812 0.78125 -2.125 C 0.707031 -2.25 0.671875 -2.40625 0.671875 -2.59375 C 0.671875 -2.78125 0.707031 -2.9375 0.78125 -3.0625 C 0.851562 -3.195312 0.953125 -3.3125 1.078125 -3.40625 C 1.203125 -3.5 1.351562 -3.566406 1.53125 -3.609375 C 1.707031 -3.648438 1.898438 -3.671875 2.109375 -3.671875 C 2.429688 -3.671875 2.710938 -3.617188 2.953125 -3.515625 C 3.191406 -3.410156 3.398438 -3.269531 3.578125 -3.09375 L 3.21875 -2.75 C 3.175781 -2.800781 3.125 -2.851562 3.0625 -2.90625 C 3 -2.957031 2.921875 -3.003906 2.828125 -3.046875 C 2.734375 -3.097656 2.625 -3.132812 2.5 -3.15625 C 2.382812 -3.1875 2.25 -3.203125 2.09375 -3.203125 C 1.8125 -3.203125 1.59375 -3.148438 1.4375 -3.046875 C 1.289062 -2.953125 1.21875 -2.816406 1.21875 -2.640625 C 1.21875 -2.546875 1.234375 -2.46875 1.265625 -2.40625 C 1.304688 -2.34375 1.351562 -2.289062 1.40625 -2.25 C 1.46875 -2.21875 1.535156 -2.191406 1.609375 -2.171875 C 1.691406 -2.148438 1.769531 -2.128906 1.84375 -2.109375 L 2.40625 -2.03125 C 2.539062 -2.007812 2.675781 -1.984375 2.8125 -1.953125 C 2.957031 -1.921875 3.09375 -1.867188 3.21875 -1.796875 C 3.34375 -1.722656 3.441406 -1.625 3.515625 -1.5 C 3.597656 -1.382812 3.640625 -1.226562 3.640625 -1.03125 C 3.640625 -0.675781 3.5 -0.398438 3.21875 -0.203125 C 2.945312 -0.015625 2.582031 0.078125 2.125 0.078125 Z M 2.125 0.078125 "/>
</g>
<g id="tree-based-decision-tree-blog-glyph-1-3">
<path d="M 0.6875 0 L 0.6875 -3.59375 L 1.234375 -3.59375 L 1.234375 -3 L 1.265625 -3 C 1.304688 -3.09375 1.351562 -3.175781 1.40625 -3.25 C 1.457031 -3.332031 1.523438 -3.40625 1.609375 -3.46875 C 1.691406 -3.53125 1.785156 -3.578125 1.890625 -3.609375 C 2.003906 -3.648438 2.132812 -3.671875 2.28125 -3.671875 C 2.65625 -3.671875 2.957031 -3.550781 3.1875 -3.3125 C 3.414062 -3.070312 3.53125 -2.734375 3.53125 -2.296875 L 3.53125 0 L 2.96875 0 L 2.96875 -2.203125 C 2.96875 -2.535156 2.894531 -2.78125 2.75 -2.9375 C 2.613281 -3.09375 2.40625 -3.171875 2.125 -3.171875 C 2.007812 -3.171875 1.898438 -3.15625 1.796875 -3.125 C 1.691406 -3.101562 1.597656 -3.0625 1.515625 -3 C 1.429688 -2.945312 1.363281 -2.875 1.3125 -2.78125 C 1.257812 -2.695312 1.234375 -2.597656 1.234375 -2.484375 L 1.234375 0 Z M 0.6875 0 "/>
</g>
<g id="tree-based-decision-tree-blog-glyph-1-4">
<path d="M 2.09375 0.078125 C 1.832031 0.078125 1.601562 0.0351562 1.40625 -0.046875 C 1.207031 -0.140625 1.035156 -0.265625 0.890625 -0.421875 C 0.753906 -0.585938 0.644531 -0.785156 0.5625 -1.015625 C 0.488281 -1.242188 0.453125 -1.503906 0.453125 -1.796875 C 0.453125 -2.078125 0.488281 -2.332031 0.5625 -2.5625 C 0.644531 -2.789062 0.753906 -2.988281 0.890625 -3.15625 C 1.035156 -3.320312 1.207031 -3.445312 1.40625 -3.53125 C 1.601562 -3.625 1.832031 -3.671875 2.09375 -3.671875 C 2.34375 -3.671875 2.566406 -3.625 2.765625 -3.53125 C 2.960938 -3.445312 3.128906 -3.320312 3.265625 -3.15625 C 3.410156 -2.988281 3.519531 -2.789062 3.59375 -2.5625 C 3.675781 -2.332031 3.71875 -2.078125 3.71875 -1.796875 C 3.71875 -1.503906 3.675781 -1.242188 3.59375 -1.015625 C 3.519531 -0.785156 3.410156 -0.585938 3.265625 -0.421875 C 3.128906 -0.265625 2.960938 -0.140625 2.765625 -0.046875 C 2.566406 0.0351562 2.34375 0.078125 2.09375 0.078125 Z M 2.09375 -0.390625 C 2.394531 -0.390625 2.640625 -0.484375 2.828125 -0.671875 C 3.023438 -0.859375 3.125 -1.144531 3.125 -1.53125 L 3.125 -2.046875 C 3.125 -2.441406 3.023438 -2.726562 2.828125 -2.90625 C 2.640625 -3.09375 2.394531 -3.1875 2.09375 -3.1875 C 1.78125 -3.1875 1.523438 -3.09375 1.328125 -2.90625 C 1.140625 -2.726562 1.046875 -2.441406 1.046875 -2.046875 L 1.046875 -1.53125 C 1.046875 -1.144531 1.140625 -0.859375 1.328125 -0.671875 C 1.523438 -0.484375 1.78125 -0.390625 2.09375 -0.390625 Z M 2.09375 -0.390625 "/>
</g>
</g>
<clipPath id="tree-based-decision-tree-blog-clip-0">
<path clip-rule="nonzero" d="M 248 98 L 337.523438 98 L 337.523438 147 L 248 147 Z M 248 98 "/>
</clipPath>
<clipPath id="tree-based-decision-tree-blog-clip-1">
<path clip-rule="nonzero" d="M 0.140625 211 L 90 211 L 90 252.582031 L 0.140625 252.582031 Z M 0.140625 211 "/>
</clipPath>
<clipPath id="tree-based-decision-tree-blog-clip-2">
<path clip-rule="nonzero" d="M 95 211 L 192 211 L 192 252.582031 L 95 252.582031 Z M 95 211 "/>
</clipPath>
</defs>
<path fill="none" stroke-width="0.69739" stroke-linecap="butt" stroke-linejoin="miter" stroke="var(--soft)" stroke-opacity="1" stroke-miterlimit="10" d="M 35.775868 14.174146 L -35.775701 14.174146 C -37.154555 14.174146 -38.26704 13.057744 -38.26704 11.682807 L -38.26704 -11.683289 C -38.26704 -13.058226 -37.154555 -14.174628 -35.775701 -14.174628 L 35.775868 -14.174628 C 37.154723 -14.174628 38.267207 -13.058226 38.267207 -11.683289 L 38.267207 11.682807 C 38.267207 13.057744 37.154723 14.174146 35.775868 14.174146 Z M 35.775868 14.174146 " transform="matrix(0.997205, 0, 0, -0.997205, 228.191323, 17.46265)"/>
<g fill="var(--ink)" fill-opacity="1">
<use xlink:href="#tree-based-decision-tree-blog-glyph-0-0" x="200.213607" y="14.278655"/>
<use xlink:href="#tree-based-decision-tree-blog-glyph-0-1" x="204.961444" y="14.278655"/>
<use xlink:href="#tree-based-decision-tree-blog-glyph-0-2" x="210.165288" y="14.278655"/>
<use xlink:href="#tree-based-decision-tree-blog-glyph-0-3" x="214.993597" y="14.278655"/>
<use xlink:href="#tree-based-decision-tree-blog-glyph-0-4" x="220.009673" y="14.278655"/>
<use xlink:href="#tree-based-decision-tree-blog-glyph-0-5" x="222.638419" y="14.278655"/>
</g>
<g fill="var(--ink)" fill-opacity="1">
<use xlink:href="#tree-based-decision-tree-blog-glyph-0-6" x="229.871941" y="14.278655"/>
</g>
<g fill="var(--ink)" fill-opacity="1">
<use xlink:href="#tree-based-decision-tree-blog-glyph-0-7" x="235.594381" y="14.278655"/>
<use xlink:href="#tree-based-decision-tree-blog-glyph-0-8" x="242.327189" y="14.278655"/>
<use xlink:href="#tree-based-decision-tree-blog-glyph-0-9" x="245.87689" y="14.278655"/>
<use xlink:href="#tree-based-decision-tree-blog-glyph-0-10" x="248.675521" y="14.278655"/>
<use xlink:href="#tree-based-decision-tree-blog-glyph-0-11" x="251.840746" y="14.278655"/>
</g>
<g fill="var(--ink)" fill-opacity="1">
<use xlink:href="#tree-based-decision-tree-blog-glyph-0-10" x="199.207697" y="25.206922"/>
<use xlink:href="#tree-based-decision-tree-blog-glyph-0-1" x="202.372922" y="25.206922"/>
</g>
<g fill="var(--ink)" fill-opacity="1">
<use xlink:href="#tree-based-decision-tree-blog-glyph-0-9" x="207.541" y="25.206922"/>
<use xlink:href="#tree-based-decision-tree-blog-glyph-0-12" x="210.339631" y="25.206922"/>
</g>
<g fill="var(--ink)" fill-opacity="1">
<use xlink:href="#tree-based-decision-tree-blog-glyph-0-13" x="216.428665" y="25.206922"/>
<use xlink:href="#tree-based-decision-tree-blog-glyph-0-4" x="221.4358" y="25.206922"/>
<use xlink:href="#tree-based-decision-tree-blog-glyph-0-2" x="224.064546" y="25.206922"/>
<use xlink:href="#tree-based-decision-tree-blog-glyph-0-14" x="228.892855" y="25.206922"/>
</g>
<g fill="var(--ink)" fill-opacity="1">
<use xlink:href="#tree-based-decision-tree-blog-glyph-0-15" x="236.010139" y="25.206922"/>
</g>
<g fill="var(--ink)" fill-opacity="1">
<use xlink:href="#tree-based-decision-tree-blog-glyph-0-2" x="241.12457" y="25.206922"/>
<use xlink:href="#tree-based-decision-tree-blog-glyph-0-12" x="245.952879" y="25.206922"/>
</g>
<g fill="var(--ink)" fill-opacity="1">
<use xlink:href="#tree-based-decision-tree-blog-glyph-0-10" x="249.735054" y="25.206922"/>
<use xlink:href="#tree-based-decision-tree-blog-glyph-0-16" x="252.900279" y="25.206922"/>
</g>
<path fill="none" stroke-width="0.69739" stroke-linecap="butt" stroke-linejoin="miter" stroke="var(--soft)" stroke-opacity="1" stroke-miterlimit="10" d="M 35.775868 -34.015244 L -35.775701 -34.015244 C -37.154555 -34.015244 -38.26704 -35.131646 -38.26704 -36.506583 L -38.26704 -59.872679 C -38.26704 -61.247616 -37.154555 -62.364018 -35.775701 -62.364018 L 35.775868 -62.364018 C 37.154723 -62.364018 38.267207 -61.247616 38.267207 -59.872679 L 38.267207 -36.506583 C 38.267207 -35.131646 37.154723 -34.015244 35.775868 -34.015244 Z M 35.775868 -34.015244 " transform="matrix(0.997205, 0, 0, -0.997205, 228.191323, 17.46265)"/>
<g fill="var(--ink)" fill-opacity="1">
<use xlink:href="#tree-based-decision-tree-blog-glyph-0-17" x="196.029017" y="62.378237"/>
<use xlink:href="#tree-based-decision-tree-blog-glyph-0-2" x="202.958534" y="62.378237"/>
</g>
<g fill="var(--ink)" fill-opacity="1">
<use xlink:href="#tree-based-decision-tree-blog-glyph-0-6" x="210.022171" y="62.378237"/>
</g>
<g fill="var(--ink)" fill-opacity="1">
<use xlink:href="#tree-based-decision-tree-blog-glyph-0-3" x="215.744611" y="62.378237"/>
<use xlink:href="#tree-based-decision-tree-blog-glyph-0-18" x="220.760688" y="62.378237"/>
<use xlink:href="#tree-based-decision-tree-blog-glyph-0-5" x="225.964531" y="62.378237"/>
<use xlink:href="#tree-based-decision-tree-blog-glyph-0-11" x="230.962725" y="62.378237"/>
<use xlink:href="#tree-based-decision-tree-blog-glyph-0-8" x="235.29032" y="62.378237"/>
<use xlink:href="#tree-based-decision-tree-blog-glyph-0-12" x="238.840021" y="62.378237"/>
</g>
<g fill="var(--ink)" fill-opacity="1">
<use xlink:href="#tree-based-decision-tree-blog-glyph-0-10" x="242.622197" y="62.378237"/>
<use xlink:href="#tree-based-decision-tree-blog-glyph-0-19" x="245.787421" y="62.378237"/>
<use xlink:href="#tree-based-decision-tree-blog-glyph-0-18" x="250.159723" y="62.378237"/>
<use xlink:href="#tree-based-decision-tree-blog-glyph-0-5" x="255.363567" y="62.378237"/>
</g>
<g fill="var(--ink)" fill-opacity="1">
<use xlink:href="#tree-based-decision-tree-blog-glyph-0-10" x="203.003248" y="73.306504"/>
<use xlink:href="#tree-based-decision-tree-blog-glyph-0-1" x="206.168472" y="73.306504"/>
<use xlink:href="#tree-based-decision-tree-blog-glyph-0-11" x="211.372316" y="73.306504"/>
</g>
<g fill="var(--ink)" fill-opacity="1">
<use xlink:href="#tree-based-decision-tree-blog-glyph-0-20" x="217.93524" y="73.306504"/>
<use xlink:href="#tree-based-decision-tree-blog-glyph-0-2" x="222.218128" y="73.306504"/>
<use xlink:href="#tree-based-decision-tree-blog-glyph-0-18" x="227.046437" y="73.306504"/>
<use xlink:href="#tree-based-decision-tree-blog-glyph-0-20" x="232.250281" y="73.306504"/>
<use xlink:href="#tree-based-decision-tree-blog-glyph-0-11" x="236.53317" y="73.306504"/>
<use xlink:href="#tree-based-decision-tree-blog-glyph-0-15" x="240.860765" y="73.306504"/>
<use xlink:href="#tree-based-decision-tree-blog-glyph-0-10" x="245.930489" y="73.306504"/>
<use xlink:href="#tree-based-decision-tree-blog-glyph-0-16" x="249.095714" y="73.306504"/>
</g>
<path fill="none" stroke-width="0.69739" stroke-linecap="butt" stroke-linejoin="miter" stroke="var(--soft)" stroke-opacity="1" stroke-miterlimit="10" d="M -32.254138 -90.708875 L -103.809624 -90.708875 C -105.184561 -90.708875 -106.300963 -91.825277 -106.300963 -93.200214 L -106.300963 -116.56631 C -106.300963 -117.941247 -105.184561 -119.057649 -103.809624 -119.057649 L -32.254138 -119.057649 C -30.879201 -119.057649 -29.762799 -117.941247 -29.762799 -116.56631 L -29.762799 -93.200214 C -29.762799 -91.825277 -30.879201 -90.708875 -32.254138 -90.708875 Z M -32.254138 -90.708875 " transform="matrix(0.997205, 0, 0, -0.997205, 228.191323, 17.46265)"/>
<g fill="var(--ink)" fill-opacity="1">
<use xlink:href="#tree-based-decision-tree-blog-glyph-0-21" x="135.581379" y="119.896975"/>
<use xlink:href="#tree-based-decision-tree-blog-glyph-0-22" x="142.287363" y="119.896975"/>
</g>
<g fill="var(--ink)" fill-opacity="1">
<use xlink:href="#tree-based-decision-tree-blog-glyph-0-6" x="152.21222" y="119.896975"/>
</g>
<g fill="var(--ink)" fill-opacity="1">
<use xlink:href="#tree-based-decision-tree-blog-glyph-0-23" x="157.93466" y="119.896975"/>
<use xlink:href="#tree-based-decision-tree-blog-glyph-0-11" x="160.992589" y="119.896975"/>
<use xlink:href="#tree-based-decision-tree-blog-glyph-0-11" x="165.320184" y="119.896975"/>
<use xlink:href="#tree-based-decision-tree-blog-glyph-0-4" x="169.647779" y="119.896975"/>
<use xlink:href="#tree-based-decision-tree-blog-glyph-0-9" x="172.276525" y="119.896975"/>
<use xlink:href="#tree-based-decision-tree-blog-glyph-0-18" x="175.075156" y="119.896975"/>
</g>
<g fill="var(--ink)" fill-opacity="1">
<use xlink:href="#tree-based-decision-tree-blog-glyph-0-14" x="180.243235" y="119.896975"/>
</g>
<g fill="var(--ink)" fill-opacity="1">
<use xlink:href="#tree-based-decision-tree-blog-glyph-0-10" x="148.832405" y="130.825242"/>
<use xlink:href="#tree-based-decision-tree-blog-glyph-0-9" x="151.997629" y="130.825242"/>
<use xlink:href="#tree-based-decision-tree-blog-glyph-0-8" x="154.79626" y="130.825242"/>
<use xlink:href="#tree-based-decision-tree-blog-glyph-0-11" x="158.345961" y="130.825242"/>
<use xlink:href="#tree-based-decision-tree-blog-glyph-0-5" x="162.673556" y="130.825242"/>
</g>
<g fill="var(--ink)" fill-opacity="1">
<use xlink:href="#tree-based-decision-tree-blog-glyph-0-16" x="167.591278" y="130.825242"/>
</g>
<path fill-rule="nonzero" fill="var(--fd)" fill-opacity="0.16" d="M 331.710938 107.917969 L 260.355469 107.917969 C 258.984375 107.917969 257.871094 109.03125 257.871094 110.402344 L 257.871094 133.703125 C 257.871094 135.074219 258.984375 136.1875 260.355469 136.1875 L 331.710938 136.1875 C 333.082031 136.1875 334.195312 135.074219 334.195312 133.703125 L 334.195312 110.402344 C 334.195312 109.03125 333.082031 107.917969 331.710938 107.917969 Z M 331.710938 107.917969 "/>
<g clip-path="url(#tree-based-decision-tree-blog-clip-0)">
<path fill="none" stroke-width="0.69739" stroke-linecap="butt" stroke-linejoin="miter" stroke="var(--fd)" stroke-opacity="1" stroke-miterlimit="10" d="M 103.809792 -90.708875 L 32.254306 -90.708875 C 30.879369 -90.708875 29.762967 -91.825277 29.762967 -93.200214 L 29.762967 -116.56631 C 29.762967 -117.941247 30.879369 -119.057649 32.254306 -119.057649 L 103.809792 -119.057649 C 105.184729 -119.057649 106.301131 -117.941247 106.301131 -116.56631 L 106.301131 -93.200214 C 106.301131 -91.825277 105.184729 -90.708875 103.809792 -90.708875 Z M 103.809792 -90.708875 " transform="matrix(0.997205, 0, 0, -0.997205, 228.191323, 17.46265)"/>
</g>
<g fill="var(--ink)" fill-opacity="1">
<use xlink:href="#tree-based-decision-tree-blog-glyph-0-24" x="271.073519" y="119.896975"/>
<use xlink:href="#tree-based-decision-tree-blog-glyph-0-2" x="278.217628" y="119.896975"/>
</g>
<g fill="var(--ink)" fill-opacity="1">
<use xlink:href="#tree-based-decision-tree-blog-glyph-0-25" x="282.965465" y="119.896975"/>
</g>
<g fill="var(--ink)" fill-opacity="1">
<use xlink:href="#tree-based-decision-tree-blog-glyph-0-12" x="287.42718" y="119.896975"/>
</g>
<g fill="var(--ink)" fill-opacity="1">
<use xlink:href="#tree-based-decision-tree-blog-glyph-0-10" x="291.209355" y="119.896975"/>
<use xlink:href="#tree-based-decision-tree-blog-glyph-0-3" x="294.374579" y="119.896975"/>
<use xlink:href="#tree-based-decision-tree-blog-glyph-0-5" x="299.390656" y="119.896975"/>
<use xlink:href="#tree-based-decision-tree-blog-glyph-0-26" x="304.38885" y="119.896975"/>
</g>
<g fill="var(--ink)" fill-opacity="1">
<use xlink:href="#tree-based-decision-tree-blog-glyph-0-3" x="310.907066" y="119.896975"/>
<use xlink:href="#tree-based-decision-tree-blog-glyph-0-15" x="315.923143" y="119.896975"/>
</g>
<g fill="var(--ink)" fill-opacity="1">
<use xlink:href="#tree-based-decision-tree-blog-glyph-0-22" x="275.427953" y="130.825242"/>
<use xlink:href="#tree-based-decision-tree-blog-glyph-0-2" x="283.117482" y="130.825242"/>
<use xlink:href="#tree-based-decision-tree-blog-glyph-0-8" x="287.945791" y="130.825242"/>
<use xlink:href="#tree-based-decision-tree-blog-glyph-0-11" x="291.495492" y="130.825242"/>
</g>
<g fill="var(--ink)" fill-opacity="1">
<use xlink:href="#tree-based-decision-tree-blog-glyph-0-27" x="298.058415" y="130.825242"/>
<use xlink:href="#tree-based-decision-tree-blog-glyph-0-8" x="303.914975" y="130.825242"/>
<use xlink:href="#tree-based-decision-tree-blog-glyph-0-12" x="307.464676" y="130.825242"/>
</g>
<g fill="var(--ink)" fill-opacity="1">
<use xlink:href="#tree-based-decision-tree-blog-glyph-0-10" x="311.246851" y="130.825242"/>
<use xlink:href="#tree-based-decision-tree-blog-glyph-0-28" x="314.412076" y="130.825242"/>
</g>
<path fill="none" stroke-width="0.69739" stroke-linecap="butt" stroke-linejoin="miter" stroke="var(--soft)" stroke-opacity="1" stroke-miterlimit="10" d="M -100.288062 -147.402505 L -171.843548 -147.402505 C -173.218485 -147.402505 -174.334887 -148.518907 -174.334887 -149.893844 L -174.334887 -173.25994 C -174.334887 -174.634877 -173.218485 -175.751279 -171.843548 -175.751279 L -100.288062 -175.751279 C -98.913125 -175.751279 -97.796723 -174.634877 -97.796723 -173.25994 L -97.796723 -149.893844 C -97.796723 -148.518907 -98.913125 -147.402505 -100.288062 -147.402505 Z M -100.288062 -147.402505 " transform="matrix(0.997205, 0, 0, -0.997205, 228.191323, 17.46265)"/>
<g fill="var(--ink)" fill-opacity="1">
<use xlink:href="#tree-based-decision-tree-blog-glyph-0-17" x="73.573404" y="175.403863"/>
<use xlink:href="#tree-based-decision-tree-blog-glyph-0-2" x="80.502921" y="175.403863"/>
</g>
<g fill="var(--ink)" fill-opacity="1">
<use xlink:href="#tree-based-decision-tree-blog-glyph-0-6" x="87.566558" y="175.403863"/>
</g>
<g fill="var(--ink)" fill-opacity="1">
<use xlink:href="#tree-based-decision-tree-blog-glyph-0-1" x="93.288998" y="175.403863"/>
</g>
<g fill="var(--ink)" fill-opacity="1">
<use xlink:href="#tree-based-decision-tree-blog-glyph-0-19" x="98.457077" y="175.403863"/>
<use xlink:href="#tree-based-decision-tree-blog-glyph-0-29" x="102.829378" y="175.403863"/>
<use xlink:href="#tree-based-decision-tree-blog-glyph-0-11" x="107.121208" y="175.403863"/>
</g>
<g fill="var(--ink)" fill-opacity="1">
<use xlink:href="#tree-based-decision-tree-blog-glyph-0-10" x="69.894048" y="186.33213"/>
<use xlink:href="#tree-based-decision-tree-blog-glyph-0-11" x="73.059272" y="186.33213"/>
</g>
<g fill="var(--ink)" fill-opacity="1">
<use xlink:href="#tree-based-decision-tree-blog-glyph-0-19" x="77.431574" y="186.33213"/>
</g>
<g fill="var(--ink)" fill-opacity="1">
<use xlink:href="#tree-based-decision-tree-blog-glyph-0-18" x="84.039204" y="186.33213"/>
<use xlink:href="#tree-based-decision-tree-blog-glyph-0-11" x="89.243048" y="186.33213"/>
</g>
<g fill="var(--ink)" fill-opacity="1">
<use xlink:href="#tree-based-decision-tree-blog-glyph-0-19" x="93.61535" y="186.33213"/>
<use xlink:href="#tree-based-decision-tree-blog-glyph-0-8" x="97.987651" y="186.33213"/>
<use xlink:href="#tree-based-decision-tree-blog-glyph-0-13" x="101.537352" y="186.33213"/>
<use xlink:href="#tree-based-decision-tree-blog-glyph-0-26" x="106.544487" y="186.33213"/>
<use xlink:href="#tree-based-decision-tree-blog-glyph-0-16" x="110.836317" y="186.33213"/>
</g>
<path fill-rule="nonzero" fill="var(--fa)" fill-opacity="0.16" stroke-width="0.69739" stroke-linecap="butt" stroke-linejoin="miter" stroke="var(--fa)" stroke-opacity="1" stroke-miterlimit="10" d="M 35.775868 -147.402505 L -35.775701 -147.402505 C -37.154555 -147.402505 -38.26704 -148.518907 -38.26704 -149.893844 L -38.26704 -173.25994 C -38.26704 -174.634877 -37.154555 -175.751279 -35.775701 -175.751279 L 35.775868 -175.751279 C 37.154723 -175.751279 38.267207 -174.634877 38.267207 -173.25994 L 38.267207 -149.893844 C 38.267207 -148.518907 37.154723 -147.402505 35.775868 -147.402505 Z M 35.775868 -147.402505 " transform="matrix(0.997205, 0, 0, -0.997205, 228.191323, 17.46265)"/>
<g fill="var(--ink)" fill-opacity="1">
<use xlink:href="#tree-based-decision-tree-blog-glyph-0-30" x="208.721359" y="175.229502"/>
</g>
<g fill="var(--ink)" fill-opacity="1">
<use xlink:href="#tree-based-decision-tree-blog-glyph-0-11" x="214.524271" y="175.229502"/>
<use xlink:href="#tree-based-decision-tree-blog-glyph-0-12" x="218.851866" y="175.229502"/>
</g>
<g fill="var(--ink)" fill-opacity="1">
<use xlink:href="#tree-based-decision-tree-blog-glyph-0-25" x="222.6251" y="175.229502"/>
</g>
<g fill="var(--ink)" fill-opacity="1">
<use xlink:href="#tree-based-decision-tree-blog-glyph-0-7" x="227.086815" y="175.229502"/>
<use xlink:href="#tree-based-decision-tree-blog-glyph-0-8" x="233.819623" y="175.229502"/>
<use xlink:href="#tree-based-decision-tree-blog-glyph-0-9" x="237.369324" y="175.229502"/>
<use xlink:href="#tree-based-decision-tree-blog-glyph-0-10" x="240.167955" y="175.229502"/>
<use xlink:href="#tree-based-decision-tree-blog-glyph-0-11" x="243.33318" y="175.229502"/>
</g>
<g fill="var(--ink)" fill-opacity="1">
<use xlink:href="#tree-based-decision-tree-blog-glyph-0-10" x="211.166814" y="186.157769"/>
<use xlink:href="#tree-based-decision-tree-blog-glyph-0-1" x="214.332039" y="186.157769"/>
<use xlink:href="#tree-based-decision-tree-blog-glyph-0-11" x="219.535883" y="186.157769"/>
</g>
<g fill="var(--ink)" fill-opacity="1">
<use xlink:href="#tree-based-decision-tree-blog-glyph-0-15" x="226.098806" y="186.157769"/>
</g>
<g fill="var(--ink)" fill-opacity="1">
<use xlink:href="#tree-based-decision-tree-blog-glyph-0-2" x="231.213237" y="186.157769"/>
<use xlink:href="#tree-based-decision-tree-blog-glyph-0-12" x="236.041546" y="186.157769"/>
</g>
<g fill="var(--ink)" fill-opacity="1">
<use xlink:href="#tree-based-decision-tree-blog-glyph-0-10" x="239.823721" y="186.157769"/>
<use xlink:href="#tree-based-decision-tree-blog-glyph-0-28" x="242.988945" y="186.157769"/>
</g>
<path fill-rule="nonzero" fill="var(--fa)" fill-opacity="0.16" d="M 77.304688 220.988281 L 5.949219 220.988281 C 4.574219 220.988281 3.464844 222.101562 3.464844 223.472656 L 3.464844 246.773438 C 3.464844 248.144531 4.574219 249.257812 5.949219 249.257812 L 77.304688 249.257812 C 78.675781 249.257812 79.785156 248.144531 79.785156 246.773438 L 79.785156 223.472656 C 79.785156 222.101562 78.675781 220.988281 77.304688 220.988281 Z M 77.304688 220.988281 "/>
<g clip-path="url(#tree-based-decision-tree-blog-clip-1)">
<path fill="none" stroke-width="0.69739" stroke-linecap="butt" stroke-linejoin="miter" stroke="var(--fa)" stroke-opacity="1" stroke-miterlimit="10" d="M -151.309587 -204.096136 L -222.865073 -204.096136 C -224.243927 -204.096136 -225.356412 -205.212538 -225.356412 -206.587475 L -225.356412 -229.953571 C -225.356412 -231.328508 -224.243927 -232.44491 -222.865073 -232.44491 L -151.309587 -232.44491 C -149.93465 -232.44491 -148.822165 -231.328508 -148.822165 -229.953571 L -148.822165 -206.587475 C -148.822165 -205.212538 -149.93465 -204.096136 -151.309587 -204.096136 Z M -151.309587 -204.096136 " transform="matrix(0.997205, 0, 0, -0.997205, 228.191323, 17.46265)"/>
</g>
<g fill="var(--ink)" fill-opacity="1">
<use xlink:href="#tree-based-decision-tree-blog-glyph-0-30" x="22.155324" y="231.764678"/>
</g>
<g fill="var(--ink)" fill-opacity="1">
<use xlink:href="#tree-based-decision-tree-blog-glyph-0-11" x="27.958236" y="231.764678"/>
<use xlink:href="#tree-based-decision-tree-blog-glyph-0-12" x="32.285832" y="231.764678"/>
</g>
<g fill="var(--ink)" fill-opacity="1">
<use xlink:href="#tree-based-decision-tree-blog-glyph-0-25" x="36.059065" y="231.764678"/>
</g>
<g fill="var(--ink)" fill-opacity="1">
<use xlink:href="#tree-based-decision-tree-blog-glyph-0-7" x="40.52078" y="231.764678"/>
<use xlink:href="#tree-based-decision-tree-blog-glyph-0-8" x="47.253589" y="231.764678"/>
<use xlink:href="#tree-based-decision-tree-blog-glyph-0-9" x="50.80329" y="231.764678"/>
<use xlink:href="#tree-based-decision-tree-blog-glyph-0-10" x="53.601921" y="231.764678"/>
<use xlink:href="#tree-based-decision-tree-blog-glyph-0-11" x="56.767145" y="231.764678"/>
</g>
<g fill="var(--ink)" fill-opacity="1">
<use xlink:href="#tree-based-decision-tree-blog-glyph-0-10" x="24.60078" y="242.692945"/>
<use xlink:href="#tree-based-decision-tree-blog-glyph-0-1" x="27.766004" y="242.692945"/>
<use xlink:href="#tree-based-decision-tree-blog-glyph-0-11" x="32.969848" y="242.692945"/>
</g>
<g fill="var(--ink)" fill-opacity="1">
<use xlink:href="#tree-based-decision-tree-blog-glyph-0-15" x="39.532771" y="242.692945"/>
</g>
<g fill="var(--ink)" fill-opacity="1">
<use xlink:href="#tree-based-decision-tree-blog-glyph-0-2" x="44.647202" y="242.692945"/>
<use xlink:href="#tree-based-decision-tree-blog-glyph-0-12" x="49.475511" y="242.692945"/>
</g>
<g fill="var(--ink)" fill-opacity="1">
<use xlink:href="#tree-based-decision-tree-blog-glyph-0-10" x="53.257686" y="242.692945"/>
<use xlink:href="#tree-based-decision-tree-blog-glyph-0-28" x="56.422911" y="242.692945"/>
</g>
<path fill-rule="nonzero" fill="var(--fd)" fill-opacity="0.16" d="M 179.066406 220.988281 L 107.710938 220.988281 C 106.339844 220.988281 105.226562 222.101562 105.226562 223.472656 L 105.226562 246.773438 C 105.226562 248.144531 106.339844 249.257812 107.710938 249.257812 L 179.066406 249.257812 C 180.4375 249.257812 181.550781 248.144531 181.550781 246.773438 L 181.550781 223.472656 C 181.550781 222.101562 180.4375 220.988281 179.066406 220.988281 Z M 179.066406 220.988281 "/>
<g clip-path="url(#tree-based-decision-tree-blog-clip-2)">
<path fill="none" stroke-width="0.69739" stroke-linecap="butt" stroke-linejoin="miter" stroke="var(--fd)" stroke-opacity="1" stroke-miterlimit="10" d="M -49.262619 -204.096136 L -120.818105 -204.096136 C -122.193042 -204.096136 -123.309444 -205.212538 -123.309444 -206.587475 L -123.309444 -229.953571 C -123.309444 -231.328508 -122.193042 -232.44491 -120.818105 -232.44491 L -49.262619 -232.44491 C -47.887682 -232.44491 -46.77128 -231.328508 -46.77128 -229.953571 L -46.77128 -206.587475 C -46.77128 -205.212538 -47.887682 -204.096136 -49.262619 -204.096136 Z M -49.262619 -204.096136 " transform="matrix(0.997205, 0, 0, -0.997205, 228.191323, 17.46265)"/>
</g>
<g fill="var(--ink)" fill-opacity="1">
<use xlink:href="#tree-based-decision-tree-blog-glyph-0-24" x="126.19858" y="232.967317"/>
<use xlink:href="#tree-based-decision-tree-blog-glyph-0-2" x="133.342688" y="232.967317"/>
</g>
<g fill="var(--ink)" fill-opacity="1">
<use xlink:href="#tree-based-decision-tree-blog-glyph-0-25" x="138.090525" y="232.967317"/>
</g>
<g fill="var(--ink)" fill-opacity="1">
<use xlink:href="#tree-based-decision-tree-blog-glyph-0-5" x="142.55224" y="232.967317"/>
<use xlink:href="#tree-based-decision-tree-blog-glyph-0-2" x="147.550434" y="232.967317"/>
</g>
<g fill="var(--ink)" fill-opacity="1">
<use xlink:href="#tree-based-decision-tree-blog-glyph-0-9" x="154.614071" y="232.967317"/>
<use xlink:href="#tree-based-decision-tree-blog-glyph-0-10" x="157.412702" y="232.967317"/>
</g>
<g fill="var(--ink)" fill-opacity="1">
<use xlink:href="#tree-based-decision-tree-blog-glyph-0-19" x="116.881726" y="243.895584"/>
<use xlink:href="#tree-based-decision-tree-blog-glyph-0-18" x="121.254028" y="243.895584"/>
<use xlink:href="#tree-based-decision-tree-blog-glyph-0-2" x="126.457872" y="243.895584"/>
<use xlink:href="#tree-based-decision-tree-blog-glyph-0-10" x="131.28618" y="243.895584"/>
<use xlink:href="#tree-based-decision-tree-blog-glyph-0-1" x="134.451405" y="243.895584"/>
<use xlink:href="#tree-based-decision-tree-blog-glyph-0-11" x="139.655249" y="243.895584"/>
<use xlink:href="#tree-based-decision-tree-blog-glyph-0-8" x="143.982844" y="243.895584"/>
</g>
<g fill="var(--ink)" fill-opacity="1">
<use xlink:href="#tree-based-decision-tree-blog-glyph-0-10" x="149.767873" y="243.895584"/>
<use xlink:href="#tree-based-decision-tree-blog-glyph-0-9" x="152.933098" y="243.895584"/>
<use xlink:href="#tree-based-decision-tree-blog-glyph-0-22" x="155.731729" y="243.895584"/>
<use xlink:href="#tree-based-decision-tree-blog-glyph-0-11" x="163.421257" y="243.895584"/>
</g>
<g fill="var(--ink)" fill-opacity="1">
<use xlink:href="#tree-based-decision-tree-blog-glyph-0-28" x="167.668381" y="243.895584"/>
</g>
<path fill="none" stroke-width="0.49814" stroke-linecap="butt" stroke-linejoin="miter" stroke="var(--soft)" stroke-opacity="1" stroke-miterlimit="10" d="M 0.0000838221 -14.523259 L 0.0000838221 -29.667153 " transform="matrix(0.997205, 0, 0, -0.997205, 228.191323, 17.46265)"/>
<path fill-rule="nonzero" fill="var(--soft)" fill-opacity="1" stroke-width="0.49814" stroke-linecap="butt" stroke-linejoin="miter" stroke="var(--soft)" stroke-opacity="1" stroke-miterlimit="10" d="M 5.506804 0.0000838221 L 0.821834 1.7119 L 2.361293 0.0000838221 L 0.821834 -1.711732 Z M 5.506804 0.0000838221 " transform="matrix(0, 0.997205, 0.997205, 0, 228.191323, 44.817182)"/>
<path fill="none" stroke-width="0.49814" stroke-linecap="butt" stroke-linejoin="miter" stroke="var(--soft)" stroke-opacity="1" stroke-miterlimit="10" d="M 0.0000838221 -62.712649 L -64.328169 -88.856039 " transform="matrix(0.997205, 0, 0, -0.997205, 228.191323, 17.46265)"/>
<path fill-rule="nonzero" fill="var(--soft)" fill-opacity="1" stroke-width="0.49814" stroke-linecap="butt" stroke-linejoin="miter" stroke="var(--soft)" stroke-opacity="1" stroke-miterlimit="10" d="M 5.506232 -0.000308884 L 0.820101 1.71393 L 2.360811 0.0010474 L 0.819386 -1.710828 Z M 5.506232 -0.000308884 " transform="matrix(-0.9238, 0.375448, 0.375448, 0.9238, 166.110213, 105.229859)"/>
<path fill-rule="nonzero" fill="var(--bg)" fill-opacity="1" d="M 186.519531 97.808594 L 202.019531 97.808594 L 202.019531 89.761719 L 186.519531 89.761719 Z M 186.519531 97.808594 "/>
<g fill="var(--faint)" fill-opacity="1">
<use xlink:href="#tree-based-decision-tree-blog-glyph-1-0" x="188.011242" y="94.925663"/>
<use xlink:href="#tree-based-decision-tree-blog-glyph-1-1" x="192.183854" y="94.925663"/>
<use xlink:href="#tree-based-decision-tree-blog-glyph-1-2" x="196.356467" y="94.925663"/>
</g>
<path fill="none" stroke-width="0.49814" stroke-linecap="butt" stroke-linejoin="miter" stroke="var(--soft)" stroke-opacity="1" stroke-miterlimit="10" d="M 0.0000838221 -62.712649 L 64.328337 -88.856039 " transform="matrix(0.997205, 0, 0, -0.997205, 228.191323, 17.46265)"/>
<path fill-rule="nonzero" fill="var(--soft)" fill-opacity="1" stroke-width="0.49814" stroke-linecap="butt" stroke-linejoin="miter" stroke="var(--soft)" stroke-opacity="1" stroke-miterlimit="10" d="M 5.506387 0.000372006 L 0.819541 1.710892 L 2.360967 -0.000984274 L 0.820257 -1.713867 Z M 5.506387 0.000372006 " transform="matrix(0.9238, 0.375448, 0.375448, -0.9238, 290.272432, 105.229859)"/>
<path fill-rule="nonzero" fill="var(--bg)" fill-opacity="1" d="M 256.449219 97.152344 L 267.773438 97.152344 L 267.773438 90.417969 L 256.449219 90.417969 Z M 256.449219 97.152344 "/>
<g fill="var(--faint)" fill-opacity="1">
<use xlink:href="#tree-based-decision-tree-blog-glyph-1-3" x="257.939735" y="95.57936"/>
<use xlink:href="#tree-based-decision-tree-blog-glyph-1-4" x="262.112347" y="95.57936"/>
</g>
<path fill="none" stroke-width="0.49814" stroke-linecap="butt" stroke-linejoin="miter" stroke="var(--soft)" stroke-opacity="1" stroke-miterlimit="10" d="M -68.03384 -119.406279 L -132.358175 -145.54967 " transform="matrix(0.997205, 0, 0, -0.997205, 228.191323, 17.46265)"/>
<path fill-rule="nonzero" fill="var(--soft)" fill-opacity="1" stroke-width="0.49814" stroke-linecap="butt" stroke-linejoin="miter" stroke="var(--soft)" stroke-opacity="1" stroke-miterlimit="10" d="M 5.507653 -0.000885771 L 0.821522 1.713353 L 2.362232 0.000470509 L 0.820807 -1.711405 Z M 5.507653 -0.000885771 " transform="matrix(-0.9238, 0.375448, 0.375448, 0.9238, 98.267992, 161.765015)"/>
<path fill-rule="nonzero" fill="var(--bg)" fill-opacity="1" d="M 118.679688 154.34375 L 134.175781 154.34375 L 134.175781 146.296875 L 118.679688 146.296875 Z M 118.679688 154.34375 "/>
<g fill="var(--faint)" fill-opacity="1">
<use xlink:href="#tree-based-decision-tree-blog-glyph-1-0" x="120.169031" y="151.460819"/>
<use xlink:href="#tree-based-decision-tree-blog-glyph-1-1" x="124.341644" y="151.460819"/>
<use xlink:href="#tree-based-decision-tree-blog-glyph-1-2" x="128.514256" y="151.460819"/>
</g>
<path fill="none" stroke-width="0.49814" stroke-linecap="butt" stroke-linejoin="miter" stroke="var(--soft)" stroke-opacity="1" stroke-miterlimit="10" d="M -68.03384 -119.406279 L -3.705587 -145.54967 " transform="matrix(0.997205, 0, 0, -0.997205, 228.191323, 17.46265)"/>
<path fill-rule="nonzero" fill="var(--soft)" fill-opacity="1" stroke-width="0.49814" stroke-linecap="butt" stroke-linejoin="miter" stroke="var(--soft)" stroke-opacity="1" stroke-miterlimit="10" d="M 5.508558 0.0012539 L 0.821713 1.711773 L 2.359509 -0.00157728 L 0.822428 -1.712985 Z M 5.508558 0.0012539 " transform="matrix(0.9238, 0.375448, 0.375448, -0.9238, 222.430252, 161.765015)"/>
<path fill-rule="nonzero" fill="var(--bg)" fill-opacity="1" d="M 188.605469 153.6875 L 199.933594 153.6875 L 199.933594 146.953125 L 188.605469 146.953125 Z M 188.605469 153.6875 "/>
<g fill="var(--faint)" fill-opacity="1">
<use xlink:href="#tree-based-decision-tree-blog-glyph-1-3" x="190.097554" y="152.114516"/>
<use xlink:href="#tree-based-decision-tree-blog-glyph-1-4" x="194.270166" y="152.114516"/>
</g>
<path fill="none" stroke-width="0.49814" stroke-linecap="butt" stroke-linejoin="miter" stroke="var(--soft)" stroke-opacity="1" stroke-miterlimit="10" d="M -136.063846 -176.09991 L -183.571643 -201.843746 " transform="matrix(0.997205, 0, 0, -0.997205, 228.191323, 17.46265)"/>
<path fill-rule="nonzero" fill="var(--soft)" fill-opacity="1" stroke-width="0.49814" stroke-linecap="butt" stroke-linejoin="miter" stroke="var(--soft)" stroke-opacity="1" stroke-miterlimit="10" d="M 5.506934 0.00202242 L 0.820052 1.71299 L 2.360491 0.0005192 L 0.82108 -1.713896 Z M 5.506934 0.00202242 " transform="matrix(-0.876712, 0.475068, 0.475068, 0.876712, 47.092662, 217.678932)"/>
<path fill-rule="nonzero" fill="var(--bg)" fill-opacity="1" d="M 59.316406 210.878906 L 74.816406 210.878906 L 74.816406 202.832031 L 59.316406 202.832031 Z M 59.316406 210.878906 "/>
<g fill="var(--faint)" fill-opacity="1">
<use xlink:href="#tree-based-decision-tree-blog-glyph-1-0" x="60.807109" y="207.995994"/>
<use xlink:href="#tree-based-decision-tree-blog-glyph-1-1" x="64.979722" y="207.995994"/>
<use xlink:href="#tree-based-decision-tree-blog-glyph-1-2" x="69.152334" y="207.995994"/>
</g>
<path fill="none" stroke-width="0.49814" stroke-linecap="butt" stroke-linejoin="miter" stroke="var(--soft)" stroke-opacity="1" stroke-miterlimit="10" d="M -136.063846 -176.09991 L -88.556049 -201.843746 " transform="matrix(0.997205, 0, 0, -0.997205, 228.191323, 17.46265)"/>
<path fill-rule="nonzero" fill="var(--soft)" fill-opacity="1" stroke-width="0.49814" stroke-linecap="butt" stroke-linejoin="miter" stroke="var(--soft)" stroke-opacity="1" stroke-miterlimit="10" d="M 5.508489 -0.00118017 L 0.81919 1.712872 L 2.362045 0.000323057 L 0.821606 -1.712148 Z M 5.508489 -0.00118017 " transform="matrix(0.876712, 0.475068, 0.475068, -0.876712, 137.9212, 217.678932)"/>
<path fill-rule="nonzero" fill="var(--bg)" fill-opacity="1" d="M 112.285156 210.222656 L 123.609375 210.222656 L 123.609375 203.488281 L 112.285156 203.488281 Z M 112.285156 210.222656 "/>
<g fill="var(--faint)" fill-opacity="1">
<use xlink:href="#tree-based-decision-tree-blog-glyph-1-3" x="113.775094" y="208.649692"/>
<use xlink:href="#tree-based-decision-tree-blog-glyph-1-4" x="117.947707" y="208.649692"/>
</g>
</svg>
