<svg xmlns="http://www.w3.org/2000/svg" viewBox="0 0.5 224.637 54" fill="none">
<mask id="mask0_673_305" style="mask-type:luminance" maskUnits="userSpaceOnUse" x="0" y="0" width="63" height="55">
<path fill-rule="evenodd" clip-rule="evenodd" d="M22.2721 1.17479C20.0408 1.63484 17.8893 2.32809 15.879 3.41812C14.4444 4.19608 13.1386 5.14579 12.0466 6.36817C11.72 6.73362 11.4208 7.1236 11.0994 7.51424C10.4559 7.42329 9.86068 7.53943 9.35981 7.98976C8.86334 8.43584 8.67438 9.01162 8.68643 9.65224C8.58751 9.70586 8.51493 9.74776 8.44028 9.78542C6.72633 10.6481 5.21307 11.7809 3.95776 13.2309C0.954097 16.7003 -0.444444 20.7017 0.124516 25.2992C0.503518 28.3621 1.8871 30.9287 4.18713 32.9891C5.73007 34.3713 7.52382 35.3187 9.4816 35.97C9.63789 36.0219 9.79168 36.0818 9.93035 36.1321C10.2119 37.4728 10.7393 37.914 12.2113 38.0613C12.4419 38.4068 12.6618 38.765 12.9097 39.1025C14.4414 41.1874 16.5004 42.5427 18.9215 43.3648C21.1599 44.125 23.4633 44.3265 25.8113 44.056C27.849 43.8214 29.775 43.238 31.5775 42.2549C31.6278 42.2274 31.6823 42.2077 31.7201 42.1911C32.8031 42.8174 33.4616 42.7652 34.5303 41.9759C34.643 42.0239 34.764 42.0742 34.8839 42.1266C36.5339 42.8475 38.2092 43.5035 39.9512 43.9645C40.3876 44.08 40.6574 44.2495 40.6709 44.718C40.6716 44.7413 40.6652 44.7647 40.6591 44.8103C40.5552 44.9012 40.4355 45.0001 40.3225 45.106C39.4639 45.9096 38.5866 46.6943 37.7547 47.5245C36.9208 48.3567 36.1726 49.2657 35.6013 50.3061C35.3513 50.7615 35.164 51.2396 35.0918 51.7578C34.9775 52.5779 35.2331 53.2531 35.9037 53.7462C36.1136 53.9006 36.3534 54.024 36.5952 54.1239C37.1893 54.3694 37.8183 54.4572 38.4572 54.486C39.6015 54.5377 40.7369 54.4436 41.8613 54.2423C45.2284 53.6395 48.4292 52.554 51.4219 50.8851C53.1601 49.9159 54.7745 48.7773 56.1465 47.3218C57.1785 46.227 58.0127 45.0063 58.4899 43.5645C58.5536 43.3721 58.6106 43.1776 58.6699 42.9869C59.322 42.8133 59.8057 42.4512 60.0843 41.842C60.3688 41.22 60.3031 40.6066 60.0052 39.9989C61.3096 38.316 62.0604 36.4209 62.2571 34.3134C62.4525 32.2186 62.0909 30.2022 61.3487 28.2557C62.3698 27.1482 62.1522 25.8198 61.1324 25.0148C61.1413 24.9465 61.1442 24.8986 61.154 24.8521C61.6946 22.2719 61.4989 19.7447 60.5937 17.2731C59.609 14.5844 57.9897 12.3161 55.9558 10.3266C53.8174 8.23525 51.3674 6.58124 48.7179 5.2172C43.1719 2.36226 37.2642 0.851568 31.0456 0.547718C30.4015 0.516294 29.7587 0.5 29.1162 0.5C26.82 0.5 24.5352 0.708164 22.2721 1.17479ZM12.1709 8.09134C12.3006 7.91784 12.4227 7.74202 12.5572 7.57634C13.6416 6.24156 14.9875 5.23125 16.4925 4.42162C18.3781 3.40707 20.3936 2.76013 22.4831 2.32975C25.153 1.77999 27.8548 1.58862 30.5738 1.69678C36.7376 1.94202 42.595 3.39892 48.0979 6.21462C50.7868 7.59047 53.2534 9.28313 55.3836 11.4368C56.9829 13.0534 58.3234 14.8558 59.2251 16.9611C60.0329 18.847 60.3941 20.8114 60.2644 22.8609C60.2259 23.4706 60.141 24.0751 59.9926 24.6987C59.8228 24.7148 59.6928 24.7271 59.5639 24.7393C56.2568 20.0151 51.9868 16.4729 46.695 14.1986C41.4182 11.9307 35.9205 11.2648 30.2299 12.0824C29.8924 11.5369 29.4413 11.1576 28.8109 11.0511C28.2037 10.9485 27.6418 11.0771 27.1528 11.4666C22.5686 8.85641 17.7208 7.57783 12.4139 8.41473C12.3444 8.32212 12.2665 8.21845 12.1709 8.09134ZM12.808 21.696C11.8156 19.8326 11.0449 17.8881 10.6747 15.8C10.4299 14.4189 10.3742 13.0348 10.6431 11.6491C10.6499 11.6141 10.6639 11.5806 10.6844 11.5142C11.8619 11.4107 12.5339 10.7792 12.7285 9.59355C12.8149 9.57302 12.9146 9.54309 13.0166 9.52596C15.4711 9.11404 17.8948 9.32927 20.2949 9.90987C22.3831 10.4151 24.3512 11.2283 26.2142 12.2967C26.2968 12.3442 26.3774 12.3953 26.4875 12.462C26.4659 12.6069 26.4434 12.7565 26.4177 12.9289C26.2921 12.971 26.1703 13.0143 26.0471 13.0526C23.7201 13.7767 21.527 14.787 19.4834 16.1186C17.2991 17.5417 15.5163 19.3659 14.077 21.5312C13.9259 21.7585 13.7883 21.9206 13.4788 21.8494C13.3087 21.8101 13.1221 21.8423 12.9094 21.8423C12.8872 21.8107 12.8405 21.7572 12.808 21.696ZM10.087 34.9379C7.89601 34.2291 5.92078 33.1563 4.31141 31.4796C2.60179 29.6983 1.57144 27.5742 1.27856 25.1282C0.760066 20.798 2.11588 17.0566 4.99609 13.8429C6.20767 12.4911 7.70946 11.4181 9.12778 10.7677C9.26903 10.8991 9.39921 11.0204 9.52358 11.136C9.46189 11.5902 9.385 12.0271 9.34576 12.4672C9.12562 14.938 9.64736 17.2905 10.5449 19.5691C10.9047 20.4823 11.3612 21.3572 11.7742 22.2494C11.8088 22.3242 11.8472 22.3973 11.8796 22.4626C11.1691 23.6889 11.2006 24.287 12.04 25.3834C10.9359 28.247 10.4141 31.2048 10.8882 34.1945C10.6163 34.4586 10.3941 34.6742 10.172 34.8899C10.1901 34.9117 10.2083 34.9334 10.2265 34.9552C10.1798 34.9498 10.1307 34.9521 10.087 34.9379ZM38.341 32.1016C38.6579 28.6254 38.0328 25.24 36.6021 21.9953C35.1719 18.7519 33.0421 16.035 30.3275 13.7342C30.3725 13.5539 30.4097 13.4047 30.4444 13.2653C40.7314 11.5182 52.2901 16.1281 58.5126 25.3337C57.7977 26.3269 57.8179 27.2977 58.6865 28.2472C57.713 30.1434 56.3669 31.7731 54.9195 33.3417C54.0069 32.9808 53.1877 33.0739 52.465 33.7867C52.3728 33.7601 52.2704 33.7359 52.1716 33.701C50.4633 33.0989 48.7008 32.7702 46.8969 32.64C45.0473 32.5066 43.2032 32.5555 41.3634 32.7823C40.6506 32.8702 39.9382 32.9619 39.263 33.0472C38.9594 32.7359 38.6699 32.439 38.341 32.1016ZM14.9703 25.131C15.5646 24.2266 15.5555 23.3353 14.8741 22.4671C14.9414 22.3591 15.0016 22.2571 15.0669 22.1583C16.7649 19.5936 18.9925 17.6154 21.6944 16.1569C23.1976 15.3453 24.76 14.6786 26.391 14.1718C26.4928 14.1402 26.5958 14.1126 26.6918 14.0849C27.5546 15.1956 28.6692 15.2166 29.5911 14.6927C29.6498 14.7299 29.7251 14.7655 29.7857 14.818C32.7667 17.4035 34.9796 20.5152 36.2281 24.2782C36.9752 26.53 37.3414 28.8405 37.2163 31.2184C37.2038 31.4569 37.174 31.6946 37.1514 31.9422C36.0652 32.2475 35.6617 32.6478 35.3802 33.666C34.9412 33.8181 28.0818 34.8979 26.9849 34.9858C26.6837 34.4558 26.255 34.0549 25.6383 33.8979C25.035 33.7442 24.4757 33.8781 23.9381 34.2108C20.559 31.5661 17.5129 28.6125 14.9703 25.131ZM13.9604 35.7449C13.8599 35.2909 13.6714 34.87 13.3139 34.5447C12.964 34.2265 12.545 34.066 12.0896 34.0151C11.5334 32.3983 12.1334 27.7951 13.1433 25.8829C13.4137 25.856 13.686 25.8289 14.001 25.7975C16.6015 29.3612 19.7469 32.422 23.2381 35.1537C23.2054 35.2684 23.1768 35.3685 23.1427 35.4879C21.1145 35.7183 19.0911 35.9416 17.0509 35.9416C16.0259 35.9415 14.9962 35.8852 13.9604 35.7449ZM58.5579 39.028C58.4774 39.0009 58.3799 38.9353 58.3491 38.8623C57.8241 37.6158 56.9801 36.618 55.9547 35.7588C55.9375 35.7443 55.9289 35.7197 55.9073 35.6857C56.0052 35.1815 55.9852 34.6749 55.7376 34.1799C57.2825 32.5045 58.7136 30.753 59.7624 28.7173H60.2364C61.6146 31.8744 61.5685 36.1694 59.1368 39.1791C58.9465 39.1312 58.7479 39.0923 58.5579 39.028ZM35.0209 40.912C35.0096 40.6855 35.013 40.4926 34.9866 40.3038C34.9619 40.1275 34.9056 39.9556 34.8663 39.7947C35.3301 39.1957 35.826 38.6234 36.2425 37.9982C36.6596 37.3724 36.9973 36.6937 37.3917 35.9997C38.4459 35.94 39.1257 35.3549 39.4069 34.2389C39.9996 34.1474 40.6109 34.0389 41.226 33.9607C42.823 33.7576 44.4276 33.6723 46.0364 33.7435C47.9367 33.8276 49.8039 34.1118 51.609 34.7365C51.7206 34.7752 51.83 34.8207 51.9196 34.8549C51.9789 35.2451 52.0342 35.6084 52.0991 36.0348C49.4928 38.3082 46.5676 40.2584 43.7432 42.3768C43.2435 42.0811 42.7146 41.932 42.1322 42.0629C41.5642 42.1905 41.1393 42.5187 40.8143 43.0077C38.8141 42.4801 36.9028 41.7554 35.0209 40.912ZM27.0913 36.4785C27.0508 36.183 27.2394 36.1592 27.421 36.1329C28.1332 36.0299 28.8468 35.9362 29.5577 35.8256C31.3112 35.5525 33.0637 35.2719 34.8165 34.9943C35.0637 34.9552 35.3107 34.9154 35.5378 34.8791C35.7553 35.1396 35.9535 35.3767 36.1752 35.6422C35.6669 36.8225 34.9578 37.8922 34.0511 38.8606C33.1328 38.4353 32.3153 38.531 31.5612 39.185C30.0178 38.3513 28.5233 37.4469 27.0913 36.4785ZM23.2584 36.6529C23.9849 37.9143 25.2503 38.1792 26.3668 37.477C27.9114 38.4132 29.4482 39.3444 31.0225 40.2986V41.1853C30.9751 41.2147 30.8987 41.2683 30.8168 41.3116C29.1872 42.1751 27.4498 42.6827 25.6201 42.8903C23.5172 43.1289 21.453 42.9469 19.4397 42.2949C17.0037 41.5059 14.9923 40.1262 13.5603 37.9669C13.4873 37.8571 13.4208 37.743 13.3545 37.6291C13.337 37.5993 13.3311 37.5628 13.3222 37.5359C13.478 37.3306 13.6292 37.1314 13.8018 36.904C14.8782 37.0501 15.9545 37.1091 17.0305 37.1091C19.1111 37.109 21.1896 36.8887 23.2584 36.6529ZM54.9967 36.8528C55.0689 36.811 55.1386 36.7648 55.2293 36.7084C56.029 37.2777 56.8625 38.3368 57.2362 39.2595C56.389 39.8607 56.0717 40.6739 56.3639 41.7141C56.1608 41.8377 55.9715 41.9617 55.7744 42.0714C54.2059 42.944 52.5216 43.4699 50.7537 43.7468C48.7962 44.0535 46.8354 44.0298 44.8727 43.8082C44.7784 43.7976 44.6856 43.7737 44.5658 43.7512C44.5303 43.6176 44.4941 43.4823 44.4499 43.3172C44.5603 43.2311 44.6693 43.1418 44.7827 43.0584C46.5322 41.7734 48.292 40.5019 50.0282 39.1992C50.939 38.5158 51.8123 37.7819 52.6943 37.0609C52.8604 36.9252 52.9876 36.8886 53.2008 36.9779C53.4616 37.0872 53.7216 37.1411 53.9789 37.1411C54.3245 37.1411 54.6653 37.0439 54.9967 36.8528ZM55.6159 43.466C56.1117 43.2269 56.5872 42.9455 57.1041 42.6664C57.2211 42.734 57.3339 42.7991 57.4774 42.882C57.4354 43.0202 57.3994 43.156 57.3533 43.2882C56.9267 44.5114 56.2096 45.5522 55.3318 46.49C54.0898 47.817 52.6294 48.8613 51.0568 49.7539C48.0006 51.489 44.7255 52.6051 41.2606 53.1668C40.3115 53.3207 39.3523 53.3912 38.3913 53.3166C37.9996 53.2862 37.6119 53.1937 37.2251 53.1158C37.0983 53.0903 36.9757 53.0302 36.8587 52.9713C36.333 52.7064 36.1322 52.336 36.2856 51.7633C36.3897 51.3749 36.554 50.993 36.7497 50.6404C37.1831 49.8595 37.7711 49.1901 38.3788 48.5412C39.2902 47.5675 40.2774 46.6736 41.2927 45.8102C41.3378 45.7718 41.3889 45.7405 41.4337 45.7085C42.6015 46.3519 43.7509 45.9716 44.3735 44.9273C44.9007 44.9764 45.4346 45.0386 45.9703 45.0737C46.5601 45.1122 47.1467 45.1331 47.7302 45.133C50.4513 45.133 53.0983 44.6802 55.6159 43.466Z" fill="white"/>
</mask>
<g mask="url(#mask0_673_305)">
<path fill-rule="evenodd" clip-rule="evenodd" d="M22.2721 1.17479C20.0408 1.63484 17.8893 2.32809 15.879 3.41812C14.4444 4.19608 13.1386 5.14579 12.0466 6.36817C11.72 6.73362 11.4208 7.1236 11.0994 7.51424C10.4559 7.42329 9.86068 7.53943 9.35981 7.98976C8.86334 8.43584 8.67438 9.01162 8.68643 9.65224C8.58751 9.70586 8.51493 9.74776 8.44028 9.78542C6.72633 10.6481 5.21307 11.7809 3.95776 13.2309C0.954097 16.7003 -0.444444 20.7017 0.124516 25.2992C0.503518 28.3621 1.8871 30.9287 4.18713 32.9891C5.73007 34.3713 7.52382 35.3187 9.4816 35.97C9.63789 36.0219 9.79168 36.0818 9.93035 36.1321C10.2119 37.4728 10.7393 37.914 12.2113 38.0613C12.4419 38.4068 12.6618 38.765 12.9097 39.1025C14.4414 41.1874 16.5004 42.5427 18.9215 43.3648C21.1599 44.125 23.4633 44.3265 25.8113 44.056C27.849 43.8214 29.775 43.238 31.5775 42.2549C31.6278 42.2274 31.6823 42.2077 31.7201 42.1911C32.8031 42.8174 33.4616 42.7652 34.5303 41.9759C34.643 42.0239 34.764 42.0742 34.8839 42.1266C36.5339 42.8475 38.2092 43.5035 39.9512 43.9645C40.3876 44.08 40.6574 44.2495 40.6709 44.718C40.6716 44.7413 40.6652 44.7647 40.6591 44.8103C40.5552 44.9012 40.4355 45.0001 40.3225 45.106C39.4639 45.9096 38.5866 46.6943 37.7547 47.5245C36.9208 48.3567 36.1726 49.2657 35.6013 50.3061C35.3513 50.7615 35.164 51.2396 35.0918 51.7578C34.9775 52.5779 35.2331 53.2531 35.9037 53.7462C36.1136 53.9006 36.3534 54.024 36.5952 54.1239C37.1893 54.3694 37.8183 54.4572 38.4572 54.486C39.6015 54.5377 40.7369 54.4436 41.8613 54.2423C45.2284 53.6395 48.4292 52.554 51.4219 50.8851C53.1601 49.9159 54.7745 48.7773 56.1465 47.3218C57.1785 46.227 58.0127 45.0063 58.4899 43.5645C58.5536 43.3721 58.6106 43.1776 58.6699 42.9869C59.322 42.8133 59.8057 42.4512 60.0843 41.842C60.3688 41.22 60.3031 40.6066 60.0052 39.9989C61.3096 38.316 62.0604 36.4209 62.2571 34.3134C62.4525 32.2186 62.0909 30.2022 61.3487 28.2557C62.3698 27.1482 62.1522 25.8198 61.1324 25.0148C61.1413 24.9465 61.1442 24.8986 61.154 24.8521C61.6946 22.2719 61.4989 19.7447 60.5937 17.2731C59.609 14.5844 57.9897 12.3161 55.9558 10.3266C53.8174 8.23525 51.3674 6.58124 48.7179 5.2172C43.1719 2.36226 37.2642 0.851568 31.0456 0.547718C30.4015 0.516294 29.7587 0.5 29.1162 0.5C26.82 0.5 24.5352 0.708164 22.2721 1.17479ZM12.1709 8.09134C12.3006 7.91784 12.4227 7.74202 12.5572 7.57634C13.6416 6.24156 14.9875 5.23125 16.4925 4.42162C18.3781 3.40707 20.3936 2.76013 22.4831 2.32975C25.153 1.77999 27.8548 1.58862 30.5738 1.69678C36.7376 1.94202 42.595 3.39892 48.0979 6.21462C50.7868 7.59047 53.2534 9.28313 55.3836 11.4368C56.9829 13.0534 58.3234 14.8558 59.2251 16.9611C60.0329 18.847 60.3941 20.8114 60.2644 22.8609C60.2259 23.4706 60.141 24.0751 59.9926 24.6987C59.8228 24.7148 59.6928 24.7271 59.5639 24.7393C56.2568 20.0151 51.9868 16.4729 46.695 14.1986C41.4182 11.9307 35.9205 11.2648 30.2299 12.0824C29.8924 11.5369 29.4413 11.1576 28.8109 11.0511C28.2037 10.9485 27.6418 11.0771 27.1528 11.4666C22.5686 8.85641 17.7208 7.57783 12.4139 8.41473C12.3444 8.32212 12.2665 8.21845 12.1709 8.09134ZM12.808 21.696C11.8156 19.8326 11.0449 17.8881 10.6747 15.8C10.4299 14.4189 10.3742 13.0348 10.6431 11.6491C10.6499 11.6141 10.6639 11.5806 10.6844 11.5142C11.8619 11.4107 12.5339 10.7792 12.7285 9.59355C12.8149 9.57302 12.9146 9.54309 13.0166 9.52596C15.4711 9.11404 17.8948 9.32927 20.2949 9.90987C22.3831 10.4151 24.3512 11.2283 26.2142 12.2967C26.2968 12.3442 26.3774 12.3953 26.4875 12.462C26.4659 12.6069 26.4434 12.7565 26.4177 12.9289C26.2921 12.971 26.1703 13.0143 26.0471 13.0526C23.7201 13.7767 21.527 14.787 19.4834 16.1186C17.2991 17.5417 15.5163 19.3659 14.077 21.5312C13.9259 21.7585 13.7883 21.9206 13.4788 21.8494C13.3087 21.8101 13.1221 21.8423 12.9094 21.8423C12.8872 21.8107 12.8405 21.7572 12.808 21.696ZM10.087 34.9379C7.89601 34.2291 5.92078 33.1563 4.31141 31.4796C2.60179 29.6983 1.57144 27.5742 1.27856 25.1282C0.760066 20.798 2.11588 17.0566 4.99609 13.8429C6.20767 12.4911 7.70946 11.4181 9.12778 10.7677C9.26903 10.8991 9.39921 11.0204 9.52358 11.136C9.46189 11.5902 9.385 12.0271 9.34576 12.4672C9.12562 14.938 9.64736 17.2905 10.5449 19.5691C10.9047 20.4823 11.3612 21.3572 11.7742 22.2494C11.8088 22.3242 11.8472 22.3973 11.8796 22.4626C11.1691 23.6889 11.2006 24.287 12.04 25.3834C10.9359 28.247 10.4141 31.2048 10.8882 34.1945C10.6163 34.4586 10.3941 34.6742 10.172 34.8899C10.1901 34.9117 10.2083 34.9334 10.2265 34.9552C10.1798 34.9498 10.1307 34.9521 10.087 34.9379ZM38.341 32.1016C38.6579 28.6254 38.0328 25.24 36.6021 21.9953C35.1719 18.7519 33.0421 16.035 30.3275 13.7342C30.3725 13.5539 30.4097 13.4047 30.4444 13.2653C40.7314 11.5182 52.2901 16.1281 58.5126 25.3337C57.7977 26.3269 57.8179 27.2977 58.6865 28.2472C57.713 30.1434 56.3669 31.7731 54.9195 33.3417C54.0069 32.9808 53.1877 33.0739 52.465 33.7867C52.3728 33.7601 52.2704 33.7359 52.1716 33.701C50.4633 33.0989 48.7008 32.7702 46.8969 32.64C45.0473 32.5066 43.2032 32.5555 41.3634 32.7823C40.6506 32.8702 39.9382 32.9619 39.263 33.0472C38.9594 32.7359 38.6699 32.439 38.341 32.1016ZM14.9703 25.131C15.5646 24.2266 15.5555 23.3353 14.8741 22.4671C14.9414 22.3591 15.0016 22.2571 15.0669 22.1583C16.7649 19.5936 18.9925 17.6154 21.6944 16.1569C23.1976 15.3453 24.76 14.6786 26.391 14.1718C26.4928 14.1402 26.5958 14.1126 26.6918 14.0849C27.5546 15.1956 28.6692 15.2166 29.5911 14.6927C29.6498 14.7299 29.7251 14.7655 29.7857 14.818C32.7667 17.4035 34.9796 20.5152 36.2281 24.2782C36.9752 26.53 37.3414 28.8405 37.2163 31.2184C37.2038 31.4569 37.174 31.6946 37.1514 31.9422C36.0652 32.2475 35.6617 32.6478 35.3802 33.666C34.9412 33.8181 28.0818 34.8979 26.9849 34.9858C26.6837 34.4558 26.255 34.0549 25.6383 33.8979C25.035 33.7442 24.4757 33.8781 23.9381 34.2108C20.559 31.5661 17.5129 28.6125 14.9703 25.131ZM13.9604 35.7449C13.8599 35.2909 13.6714 34.87 13.3139 34.5447C12.964 34.2265 12.545 34.066 12.0896 34.0151C11.5334 32.3983 12.1334 27.7951 13.1433 25.8829C13.4137 25.856 13.686 25.8289 14.001 25.7975C16.6015 29.3612 19.7469 32.422 23.2381 35.1537C23.2054 35.2684 23.1768 35.3685 23.1427 35.4879C21.1145 35.7183 19.0911 35.9416 17.0509 35.9416C16.0259 35.9415 14.9962 35.8852 13.9604 35.7449ZM58.5579 39.028C58.4774 39.0009 58.3799 38.9353 58.3491 38.8623C57.8241 37.6158 56.9801 36.618 55.9547 35.7588C55.9375 35.7443 55.9289 35.7197 55.9073 35.6857C56.0052 35.1815 55.9852 34.6749 55.7376 34.1799C57.2825 32.5045 58.7136 30.753 59.7624 28.7173H60.2364C61.6146 31.8744 61.5685 36.1694 59.1368 39.1791C58.9465 39.1312 58.7479 39.0923 58.5579 39.028ZM35.0209 40.912C35.0096 40.6855 35.013 40.4926 34.9866 40.3038C34.9619 40.1275 34.9056 39.9556 34.8663 39.7947C35.3301 39.1957 35.826 38.6234 36.2425 37.9982C36.6596 37.3724 36.9973 36.6937 37.3917 35.9997C38.4459 35.94 39.1257 35.3549 39.4069 34.2389C39.9996 34.1474 40.6109 34.0389 41.226 33.9607C42.823 33.7576 44.4276 33.6723 46.0364 33.7435C47.9367 33.8276 49.8039 34.1118 51.609 34.7365C51.7206 34.7752 51.83 34.8207 51.9196 34.8549C51.9789 35.2451 52.0342 35.6084 52.0991 36.0348C49.4928 38.3082 46.5676 40.2584 43.7432 42.3768C43.2435 42.0811 42.7146 41.932 42.1322 42.0629C41.5642 42.1905 41.1393 42.5187 40.8143 43.0077C38.8141 42.4801 36.9028 41.7554 35.0209 40.912ZM27.0913 36.4785C27.0508 36.183 27.2394 36.1592 27.421 36.1329C28.1332 36.0299 28.8468 35.9362 29.5577 35.8256C31.3112 35.5525 33.0637 35.2719 34.8165 34.9943C35.0637 34.9552 35.3107 34.9154 35.5378 34.8791C35.7553 35.1396 35.9535 35.3767 36.1752 35.6422C35.6669 36.8225 34.9578 37.8922 34.0511 38.8606C33.1328 38.4353 32.3153 38.531 31.5612 39.185C30.0178 38.3513 28.5233 37.4469 27.0913 36.4785ZM23.2584 36.6529C23.9849 37.9143 25.2503 38.1792 26.3668 37.477C27.9114 38.4132 29.4482 39.3444 31.0225 40.2986V41.1853C30.9751 41.2147 30.8987 41.2683 30.8168 41.3116C29.1872 42.1751 27.4498 42.6827 25.6201 42.8903C23.5172 43.1289 21.453 42.9469 19.4397 42.2949C17.0037 41.5059 14.9923 40.1262 13.5603 37.9669C13.4873 37.8571 13.4208 37.743 13.3545 37.6291C13.337 37.5993 13.3311 37.5628 13.3222 37.5359C13.478 37.3306 13.6292 37.1314 13.8018 36.904C14.8782 37.0501 15.9545 37.1091 17.0305 37.1091C19.1111 37.109 21.1896 36.8887 23.2584 36.6529ZM54.9967 36.8528C55.0689 36.811 55.1386 36.7648 55.2293 36.7084C56.029 37.2777 56.8625 38.3368 57.2362 39.2595C56.389 39.8607 56.0717 40.6739 56.3639 41.7141C56.1608 41.8377 55.9715 41.9617 55.7744 42.0714C54.2059 42.944 52.5216 43.4699 50.7537 43.7468C48.7962 44.0535 46.8354 44.0298 44.8727 43.8082C44.7784 43.7976 44.6856 43.7737 44.5658 43.7512C44.5303 43.6176 44.4941 43.4823 44.4499 43.3172C44.5603 43.2311 44.6693 43.1418 44.7827 43.0584C46.5322 41.7734 48.292 40.5019 50.0282 39.1992C50.939 38.5158 51.8123 37.7819 52.6943 37.0609C52.8604 36.9252 52.9876 36.8886 53.2008 36.9779C53.4616 37.0872 53.7216 37.1411 53.9789 37.1411C54.3245 37.1411 54.6653 37.0439 54.9967 36.8528ZM55.6159 43.466C56.1117 43.2269 56.5872 42.9455 57.1041 42.6664C57.2211 42.734 57.3339 42.7991 57.4774 42.882C57.4354 43.0202 57.3994 43.156 57.3533 43.2882C56.9267 44.5114 56.2096 45.5522 55.3318 46.49C54.0898 47.817 52.6294 48.8613 51.0568 49.7539C48.0006 51.489 44.7255 52.6051 41.2606 53.1668C40.3115 53.3207 39.3523 53.3912 38.3913 53.3166C37.9996 53.2862 37.6119 53.1937 37.2251 53.1158C37.0983 53.0903 36.9757 53.0302 36.8587 52.9713C36.333 52.7064 36.1322 52.336 36.2856 51.7633C36.3897 51.3749 36.554 50.993 36.7497 50.6404C37.1831 49.8595 37.7711 49.1901 38.3788 48.5412C39.2902 47.5675 40.2774 46.6736 41.2927 45.8102C41.3378 45.7718 41.3889 45.7405 41.4337 45.7085C42.6015 46.3519 43.7509 45.9716 44.3735 44.9273C44.9007 44.9764 45.4346 45.0386 45.9703 45.0737C46.5601 45.1122 47.1467 45.1331 47.7302 45.133C50.4513 45.133 53.0983 44.6802 55.6159 43.466Z" fill="currentColor"/>
</g>
<path fill-rule="evenodd" clip-rule="evenodd" d="M219.008 31.181V22.2283H217.127V32.8867H224.637V31.181H219.008ZM206.705 28.6537L208.541 24.3904L210.392 28.6537H206.705ZM207.7 22.1517L202.988 32.8867H204.916L206.017 30.313H211.081L212.166 32.8867H214.155L209.443 22.1517H207.7ZM196.513 31.3488C194.464 31.3488 192.98 29.6435 192.98 27.5423C192.98 25.4411 194.464 23.7658 196.513 23.7658C197.737 23.7658 198.655 24.2991 199.511 25.0907L200.72 23.7052C199.695 22.7305 198.502 22.0458 196.528 22.0458C193.286 22.0458 191.007 24.5274 191.007 27.5726C191.007 30.6481 193.332 33.0691 196.452 33.0691C198.456 33.0691 199.68 32.3382 200.796 31.181L199.588 29.9626C198.67 30.8158 197.829 31.3488 196.513 31.3488ZM185.602 32.8867H187.484V22.2282H185.602V32.8867ZM176.389 31.181H174.278V23.9339H176.389C178.638 23.9339 180.106 25.4714 180.106 27.5726C180.106 29.6738 178.638 31.181 176.389 31.181ZM176.389 22.2283H172.397V32.8867H176.389C179.754 32.8867 182.079 30.5569 182.079 27.5423C182.079 24.5274 179.754 22.2283 176.389 22.2283ZM162.893 28.349H168.262V26.674H162.893V23.9032H168.95V22.2283H161.011V32.8867H169.027V31.2113H162.893V28.349ZM151.859 27.2679L148.601 22.2283H146.598V32.8867H148.448V25.273L151.798 30.2672H151.859L155.24 25.2428V32.8867H157.121V22.2283H155.117L151.859 27.2679Z" fill="currentColor"/>
<path fill-rule="evenodd" clip-rule="evenodd" d="M76.2785 26.7202C74.2288 26.233 73.7394 25.8674 73.7394 25.0301C73.7394 24.3147 74.3817 23.7515 75.483 23.7515C76.4617 23.7515 77.4257 24.1319 78.3889 24.8473L79.3989 23.4312C78.3128 22.5636 77.074 22.0916 75.5137 22.0916C73.3877 22.0916 71.8579 23.3404 71.8579 25.1975C71.8579 27.1771 73.1428 27.8471 75.4221 28.3951C77.4101 28.8521 77.8386 29.2631 77.8386 30.0394C77.8386 30.862 77.1044 31.3946 75.9415 31.3946C74.611 31.3946 73.5866 30.8923 72.5618 30.0092L71.4297 31.3488C72.7143 32.4908 74.2593 33.054 75.8963 33.054C78.1444 33.054 79.7203 31.8666 79.7203 29.8566C79.7203 28.0758 78.5421 27.2683 76.2785 26.7202ZM131.308 31.2268V28.3645H136.677V26.6895H131.308V23.9188H137.365V22.2438H129.427V32.9023H137.442V31.2268H131.308ZM120.703 22.2438H118.822V32.9023H126.332V31.1966H120.703V22.2438ZM107.008 23.9793H110.404V32.9023H112.3V23.9793H115.696V22.2438H107.008V23.9793ZM100.762 31.242H97.6418V28.3187H100.625C102.108 28.3187 102.827 28.8521 102.827 29.7654C102.827 30.7402 102.047 31.242 100.762 31.242ZM97.6418 23.9032H100.349C101.557 23.9032 102.23 24.4059 102.23 25.2739C102.23 26.2637 101.42 26.7357 100.212 26.7357H97.6418V23.9032ZM102.582 27.3596C103.378 26.9484 104.112 26.2788 104.112 24.9692C104.112 23.2942 102.751 22.2438 100.594 22.2438H95.7907V32.9023H100.747C103.133 32.9023 104.709 31.8817 104.709 29.9634C104.709 28.502 103.837 27.7861 102.582 27.3596ZM90.1874 28.38C90.1874 30.3442 89.1626 31.3488 87.4956 31.3488C85.8133 31.3488 84.7881 30.2828 84.7881 28.3035V22.2438H82.907V28.38C82.907 31.4706 84.6813 33.0691 87.4647 33.0691C90.2642 33.0691 92.0685 31.4706 92.0685 28.2888V22.2438H90.1874V28.38Z" fill="currentColor"/>

</svg>