<svg class="tfig" style="--w:921px" xmlns="http://www.w3.org/2000/svg" xmlns:xlink="http://www.w3.org/1999/xlink" viewBox="0 0 460.6 238.3"><style>:root.tfig{--bg:#dfe8f1;--ink:#101c26;--soft:#475666;--faint:#788999;--line2:rgba(16,28,38,.24);--fa:#1f6b9e;--fb:#9a6418;--fc:#3d7a50;--fd:#a6454d;--fe:#6a58a6}@media (prefers-color-scheme:dark){:root.tfig{--bg:#08131d;--ink:#dce8f2;--soft:#8ba2b6;--faint:#54687d;--line2:rgba(220,232,242,.22);--fa:#5fa9e0;--fb:#d9a45f;--fc:#7fbf91;--fd:#e08a90;--fe:#ae9de0}}</style>
<defs>
<g>
<g id="lstm-multilayer-glyph-0-0">
<path d="M 0.953125 0 L 0.953125 -5.546875 L 1.625 -5.546875 L 1.625 -0.578125 L 4.25 -0.578125 L 4.25 0 Z M 0.953125 0 "/>
</g>
<g id="lstm-multilayer-glyph-0-1">
<path d="M 3.828125 0 L 3.359375 -1.578125 L 1.40625 -1.578125 L 0.9375 0 L 0.25 0 L 1.953125 -5.546875 L 2.828125 -5.546875 L 4.53125 0 Z M 2.421875 -4.84375 L 2.34375 -4.84375 L 1.5625 -2.15625 L 3.203125 -2.15625 Z M 2.421875 -4.84375 "/>
</g>
<g id="lstm-multilayer-glyph-0-2">
<path d="M 2.046875 0 L 2.046875 -2.171875 L 0.140625 -5.546875 L 0.90625 -5.546875 L 1.6875 -4.109375 L 2.375 -2.84375 L 2.40625 -2.84375 L 3.09375 -4.109375 L 3.890625 -5.546875 L 4.640625 -5.546875 L 2.71875 -2.171875 L 2.71875 0 Z M 2.046875 0 "/>
</g>
<g id="lstm-multilayer-glyph-0-3">
<path d="M 0.71875 0 L 0.71875 -5.546875 L 4.140625 -5.546875 L 4.140625 -4.96875 L 1.390625 -4.96875 L 1.390625 -3.109375 L 4.046875 -3.109375 L 4.046875 -2.515625 L 1.390625 -2.515625 L 1.390625 -0.578125 L 4.140625 -0.578125 L 4.140625 0 Z M 0.71875 0 "/>
</g>
<g id="lstm-multilayer-glyph-0-4">
<path d="M 1.390625 0 L 0.71875 0 L 0.71875 -5.546875 L 2.734375 -5.546875 C 3.242188 -5.546875 3.632812 -5.40625 3.90625 -5.125 C 4.175781 -4.84375 4.3125 -4.453125 4.3125 -3.953125 C 4.3125 -3.503906 4.195312 -3.144531 3.96875 -2.875 C 3.738281 -2.601562 3.398438 -2.445312 2.953125 -2.40625 L 4.359375 0 L 3.625 0 L 2.265625 -2.375 L 1.390625 -2.375 Z M 2.71875 -2.9375 C 3 -2.9375 3.21875 -3.003906 3.375 -3.140625 C 3.53125 -3.285156 3.609375 -3.488281 3.609375 -3.75 L 3.609375 -4.15625 C 3.609375 -4.414062 3.53125 -4.613281 3.375 -4.75 C 3.21875 -4.894531 3 -4.96875 2.71875 -4.96875 L 1.390625 -4.96875 L 1.390625 -2.9375 Z M 2.71875 -2.9375 "/>
</g>
<g id="lstm-multilayer-glyph-0-5">
<path d="M 0.671875 0 L 0.671875 -0.578125 L 2.265625 -0.578125 L 2.265625 -5.0625 L 2.21875 -5.0625 L 0.8125 -3.75 L 0.421875 -4.171875 L 1.890625 -5.546875 L 2.9375 -5.546875 L 2.9375 -0.578125 L 4.390625 -0.578125 L 4.390625 0 Z M 0.671875 0 "/>
</g>
<g id="lstm-multilayer-glyph-0-6">
<path d="M 4.265625 0 L 0.5625 0 L 0.5625 -0.6875 L 2.421875 -2.359375 C 2.691406 -2.597656 2.910156 -2.84375 3.078125 -3.09375 C 3.253906 -3.351562 3.34375 -3.628906 3.34375 -3.921875 L 3.34375 -4.015625 C 3.34375 -4.347656 3.253906 -4.601562 3.078125 -4.78125 C 2.910156 -4.96875 2.65625 -5.0625 2.3125 -5.0625 C 1.96875 -5.0625 1.703125 -4.972656 1.515625 -4.796875 C 1.335938 -4.628906 1.203125 -4.40625 1.109375 -4.125 L 0.515625 -4.34375 C 0.566406 -4.507812 0.640625 -4.671875 0.734375 -4.828125 C 0.828125 -4.984375 0.941406 -5.117188 1.078125 -5.234375 C 1.222656 -5.359375 1.398438 -5.457031 1.609375 -5.53125 C 1.816406 -5.601562 2.054688 -5.640625 2.328125 -5.640625 C 2.597656 -5.640625 2.835938 -5.597656 3.046875 -5.515625 C 3.265625 -5.441406 3.445312 -5.332031 3.59375 -5.1875 C 3.738281 -5.050781 3.847656 -4.882812 3.921875 -4.6875 C 4.003906 -4.488281 4.046875 -4.273438 4.046875 -4.046875 C 4.046875 -3.828125 4.015625 -3.625 3.953125 -3.4375 C 3.890625 -3.257812 3.804688 -3.082031 3.703125 -2.90625 C 3.597656 -2.738281 3.46875 -2.570312 3.3125 -2.40625 C 3.15625 -2.25 2.988281 -2.09375 2.8125 -1.9375 L 1.25 -0.578125 L 4.265625 -0.578125 Z M 4.265625 0 "/>
</g>
<g id="lstm-multilayer-glyph-0-7">
<path d="M 2.578125 0 C 2.265625 0 2.035156 -0.0859375 1.890625 -0.265625 C 1.742188 -0.441406 1.671875 -0.664062 1.671875 -0.9375 L 1.671875 -3.5625 L 0.3125 -3.5625 L 0.3125 -4.109375 L 1.328125 -4.109375 C 1.460938 -4.109375 1.554688 -4.132812 1.609375 -4.1875 C 1.671875 -4.238281 1.703125 -4.335938 1.703125 -4.484375 L 1.703125 -5.546875 L 2.3125 -5.546875 L 2.3125 -4.109375 L 4.1875 -4.109375 L 4.1875 -3.5625 L 2.3125 -3.5625 L 2.3125 -0.546875 L 4.1875 -0.546875 L 4.1875 0 Z M 2.578125 0 "/>
</g>
<g id="lstm-multilayer-glyph-0-8">
<path d="M 0.78125 -5.890625 L 1.421875 -5.890625 L 1.421875 -3.4375 L 1.453125 -3.4375 C 1.492188 -3.539062 1.546875 -3.632812 1.609375 -3.71875 C 1.671875 -3.8125 1.75 -3.894531 1.84375 -3.96875 C 1.9375 -4.039062 2.046875 -4.097656 2.171875 -4.140625 C 2.296875 -4.179688 2.441406 -4.203125 2.609375 -4.203125 C 3.046875 -4.203125 3.394531 -4.0625 3.65625 -3.78125 C 3.914062 -3.507812 4.046875 -3.125 4.046875 -2.625 L 4.046875 0 L 3.40625 0 L 3.40625 -2.515625 C 3.40625 -2.890625 3.320312 -3.171875 3.15625 -3.359375 C 2.988281 -3.546875 2.75 -3.640625 2.4375 -3.640625 C 2.3125 -3.640625 2.1875 -3.625 2.0625 -3.59375 C 1.9375 -3.5625 1.828125 -3.507812 1.734375 -3.4375 C 1.640625 -3.375 1.5625 -3.289062 1.5 -3.1875 C 1.445312 -3.09375 1.421875 -2.976562 1.421875 -2.84375 L 1.421875 0 L 0.78125 0 Z M 0.78125 -5.890625 "/>
</g>
<g id="lstm-multilayer-glyph-0-9">
<path d="M 2.453125 0.09375 C 2.160156 0.09375 1.894531 0.0429688 1.65625 -0.046875 C 1.414062 -0.148438 1.210938 -0.296875 1.046875 -0.484375 C 0.878906 -0.671875 0.75 -0.894531 0.65625 -1.15625 C 0.570312 -1.425781 0.53125 -1.722656 0.53125 -2.046875 C 0.53125 -2.367188 0.578125 -2.660156 0.671875 -2.921875 C 0.765625 -3.191406 0.890625 -3.421875 1.046875 -3.609375 C 1.210938 -3.796875 1.410156 -3.941406 1.640625 -4.046875 C 1.878906 -4.148438 2.140625 -4.203125 2.421875 -4.203125 C 2.691406 -4.203125 2.9375 -4.148438 3.15625 -4.046875 C 3.382812 -3.941406 3.578125 -3.800781 3.734375 -3.625 C 3.898438 -3.445312 4.023438 -3.234375 4.109375 -2.984375 C 4.191406 -2.742188 4.234375 -2.476562 4.234375 -2.1875 L 4.234375 -1.890625 L 1.203125 -1.890625 L 1.203125 -1.703125 C 1.203125 -1.523438 1.226562 -1.359375 1.28125 -1.203125 C 1.34375 -1.046875 1.425781 -0.910156 1.53125 -0.796875 C 1.644531 -0.691406 1.78125 -0.609375 1.9375 -0.546875 C 2.09375 -0.484375 2.265625 -0.453125 2.453125 -0.453125 C 2.734375 -0.453125 2.972656 -0.515625 3.171875 -0.640625 C 3.367188 -0.765625 3.523438 -0.941406 3.640625 -1.171875 L 4.109375 -0.84375 C 3.984375 -0.570312 3.773438 -0.347656 3.484375 -0.171875 C 3.203125 0.00390625 2.859375 0.09375 2.453125 0.09375 Z M 2.421875 -3.671875 C 2.242188 -3.671875 2.078125 -3.640625 1.921875 -3.578125 C 1.773438 -3.515625 1.648438 -3.425781 1.546875 -3.3125 C 1.441406 -3.207031 1.359375 -3.078125 1.296875 -2.921875 C 1.234375 -2.773438 1.203125 -2.609375 1.203125 -2.421875 L 1.203125 -2.375 L 3.5625 -2.375 L 3.5625 -2.453125 C 3.5625 -2.640625 3.53125 -2.804688 3.46875 -2.953125 C 3.414062 -3.097656 3.335938 -3.222656 3.234375 -3.328125 C 3.140625 -3.441406 3.019531 -3.523438 2.875 -3.578125 C 2.738281 -3.640625 2.585938 -3.671875 2.421875 -3.671875 Z M 2.421875 -3.671875 "/>
</g>
<g id="lstm-multilayer-glyph-0-10">
<path d="M 2.4375 0.09375 C 2.007812 0.09375 1.640625 0.0195312 1.328125 -0.125 C 1.015625 -0.269531 0.75 -0.460938 0.53125 -0.703125 L 0.96875 -1.078125 C 1.15625 -0.867188 1.363281 -0.707031 1.59375 -0.59375 C 1.832031 -0.488281 2.117188 -0.4375 2.453125 -0.4375 C 2.765625 -0.4375 3.023438 -0.492188 3.234375 -0.609375 C 3.441406 -0.722656 3.546875 -0.898438 3.546875 -1.140625 C 3.546875 -1.242188 3.523438 -1.332031 3.484375 -1.40625 C 3.441406 -1.476562 3.382812 -1.535156 3.3125 -1.578125 C 3.25 -1.617188 3.171875 -1.648438 3.078125 -1.671875 C 2.992188 -1.703125 2.90625 -1.722656 2.8125 -1.734375 L 2.171875 -1.84375 C 2.023438 -1.863281 1.867188 -1.890625 1.703125 -1.921875 C 1.535156 -1.960938 1.382812 -2.023438 1.25 -2.109375 C 1.113281 -2.191406 1 -2.300781 0.90625 -2.4375 C 0.8125 -2.570312 0.765625 -2.75 0.765625 -2.96875 C 0.765625 -3.175781 0.804688 -3.351562 0.890625 -3.5 C 0.972656 -3.65625 1.085938 -3.785156 1.234375 -3.890625 C 1.378906 -3.992188 1.550781 -4.070312 1.75 -4.125 C 1.957031 -4.175781 2.179688 -4.203125 2.421875 -4.203125 C 2.785156 -4.203125 3.101562 -4.140625 3.375 -4.015625 C 3.65625 -3.898438 3.894531 -3.742188 4.09375 -3.546875 L 3.671875 -3.15625 C 3.628906 -3.207031 3.570312 -3.265625 3.5 -3.328125 C 3.425781 -3.390625 3.335938 -3.445312 3.234375 -3.5 C 3.128906 -3.550781 3.007812 -3.59375 2.875 -3.625 C 2.738281 -3.65625 2.578125 -3.671875 2.390625 -3.671875 C 2.066406 -3.671875 1.816406 -3.613281 1.640625 -3.5 C 1.472656 -3.382812 1.390625 -3.222656 1.390625 -3.015625 C 1.390625 -2.910156 1.410156 -2.820312 1.453125 -2.75 C 1.492188 -2.675781 1.546875 -2.617188 1.609375 -2.578125 C 1.679688 -2.535156 1.757812 -2.5 1.84375 -2.46875 C 1.9375 -2.445312 2.023438 -2.429688 2.109375 -2.421875 L 2.765625 -2.328125 C 2.910156 -2.304688 3.0625 -2.273438 3.21875 -2.234375 C 3.382812 -2.191406 3.535156 -2.128906 3.671875 -2.046875 C 3.816406 -1.972656 3.9375 -1.863281 4.03125 -1.71875 C 4.125 -1.582031 4.171875 -1.40625 4.171875 -1.1875 C 4.171875 -0.78125 4.007812 -0.460938 3.6875 -0.234375 C 3.375 -0.015625 2.957031 0.09375 2.4375 0.09375 Z M 2.4375 0.09375 "/>
</g>
<g id="lstm-multilayer-glyph-0-11">
<path d="M 0.828125 -5.890625 L 1.46875 -5.890625 L 1.46875 -2.171875 L 1.5 -2.171875 L 2.21875 -2.84375 L 3.59375 -4.109375 L 4.359375 -4.109375 L 2.671875 -2.5 L 4.5625 0 L 3.78125 0 L 2.171875 -2.125 L 1.46875 -1.484375 L 1.46875 0 L 0.828125 0 Z M 0.828125 -5.890625 "/>
</g>
<g id="lstm-multilayer-glyph-0-12">
<path d="M 3.71875 -4.109375 L 4.34375 -4.109375 L 2.3125 0.90625 C 2.269531 1.019531 2.21875 1.117188 2.15625 1.203125 C 2.09375 1.296875 2.019531 1.367188 1.9375 1.421875 C 1.863281 1.472656 1.769531 1.515625 1.65625 1.546875 C 1.550781 1.578125 1.421875 1.59375 1.265625 1.59375 L 0.65625 1.59375 L 0.65625 1.046875 L 1.609375 1.046875 L 2.078125 -0.078125 L 0.421875 -4.109375 L 1.078125 -4.109375 L 1.765625 -2.390625 L 2.375 -0.828125 L 2.40625 -0.828125 L 3.015625 -2.390625 Z M 3.71875 -4.109375 "/>
</g>
<g id="lstm-multilayer-glyph-0-13">
<path d="M 2.640625 -5.015625 C 2.453125 -5.015625 2.320312 -5.050781 2.25 -5.125 C 2.175781 -5.195312 2.140625 -5.296875 2.140625 -5.421875 L 2.140625 -5.546875 C 2.140625 -5.660156 2.175781 -5.753906 2.25 -5.828125 C 2.320312 -5.910156 2.453125 -5.953125 2.640625 -5.953125 C 2.828125 -5.953125 2.957031 -5.910156 3.03125 -5.828125 C 3.101562 -5.753906 3.140625 -5.660156 3.140625 -5.546875 L 3.140625 -5.421875 C 3.140625 -5.296875 3.101562 -5.195312 3.03125 -5.125 C 2.957031 -5.050781 2.828125 -5.015625 2.640625 -5.015625 Z M 0.84375 -0.546875 L 2.328125 -0.546875 L 2.328125 -3.5625 L 0.84375 -3.5625 L 0.84375 -4.109375 L 2.953125 -4.109375 L 2.953125 -0.546875 L 4.34375 -0.546875 L 4.34375 0 L 0.84375 0 Z M 0.84375 -0.546875 "/>
</g>
<g id="lstm-multilayer-glyph-0-14">
<path d="M 0.75 -5.890625 L 1.390625 -5.890625 L 1.390625 -3.4375 L 1.421875 -3.4375 C 1.691406 -3.945312 2.113281 -4.203125 2.6875 -4.203125 C 3.1875 -4.203125 3.578125 -4.007812 3.859375 -3.625 C 4.148438 -3.25 4.296875 -2.722656 4.296875 -2.046875 C 4.296875 -1.367188 4.148438 -0.84375 3.859375 -0.46875 C 3.578125 -0.09375 3.1875 0.09375 2.6875 0.09375 C 2.113281 0.09375 1.691406 -0.160156 1.421875 -0.671875 L 1.390625 -0.671875 L 1.390625 0 L 0.75 0 Z M 2.4375 -0.46875 C 2.8125 -0.46875 3.097656 -0.578125 3.296875 -0.796875 C 3.503906 -1.023438 3.609375 -1.328125 3.609375 -1.703125 L 3.609375 -2.40625 C 3.609375 -2.769531 3.503906 -3.066406 3.296875 -3.296875 C 3.097656 -3.523438 2.8125 -3.640625 2.4375 -3.640625 C 2.300781 -3.640625 2.164062 -3.617188 2.03125 -3.578125 C 1.90625 -3.535156 1.796875 -3.476562 1.703125 -3.40625 C 1.609375 -3.34375 1.53125 -3.257812 1.46875 -3.15625 C 1.414062 -3.050781 1.390625 -2.929688 1.390625 -2.796875 L 1.390625 -1.3125 C 1.390625 -1.175781 1.414062 -1.054688 1.46875 -0.953125 C 1.53125 -0.847656 1.609375 -0.757812 1.703125 -0.6875 C 1.796875 -0.613281 1.90625 -0.554688 2.03125 -0.515625 C 2.164062 -0.484375 2.300781 -0.46875 2.4375 -0.46875 Z M 2.4375 -0.46875 "/>
</g>
<g id="lstm-multilayer-glyph-0-15">
<path d="M 0.640625 -0.546875 L 2.0625 -0.546875 L 2.0625 -5.34375 L 0.640625 -5.34375 L 0.640625 -5.890625 L 2.703125 -5.890625 L 2.703125 -0.546875 L 4.140625 -0.546875 L 4.140625 0 L 0.640625 0 Z M 0.640625 -0.546875 "/>
</g>
<g id="lstm-multilayer-glyph-0-16">
<path d="M 3.359375 -0.671875 L 3.328125 -0.671875 C 3.285156 -0.566406 3.226562 -0.46875 3.15625 -0.375 C 3.09375 -0.28125 3.015625 -0.195312 2.921875 -0.125 C 2.835938 -0.0625 2.726562 -0.0078125 2.59375 0.03125 C 2.46875 0.0703125 2.320312 0.09375 2.15625 0.09375 C 1.726562 0.09375 1.382812 -0.0390625 1.125 -0.3125 C 0.863281 -0.582031 0.734375 -0.96875 0.734375 -1.46875 L 0.734375 -4.109375 L 1.375 -4.109375 L 1.375 -1.578125 C 1.375 -1.203125 1.453125 -0.921875 1.609375 -0.734375 C 1.773438 -0.554688 2.019531 -0.46875 2.34375 -0.46875 C 2.46875 -0.46875 2.585938 -0.484375 2.703125 -0.515625 C 2.828125 -0.546875 2.9375 -0.59375 3.03125 -0.65625 C 3.132812 -0.71875 3.210938 -0.796875 3.265625 -0.890625 C 3.328125 -0.992188 3.359375 -1.113281 3.359375 -1.25 L 3.359375 -4.109375 L 4 -4.109375 L 4 0 L 3.359375 0 Z M 3.359375 -0.671875 "/>
</g>
<g id="lstm-multilayer-glyph-1-0">
<path d="M 0.578125 0 L 0.578125 -0.140625 L 1.296875 -0.5 L 1.296875 -5.390625 L 0.578125 -5.75 L 0.578125 -5.90625 L 2.90625 -5.90625 L 2.90625 -5.75 L 2.09375 -5.390625 L 2.09375 -0.484375 L 4.265625 -0.484375 L 4.875 -1.984375 L 5.015625 -1.984375 L 5.015625 0 Z M 0.578125 0 "/>
</g>
<g id="lstm-multilayer-glyph-1-1">
<path d="M 2.359375 0.09375 C 1.992188 0.09375 1.679688 0.0625 1.421875 0 C 1.171875 -0.0703125 0.90625 -0.179688 0.625 -0.328125 L 0.53125 -1.78125 L 0.671875 -1.78125 L 1.125 -0.84375 C 1.332031 -0.664062 1.535156 -0.535156 1.734375 -0.453125 C 1.941406 -0.367188 2.148438 -0.328125 2.359375 -0.328125 C 2.710938 -0.328125 2.988281 -0.421875 3.1875 -0.609375 C 3.382812 -0.796875 3.484375 -1.046875 3.484375 -1.359375 C 3.484375 -1.617188 3.425781 -1.820312 3.3125 -1.96875 C 3.195312 -2.125 3.03125 -2.257812 2.8125 -2.375 C 2.59375 -2.488281 2.332031 -2.617188 2.03125 -2.765625 C 1.757812 -2.910156 1.523438 -3.050781 1.328125 -3.1875 C 1.128906 -3.320312 0.976562 -3.476562 0.875 -3.65625 C 0.769531 -3.84375 0.71875 -4.078125 0.71875 -4.359375 C 0.71875 -4.554688 0.765625 -4.75 0.859375 -4.9375 C 0.960938 -5.132812 1.097656 -5.3125 1.265625 -5.46875 C 1.441406 -5.632812 1.632812 -5.757812 1.84375 -5.84375 C 2.050781 -5.9375 2.269531 -5.984375 2.5 -5.984375 C 2.78125 -5.984375 3.035156 -5.953125 3.265625 -5.890625 C 3.503906 -5.828125 3.742188 -5.734375 3.984375 -5.609375 L 4.0625 -4.1875 L 3.921875 -4.1875 L 3.515625 -5.125 C 3.304688 -5.28125 3.125 -5.390625 2.96875 -5.453125 C 2.8125 -5.523438 2.632812 -5.5625 2.4375 -5.5625 C 2.164062 -5.5625 1.945312 -5.46875 1.78125 -5.28125 C 1.613281 -5.101562 1.53125 -4.882812 1.53125 -4.625 C 1.53125 -4.320312 1.617188 -4.085938 1.796875 -3.921875 C 1.984375 -3.753906 2.273438 -3.570312 2.671875 -3.375 C 3.035156 -3.207031 3.332031 -3.046875 3.5625 -2.890625 C 3.800781 -2.734375 3.972656 -2.554688 4.078125 -2.359375 C 4.191406 -2.160156 4.25 -1.910156 4.25 -1.609375 C 4.25 -1.328125 4.1875 -1.078125 4.0625 -0.859375 C 3.945312 -0.648438 3.796875 -0.472656 3.609375 -0.328125 C 3.421875 -0.191406 3.21875 -0.0859375 3 -0.015625 C 2.78125 0.0546875 2.566406 0.09375 2.359375 0.09375 Z M 2.359375 0.09375 "/>
</g>
<g id="lstm-multilayer-glyph-1-2">
<path d="M 1.71875 0 L 1.71875 -0.140625 L 2.609375 -0.5 L 2.609375 -5.40625 L 1.15625 -5.40625 L 0.546875 -4.09375 L 0.40625 -4.09375 L 0.40625 -5.90625 L 5.625 -5.90625 L 5.625 -4.09375 L 5.484375 -4.09375 L 4.875 -5.40625 L 3.421875 -5.40625 L 3.421875 -0.5 L 4.3125 -0.140625 L 4.3125 0 Z M 1.71875 0 "/>
</g>
<g id="lstm-multilayer-glyph-1-3">
<path d="M 0.53125 0 L 0.53125 -0.140625 L 1.25 -0.5 L 1.4375 -5.390625 L 0.65625 -5.75 L 0.65625 -5.90625 L 2.3125 -5.90625 L 4.375 -1.140625 L 6.4375 -5.90625 L 8.015625 -5.90625 L 8.015625 -5.75 L 7.25 -5.390625 L 7.40625 -0.5 L 8.03125 -0.140625 L 8.03125 0 L 5.984375 0 L 5.984375 -0.140625 L 6.640625 -0.484375 L 6.546875 -4.890625 L 4.421875 0.046875 L 4.015625 0.046875 L 1.90625 -4.828125 L 1.796875 -0.484375 L 2.515625 -0.140625 L 2.515625 0 Z M 0.53125 0 "/>
</g>
<g id="lstm-multilayer-glyph-1-4">
<path d="M 3.578125 0.09375 C 2.960938 0.09375 2.4375 -0.03125 2 -0.28125 C 1.5625 -0.53125 1.222656 -0.867188 0.984375 -1.296875 C 0.742188 -1.734375 0.625 -2.226562 0.625 -2.78125 C 0.625 -3.207031 0.707031 -3.613281 0.875 -4 C 1.039062 -4.382812 1.265625 -4.722656 1.546875 -5.015625 C 1.828125 -5.316406 2.148438 -5.550781 2.515625 -5.71875 C 2.890625 -5.894531 3.285156 -5.984375 3.703125 -5.984375 C 4.003906 -5.984375 4.257812 -5.960938 4.46875 -5.921875 C 4.675781 -5.890625 4.863281 -5.835938 5.03125 -5.765625 C 5.195312 -5.703125 5.359375 -5.632812 5.515625 -5.5625 L 5.5625 -4 L 5.40625 -4 L 4.859375 -5.078125 C 4.628906 -5.242188 4.429688 -5.363281 4.265625 -5.4375 C 4.097656 -5.507812 3.90625 -5.546875 3.6875 -5.546875 C 3.257812 -5.546875 2.875 -5.4375 2.53125 -5.21875 C 2.195312 -5.007812 1.929688 -4.71875 1.734375 -4.34375 C 1.546875 -3.96875 1.453125 -3.539062 1.453125 -3.0625 C 1.453125 -2.488281 1.546875 -2 1.734375 -1.59375 C 1.921875 -1.195312 2.171875 -0.890625 2.484375 -0.671875 C 2.804688 -0.460938 3.164062 -0.359375 3.5625 -0.359375 C 3.882812 -0.359375 4.15625 -0.40625 4.375 -0.5 C 4.601562 -0.59375 4.804688 -0.695312 4.984375 -0.8125 L 5.515625 -1.765625 L 5.671875 -1.765625 L 5.5625 -0.34375 C 5.394531 -0.257812 5.21875 -0.179688 5.03125 -0.109375 C 4.851562 -0.046875 4.644531 0 4.40625 0.03125 C 4.175781 0.0703125 3.898438 0.09375 3.578125 0.09375 Z M 3.578125 0.09375 "/>
</g>
<g id="lstm-multilayer-glyph-1-5">
<path d="M 2.3125 0.09375 C 1.738281 0.09375 1.285156 -0.0820312 0.953125 -0.4375 C 0.617188 -0.789062 0.453125 -1.253906 0.453125 -1.828125 C 0.453125 -2.273438 0.535156 -2.671875 0.703125 -3.015625 C 0.878906 -3.359375 1.113281 -3.625 1.40625 -3.8125 C 1.695312 -4.007812 2.007812 -4.109375 2.34375 -4.109375 C 2.820312 -4.109375 3.195312 -3.941406 3.46875 -3.609375 C 3.738281 -3.285156 3.875 -2.816406 3.875 -2.203125 L 3.828125 -2.15625 L 1.15625 -2.15625 C 1.15625 -1.882812 1.207031 -1.628906 1.3125 -1.390625 C 1.414062 -1.148438 1.578125 -0.953125 1.796875 -0.796875 C 2.023438 -0.648438 2.328125 -0.578125 2.703125 -0.578125 C 3.023438 -0.578125 3.410156 -0.695312 3.859375 -0.9375 L 3.875 -0.9375 L 3.875 -0.84375 C 3.738281 -0.59375 3.535156 -0.375 3.265625 -0.1875 C 2.992188 0 2.675781 0.09375 2.3125 0.09375 Z M 2.203125 -3.71875 C 1.921875 -3.71875 1.6875 -3.617188 1.5 -3.421875 C 1.320312 -3.222656 1.210938 -2.941406 1.171875 -2.578125 L 3.1875 -2.578125 C 3.125 -2.984375 3.007812 -3.273438 2.84375 -3.453125 C 2.675781 -3.628906 2.460938 -3.71875 2.203125 -3.71875 Z M 2.203125 -3.71875 "/>
</g>
<g id="lstm-multilayer-glyph-1-6">
<path d="M 0.390625 0 L 0.390625 -0.140625 L 0.953125 -0.421875 L 0.953125 -5.6875 L 0.421875 -6.15625 L 0.421875 -6.21875 L 1.625 -6.703125 L 1.671875 -6.703125 L 1.671875 -0.421875 L 2.234375 -0.140625 L 2.234375 0 Z M 0.390625 0 "/>
</g>
<g id="lstm-multilayer-glyph-2-0">
<path d="M 5.203125 -1.28125 L 5.390625 -1.109375 C 5.203125 -0.890625 4.984375 -0.6875 4.734375 -0.5 C 4.492188 -0.320312 4.21875 -0.175781 3.90625 -0.0625 C 3.59375 0.0390625 3.238281 0.09375 2.84375 0.09375 C 2.070312 0.09375 1.5 -0.0976562 1.125 -0.484375 C 0.75 -0.878906 0.5625 -1.40625 0.5625 -2.0625 C 0.5625 -2.632812 0.648438 -3.144531 0.828125 -3.59375 C 1.015625 -4.039062 1.269531 -4.421875 1.59375 -4.734375 C 1.925781 -5.046875 2.304688 -5.285156 2.734375 -5.453125 C 3.160156 -5.617188 3.617188 -5.703125 4.109375 -5.703125 C 4.410156 -5.703125 4.644531 -5.675781 4.8125 -5.625 C 4.988281 -5.570312 5.125 -5.519531 5.21875 -5.46875 C 5.3125 -5.425781 5.390625 -5.40625 5.453125 -5.40625 C 5.503906 -5.40625 5.554688 -5.425781 5.609375 -5.46875 C 5.660156 -5.519531 5.734375 -5.59375 5.828125 -5.6875 L 6.109375 -5.6875 L 5.71875 -3.703125 L 5.375 -3.703125 C 5.382812 -4.265625 5.269531 -4.664062 5.03125 -4.90625 C 4.800781 -5.15625 4.453125 -5.28125 3.984375 -5.28125 C 3.609375 -5.28125 3.269531 -5.203125 2.96875 -5.046875 C 2.664062 -4.898438 2.40625 -4.6875 2.1875 -4.40625 C 1.96875 -4.132812 1.796875 -3.816406 1.671875 -3.453125 C 1.554688 -3.097656 1.5 -2.710938 1.5 -2.296875 C 1.5 -1.671875 1.65625 -1.222656 1.96875 -0.953125 C 2.289062 -0.691406 2.722656 -0.5625 3.265625 -0.5625 C 3.648438 -0.5625 3.992188 -0.617188 4.296875 -0.734375 C 4.609375 -0.859375 4.910156 -1.039062 5.203125 -1.28125 Z M 5.203125 -1.28125 "/>
</g>
<g id="lstm-multilayer-glyph-2-1">
<path d="M 4.640625 -0.96875 L 4.84375 -0.796875 C 4.78125 -0.710938 4.695312 -0.597656 4.59375 -0.453125 C 4.5 -0.316406 4.375 -0.191406 4.21875 -0.078125 C 4.0625 0.0234375 3.867188 0.078125 3.640625 0.078125 C 3.398438 0.078125 3.238281 0.0234375 3.15625 -0.078125 C 3.082031 -0.179688 3.046875 -0.296875 3.046875 -0.421875 C 3.046875 -0.484375 3.050781 -0.546875 3.0625 -0.609375 C 3.070312 -0.671875 3.078125 -0.71875 3.078125 -0.75 L 3.578125 -2.6875 C 3.578125 -2.6875 3.585938 -2.726562 3.609375 -2.8125 C 3.628906 -2.90625 3.640625 -2.992188 3.640625 -3.078125 C 3.640625 -3.179688 3.617188 -3.265625 3.578125 -3.328125 C 3.535156 -3.398438 3.460938 -3.4375 3.359375 -3.4375 C 3.234375 -3.4375 3.09375 -3.382812 2.9375 -3.28125 C 2.789062 -3.175781 2.640625 -3.035156 2.484375 -2.859375 C 2.328125 -2.679688 2.179688 -2.492188 2.046875 -2.296875 C 1.910156 -2.109375 1.789062 -1.925781 1.6875 -1.75 C 1.582031 -1.582031 1.503906 -1.445312 1.453125 -1.34375 L 1.15625 0 L 0.40625 0 L 1.5 -5.03125 C 1.5 -5.03125 1.503906 -5.066406 1.515625 -5.140625 C 1.523438 -5.210938 1.53125 -5.28125 1.53125 -5.34375 C 1.53125 -5.414062 1.507812 -5.472656 1.46875 -5.515625 C 1.4375 -5.566406 1.359375 -5.59375 1.234375 -5.59375 C 1.179688 -5.59375 1.125 -5.585938 1.0625 -5.578125 C 1.007812 -5.578125 0.984375 -5.578125 0.984375 -5.578125 L 0.984375 -5.84375 L 2.125 -5.9375 L 2.421875 -5.9375 L 1.578125 -2.3125 L 1.671875 -2.3125 C 1.742188 -2.4375 1.84375 -2.597656 1.96875 -2.796875 C 2.101562 -3.003906 2.265625 -3.207031 2.453125 -3.40625 C 2.640625 -3.601562 2.847656 -3.769531 3.078125 -3.90625 C 3.304688 -4.039062 3.554688 -4.109375 3.828125 -4.109375 C 4.066406 -4.109375 4.222656 -4.039062 4.296875 -3.90625 C 4.378906 -3.78125 4.421875 -3.632812 4.421875 -3.46875 C 4.421875 -3.363281 4.410156 -3.253906 4.390625 -3.140625 C 4.367188 -3.023438 4.351562 -2.929688 4.34375 -2.859375 L 3.859375 -0.84375 C 3.859375 -0.84375 3.851562 -0.828125 3.84375 -0.796875 C 3.84375 -0.765625 3.84375 -0.726562 3.84375 -0.6875 C 3.84375 -0.570312 3.898438 -0.515625 4.015625 -0.515625 C 4.160156 -0.515625 4.285156 -0.566406 4.390625 -0.671875 C 4.492188 -0.773438 4.578125 -0.875 4.640625 -0.96875 Z M 4.640625 -0.96875 "/>
</g>
<g id="lstm-multilayer-glyph-3-0">
<path d="M 1.90625 -4.640625 L 1.203125 -0.953125 C 1.203125 -0.953125 1.195312 -0.925781 1.1875 -0.875 C 1.175781 -0.820312 1.164062 -0.765625 1.15625 -0.703125 C 1.15625 -0.640625 1.15625 -0.585938 1.15625 -0.546875 C 1.15625 -0.492188 1.164062 -0.457031 1.1875 -0.4375 C 1.207031 -0.414062 1.238281 -0.40625 1.28125 -0.40625 C 1.363281 -0.40625 1.4375 -0.425781 1.5 -0.46875 C 1.570312 -0.519531 1.628906 -0.570312 1.671875 -0.625 C 1.722656 -0.675781 1.757812 -0.71875 1.78125 -0.75 L 1.96875 -0.609375 C 1.882812 -0.503906 1.800781 -0.398438 1.71875 -0.296875 C 1.632812 -0.191406 1.53125 -0.101562 1.40625 -0.03125 C 1.289062 0.0273438 1.144531 0.0625 0.96875 0.0625 C 0.8125 0.0625 0.6875 0.0351562 0.59375 -0.015625 C 0.507812 -0.0664062 0.46875 -0.15625 0.46875 -0.28125 C 0.46875 -0.363281 0.476562 -0.457031 0.5 -0.5625 C 0.519531 -0.664062 0.539062 -0.78125 0.5625 -0.90625 L 1.15625 -3.890625 C 1.15625 -3.890625 1.15625 -3.910156 1.15625 -3.953125 C 1.164062 -3.992188 1.171875 -4.046875 1.171875 -4.109375 C 1.171875 -4.160156 1.15625 -4.210938 1.125 -4.265625 C 1.09375 -4.316406 1.03125 -4.34375 0.9375 -4.34375 C 0.875 -4.34375 0.820312 -4.335938 0.78125 -4.328125 C 0.738281 -4.328125 0.71875 -4.328125 0.71875 -4.328125 L 0.71875 -4.578125 L 1.625 -4.640625 Z M 1.90625 -4.640625 "/>
</g>
<g id="lstm-multilayer-glyph-3-1">
<path d="M 4.28125 -0.609375 L 0.46875 -0.609375 L 0.46875 -1.125 L 4.28125 -1.125 Z M 4.28125 -2.109375 L 0.46875 -2.109375 L 0.46875 -2.625 L 4.28125 -2.625 Z M 4.28125 -2.109375 "/>
</g>
<g id="lstm-multilayer-glyph-3-2">
<path d="M 2.8125 0 L 0.65625 0 L 0.65625 -0.25 C 0.945312 -0.25 1.144531 -0.273438 1.25 -0.328125 C 1.351562 -0.390625 1.40625 -0.5 1.40625 -0.65625 L 1.40625 -3.296875 C 1.40625 -3.410156 1.382812 -3.492188 1.34375 -3.546875 C 1.3125 -3.597656 1.25 -3.625 1.15625 -3.625 C 1.113281 -3.625 1.054688 -3.617188 0.984375 -3.609375 C 0.910156 -3.609375 0.835938 -3.597656 0.765625 -3.578125 C 0.691406 -3.566406 0.632812 -3.554688 0.59375 -3.546875 L 0.59375 -3.828125 L 1.71875 -4.109375 L 2.046875 -4.109375 L 2.046875 -0.65625 C 2.046875 -0.5 2.101562 -0.390625 2.21875 -0.328125 C 2.332031 -0.273438 2.53125 -0.25 2.8125 -0.25 Z M 2.8125 0 "/>
</g>
<g id="lstm-multilayer-glyph-3-3">
<path d="M 2.34375 -3.125 L 2.296875 -2.828125 L 1.609375 -2.828125 L 1.234375 -0.875 C 1.234375 -0.875 1.222656 -0.835938 1.203125 -0.765625 C 1.191406 -0.691406 1.1875 -0.628906 1.1875 -0.578125 C 1.1875 -0.535156 1.195312 -0.492188 1.21875 -0.453125 C 1.238281 -0.421875 1.273438 -0.40625 1.328125 -0.40625 C 1.441406 -0.40625 1.53125 -0.429688 1.59375 -0.484375 C 1.664062 -0.546875 1.765625 -0.65625 1.890625 -0.8125 L 2.0625 -0.671875 C 2.03125 -0.617188 1.984375 -0.550781 1.921875 -0.46875 C 1.867188 -0.382812 1.800781 -0.300781 1.71875 -0.21875 C 1.632812 -0.132812 1.53125 -0.0664062 1.40625 -0.015625 C 1.289062 0.0351562 1.144531 0.0625 0.96875 0.0625 C 0.8125 0.0625 0.695312 0.0273438 0.625 -0.03125 C 0.550781 -0.09375 0.515625 -0.175781 0.515625 -0.28125 C 0.515625 -0.332031 0.519531 -0.40625 0.53125 -0.5 C 0.550781 -0.59375 0.566406 -0.660156 0.578125 -0.703125 L 1.015625 -2.828125 L 0.625 -2.828125 L 0.671875 -3.015625 C 0.804688 -3.097656 0.921875 -3.175781 1.015625 -3.25 C 1.117188 -3.332031 1.210938 -3.429688 1.296875 -3.546875 C 1.390625 -3.671875 1.488281 -3.832031 1.59375 -4.03125 L 1.875 -4.03125 L 1.671875 -3.125 Z M 2.34375 -3.125 "/>
</g>
<g id="lstm-multilayer-glyph-3-4">
<path d="M 3.3125 -2.046875 C 3.3125 -1.773438 3.28125 -1.507812 3.21875 -1.25 C 3.15625 -1 3.0625 -0.769531 2.9375 -0.5625 C 2.8125 -0.363281 2.65625 -0.203125 2.46875 -0.078125 C 2.28125 0.0351562 2.054688 0.09375 1.796875 0.09375 C 1.546875 0.09375 1.320312 0.0351562 1.125 -0.078125 C 0.9375 -0.191406 0.78125 -0.347656 0.65625 -0.546875 C 0.539062 -0.742188 0.453125 -0.96875 0.390625 -1.21875 C 0.328125 -1.476562 0.296875 -1.753906 0.296875 -2.046875 C 0.296875 -2.484375 0.363281 -2.851562 0.5 -3.15625 C 0.632812 -3.46875 0.8125 -3.703125 1.03125 -3.859375 C 1.257812 -4.023438 1.515625 -4.109375 1.796875 -4.109375 C 2.085938 -4.109375 2.347656 -4.023438 2.578125 -3.859375 C 2.804688 -3.703125 2.984375 -3.46875 3.109375 -3.15625 C 3.242188 -2.851562 3.3125 -2.484375 3.3125 -2.046875 Z M 2.609375 -1.984375 C 2.609375 -2.628906 2.539062 -3.09375 2.40625 -3.375 C 2.269531 -3.664062 2.066406 -3.8125 1.796875 -3.8125 C 1.535156 -3.8125 1.332031 -3.664062 1.1875 -3.375 C 1.050781 -3.09375 0.984375 -2.640625 0.984375 -2.015625 C 0.984375 -1.398438 1.050781 -0.945312 1.1875 -0.65625 C 1.332031 -0.363281 1.535156 -0.21875 1.796875 -0.21875 C 2.054688 -0.21875 2.253906 -0.363281 2.390625 -0.65625 C 2.535156 -0.957031 2.609375 -1.398438 2.609375 -1.984375 Z M 2.609375 -1.984375 "/>
</g>
<g id="lstm-multilayer-glyph-3-5">
<path d="M 3.09375 -1.125 L 2.890625 0 L 0.3125 0 L 0.3125 -0.375 L 1.140625 -1.171875 C 1.390625 -1.410156 1.59375 -1.617188 1.75 -1.796875 C 1.90625 -1.972656 2.019531 -2.148438 2.09375 -2.328125 C 2.164062 -2.503906 2.203125 -2.710938 2.203125 -2.953125 C 2.203125 -3.148438 2.140625 -3.316406 2.015625 -3.453125 C 1.890625 -3.585938 1.703125 -3.65625 1.453125 -3.65625 C 1.210938 -3.65625 1.015625 -3.613281 0.859375 -3.53125 C 0.710938 -3.445312 0.582031 -3.320312 0.46875 -3.15625 L 0.296875 -3.25 C 0.410156 -3.507812 0.570312 -3.71875 0.78125 -3.875 C 1 -4.039062 1.269531 -4.125 1.59375 -4.125 C 1.976562 -4.125 2.289062 -4.023438 2.53125 -3.828125 C 2.78125 -3.640625 2.90625 -3.363281 2.90625 -3 C 2.90625 -2.800781 2.851562 -2.609375 2.75 -2.421875 C 2.65625 -2.242188 2.519531 -2.0625 2.34375 -1.875 C 2.164062 -1.6875 1.960938 -1.484375 1.734375 -1.265625 L 0.984375 -0.578125 L 0.984375 -0.53125 L 1.5 -0.5625 L 2.25 -0.5625 C 2.375 -0.5625 2.46875 -0.578125 2.53125 -0.609375 C 2.601562 -0.640625 2.660156 -0.695312 2.703125 -0.78125 C 2.753906 -0.863281 2.800781 -0.976562 2.84375 -1.125 Z M 3.09375 -1.125 "/>
</g>
</g>
<clipPath id="lstm-multilayer-clip-0">
<path clip-rule="nonzero" d="M 41 102 L 459.726562 102 L 459.726562 193 L 41 193 Z M 41 102 "/>
</clipPath>
<clipPath id="lstm-multilayer-clip-1">
<path clip-rule="nonzero" d="M 41 0 L 459.726562 0 L 459.726562 86 L 41 86 Z M 41 0 "/>
</clipPath>
</defs>
<g clip-path="url(#lstm-multilayer-clip-0)">
<path fill="none" stroke-width="0.59776" stroke-linecap="butt" stroke-linejoin="miter" stroke="var(--line2)" stroke-opacity="1" stroke-dasharray="2.98883 2.98883" stroke-miterlimit="10" d="M 5.668892 -7.354312 L 5.668892 58.37727 C 5.668892 60.579031 7.455374 62.361596 9.653218 62.361596 L 409.8762 62.361596 C 412.077961 62.361596 413.860526 60.579031 413.860526 58.37727 L 413.860526 -7.354312 C 413.860526 -9.556073 412.077961 -11.338637 409.8762 -11.338637 L 9.653218 -11.338637 C 7.455374 -11.338637 5.668892 -9.556073 5.668892 -7.354312 Z M 5.668892 -7.354312 " transform="matrix(0.997071, 0, 0, -0.997071, 43.800836, 172.862541)"/>
</g>
<g fill="var(--soft)" fill-opacity="1">
<use xlink:href="#lstm-multilayer-glyph-0-0" x="6.765477" y="150.198705"/>
<use xlink:href="#lstm-multilayer-glyph-0-1" x="11.533538" y="150.198705"/>
<use xlink:href="#lstm-multilayer-glyph-0-2" x="16.301599" y="150.198705"/>
<use xlink:href="#lstm-multilayer-glyph-0-3" x="21.06966" y="150.198705"/>
<use xlink:href="#lstm-multilayer-glyph-0-4" x="25.837721" y="150.198705"/>
</g>
<g fill="var(--soft)" fill-opacity="1">
<use xlink:href="#lstm-multilayer-glyph-0-5" x="35.373844" y="150.198705"/>
</g>
<path fill-rule="nonzero" fill="var(--fc)" fill-opacity="0.16" stroke-width="0.69739" stroke-linecap="butt" stroke-linejoin="miter" stroke="var(--fc)" stroke-opacity="1" stroke-miterlimit="10" d="M 179.278936 51.372379 L 70.871581 51.372379 C 69.49646 51.372379 68.379908 50.259745 68.379908 48.880706 L 68.379908 2.839608 C 68.379908 1.464486 69.49646 0.347935 70.871581 0.347935 L 179.278936 0.347935 C 180.654057 0.347935 181.766691 1.464486 181.766691 2.839608 L 181.766691 48.880706 C 181.766691 50.259745 180.654057 51.372379 179.278936 51.372379 Z M 179.278936 51.372379 " transform="matrix(0.997071, 0, 0, -0.997071, 43.800836, 172.862541)"/>
<g fill="var(--ink)" fill-opacity="1">
<use xlink:href="#lstm-multilayer-glyph-1-0" x="146.855596" y="150.385387"/>
<use xlink:href="#lstm-multilayer-glyph-1-1" x="152.505748" y="150.385387"/>
<use xlink:href="#lstm-multilayer-glyph-1-2" x="157.252949" y="150.385387"/>
<use xlink:href="#lstm-multilayer-glyph-1-3" x="163.278586" y="150.385387"/>
</g>
<g fill="var(--ink)" fill-opacity="1">
<use xlink:href="#lstm-multilayer-glyph-1-4" x="174.087185" y="150.385387"/>
<use xlink:href="#lstm-multilayer-glyph-1-5" x="180.577708" y="150.385387"/>
<use xlink:href="#lstm-multilayer-glyph-1-6" x="184.904724" y="150.385387"/>
<use xlink:href="#lstm-multilayer-glyph-1-6" x="187.533117" y="150.385387"/>
</g>
<path fill-rule="nonzero" fill="var(--fc)" fill-opacity="0.16" stroke-width="0.69739" stroke-linecap="butt" stroke-linejoin="miter" stroke="var(--fc)" stroke-opacity="1" stroke-miterlimit="10" d="M 355.028057 51.372379 L 246.620702 51.372379 C 245.245581 51.372379 244.12903 50.259745 244.12903 48.880706 L 244.12903 2.839608 C 244.12903 1.464486 245.245581 0.347935 246.620702 0.347935 L 355.028057 0.347935 C 356.403179 0.347935 357.515812 1.464486 357.515812 2.839608 L 357.515812 48.880706 C 357.515812 50.259745 356.403179 51.372379 355.028057 51.372379 Z M 355.028057 51.372379 " transform="matrix(0.997071, 0, 0, -0.997071, 43.800836, 172.862541)"/>
<g fill="var(--ink)" fill-opacity="1">
<use xlink:href="#lstm-multilayer-glyph-1-0" x="322.090229" y="150.385387"/>
<use xlink:href="#lstm-multilayer-glyph-1-1" x="327.740381" y="150.385387"/>
<use xlink:href="#lstm-multilayer-glyph-1-2" x="332.487582" y="150.385387"/>
<use xlink:href="#lstm-multilayer-glyph-1-3" x="338.513219" y="150.385387"/>
</g>
<g fill="var(--ink)" fill-opacity="1">
<use xlink:href="#lstm-multilayer-glyph-1-4" x="349.321818" y="150.385387"/>
<use xlink:href="#lstm-multilayer-glyph-1-5" x="355.812341" y="150.385387"/>
<use xlink:href="#lstm-multilayer-glyph-1-6" x="360.139357" y="150.385387"/>
<use xlink:href="#lstm-multilayer-glyph-1-6" x="362.76775" y="150.385387"/>
</g>
<path fill="none" stroke-width="0.69739" stroke-linecap="butt" stroke-linejoin="miter" stroke="var(--ink)" stroke-opacity="1" stroke-miterlimit="10" d="M 22.675734 36.849374 L 64.117424 36.849374 " transform="matrix(0.997071, 0, 0, -0.997071, 43.800836, 172.862541)"/>
<path fill-rule="nonzero" fill="var(--ink)" fill-opacity="1" stroke-width="0.69739" stroke-linecap="butt" stroke-linejoin="miter" stroke="var(--ink)" stroke-opacity="1" stroke-miterlimit="10" d="M 5.216892 -0.00128589 L 1.150294 1.491367 L 2.494074 -0.00128589 L 1.150294 -1.490021 Z M 5.216892 -0.00128589 " transform="matrix(0.997071, 0, 0, -0.997071, 105.415575, 136.119812)"/>
<g fill="var(--ink)" fill-opacity="1">
<use xlink:href="#lstm-multilayer-glyph-2-0" x="80.182765" y="131.907984"/>
</g>
<g fill="var(--ink)" fill-opacity="1">
<use xlink:href="#lstm-multilayer-glyph-3-0" x="86.540171" y="128.828619"/>
</g>
<g fill="var(--ink)" fill-opacity="1">
<use xlink:href="#lstm-multilayer-glyph-3-1" x="88.84076" y="128.828619"/>
<use xlink:href="#lstm-multilayer-glyph-3-2" x="93.608821" y="128.828619"/>
</g>
<g fill="var(--ink)" fill-opacity="1">
<use xlink:href="#lstm-multilayer-glyph-3-3" x="86.142838" y="134.192683"/>
</g>
<g fill="var(--ink)" fill-opacity="1">
<use xlink:href="#lstm-multilayer-glyph-3-1" x="88.985794" y="134.192683"/>
<use xlink:href="#lstm-multilayer-glyph-3-4" x="93.753855" y="134.192683"/>
</g>
<path fill="none" stroke-width="0.69739" stroke-linecap="butt" stroke-linejoin="miter" stroke="var(--fe)" stroke-opacity="1" stroke-miterlimit="10" d="M 22.675734 14.173585 L 64.117424 14.173585 " transform="matrix(0.997071, 0, 0, -0.997071, 43.800836, 172.862541)"/>
<path fill-rule="nonzero" fill="var(--fe)" fill-opacity="1" stroke-width="0.69739" stroke-linecap="butt" stroke-linejoin="miter" stroke="var(--fe)" stroke-opacity="1" stroke-miterlimit="10" d="M 5.216892 0.000264661 L 1.150294 1.489 L 2.494074 0.000264661 L 1.150294 -1.488471 Z M 5.216892 0.000264661 " transform="matrix(0.997071, 0, 0, -0.997071, 105.415575, 158.730733)"/>
<g fill="var(--ink)" fill-opacity="1">
<use xlink:href="#lstm-multilayer-glyph-2-1" x="80.603968" y="154.518905"/>
</g>
<g fill="var(--ink)" fill-opacity="1">
<use xlink:href="#lstm-multilayer-glyph-3-0" x="85.721685" y="151.43954"/>
</g>
<g fill="var(--ink)" fill-opacity="1">
<use xlink:href="#lstm-multilayer-glyph-3-1" x="88.022275" y="151.43954"/>
<use xlink:href="#lstm-multilayer-glyph-3-2" x="92.790336" y="151.43954"/>
</g>
<g fill="var(--ink)" fill-opacity="1">
<use xlink:href="#lstm-multilayer-glyph-3-3" x="85.721685" y="156.803604"/>
</g>
<g fill="var(--ink)" fill-opacity="1">
<use xlink:href="#lstm-multilayer-glyph-3-1" x="88.564641" y="156.803604"/>
<use xlink:href="#lstm-multilayer-glyph-3-4" x="93.332703" y="156.803604"/>
</g>
<path fill="none" stroke-width="0.69739" stroke-linecap="butt" stroke-linejoin="miter" stroke="var(--ink)" stroke-opacity="1" stroke-miterlimit="10" d="M 181.418013 36.849374 L 239.866545 36.849374 " transform="matrix(0.997071, 0, 0, -0.997071, 43.800836, 172.862541)"/>
<path fill-rule="nonzero" fill="var(--ink)" fill-opacity="1" stroke-width="0.69739" stroke-linecap="butt" stroke-linejoin="miter" stroke="var(--ink)" stroke-opacity="1" stroke-miterlimit="10" d="M 5.216644 -0.00128589 L 1.150046 1.491367 L 2.493825 -0.00128589 L 1.150046 -1.490021 Z M 5.216644 -0.00128589 " transform="matrix(0.997071, 0, 0, -0.997071, 280.650198, 136.119812)"/>
<g fill="var(--ink)" fill-opacity="1">
<use xlink:href="#lstm-multilayer-glyph-2-0" x="247.072411" y="131.943719"/>
</g>
<g fill="var(--ink)" fill-opacity="1">
<use xlink:href="#lstm-multilayer-glyph-3-0" x="253.429817" y="128.864354"/>
</g>
<g fill="var(--ink)" fill-opacity="1">
<use xlink:href="#lstm-multilayer-glyph-3-1" x="255.730406" y="128.864354"/>
<use xlink:href="#lstm-multilayer-glyph-3-2" x="260.498467" y="128.864354"/>
</g>
<g fill="var(--ink)" fill-opacity="1">
<use xlink:href="#lstm-multilayer-glyph-3-3" x="253.032484" y="134.222465"/>
</g>
<g fill="var(--ink)" fill-opacity="1">
<use xlink:href="#lstm-multilayer-glyph-3-1" x="255.87544" y="134.222465"/>
<use xlink:href="#lstm-multilayer-glyph-3-2" x="260.643502" y="134.222465"/>
</g>
<path fill="none" stroke-width="0.69739" stroke-linecap="butt" stroke-linejoin="miter" stroke="var(--fe)" stroke-opacity="1" stroke-miterlimit="10" d="M 181.418013 14.173585 L 239.866545 14.173585 " transform="matrix(0.997071, 0, 0, -0.997071, 43.800836, 172.862541)"/>
<path fill-rule="nonzero" fill="var(--fe)" fill-opacity="1" stroke-width="0.69739" stroke-linecap="butt" stroke-linejoin="miter" stroke="var(--fe)" stroke-opacity="1" stroke-miterlimit="10" d="M 5.216644 0.000264661 L 1.150046 1.489 L 2.493825 0.000264661 L 1.150046 -1.488471 Z M 5.216644 0.000264661 " transform="matrix(0.997071, 0, 0, -0.997071, 280.650198, 158.730733)"/>
<g fill="var(--ink)" fill-opacity="1">
<use xlink:href="#lstm-multilayer-glyph-2-1" x="247.493584" y="154.55464"/>
</g>
<g fill="var(--ink)" fill-opacity="1">
<use xlink:href="#lstm-multilayer-glyph-3-0" x="252.611301" y="151.475275"/>
</g>
<g fill="var(--ink)" fill-opacity="1">
<use xlink:href="#lstm-multilayer-glyph-3-1" x="254.911891" y="151.475275"/>
<use xlink:href="#lstm-multilayer-glyph-3-2" x="259.679952" y="151.475275"/>
</g>
<g fill="var(--ink)" fill-opacity="1">
<use xlink:href="#lstm-multilayer-glyph-3-3" x="252.611301" y="156.833386"/>
</g>
<g fill="var(--ink)" fill-opacity="1">
<use xlink:href="#lstm-multilayer-glyph-3-1" x="255.454258" y="156.833386"/>
<use xlink:href="#lstm-multilayer-glyph-3-2" x="260.222319" y="156.833386"/>
</g>
<path fill="none" stroke-width="0.69739" stroke-linecap="butt" stroke-linejoin="miter" stroke="var(--ink)" stroke-opacity="1" stroke-miterlimit="10" d="M 357.167135 36.849374 L 398.604907 36.849374 " transform="matrix(0.997071, 0, 0, -0.997071, 43.800836, 172.862541)"/>
<path fill-rule="nonzero" fill="var(--ink)" fill-opacity="1" stroke-width="0.69739" stroke-linecap="butt" stroke-linejoin="miter" stroke="var(--ink)" stroke-opacity="1" stroke-miterlimit="10" d="M 5.217553 -0.00128589 L 1.147037 1.491367 L 2.494735 -0.00128589 L 1.147037 -1.490021 Z M 5.217553 -0.00128589 " transform="matrix(0.997071, 0, 0, -0.997071, 438.926635, 136.119812)"/>
<g fill="var(--ink)" fill-opacity="1">
<use xlink:href="#lstm-multilayer-glyph-2-0" x="413.833904" y="131.919899"/>
</g>
<g fill="var(--ink)" fill-opacity="1">
<use xlink:href="#lstm-multilayer-glyph-3-0" x="420.191309" y="128.840534"/>
</g>
<g fill="var(--ink)" fill-opacity="1">
<use xlink:href="#lstm-multilayer-glyph-3-1" x="422.491899" y="128.840534"/>
<use xlink:href="#lstm-multilayer-glyph-3-2" x="427.25996" y="128.840534"/>
</g>
<g fill="var(--ink)" fill-opacity="1">
<use xlink:href="#lstm-multilayer-glyph-3-3" x="419.793976" y="134.222485"/>
</g>
<g fill="var(--ink)" fill-opacity="1">
<use xlink:href="#lstm-multilayer-glyph-3-1" x="422.636933" y="134.222485"/>
<use xlink:href="#lstm-multilayer-glyph-3-5" x="427.404994" y="134.222485"/>
</g>
<path fill="none" stroke-width="0.69739" stroke-linecap="butt" stroke-linejoin="miter" stroke="var(--fe)" stroke-opacity="1" stroke-miterlimit="10" d="M 357.167135 14.173585 L 398.604907 14.173585 " transform="matrix(0.997071, 0, 0, -0.997071, 43.800836, 172.862541)"/>
<path fill-rule="nonzero" fill="var(--fe)" fill-opacity="1" stroke-width="0.69739" stroke-linecap="butt" stroke-linejoin="miter" stroke="var(--fe)" stroke-opacity="1" stroke-miterlimit="10" d="M 5.217553 0.000264661 L 1.147037 1.489 L 2.494735 0.000264661 L 1.147037 -1.488471 Z M 5.217553 0.000264661 " transform="matrix(0.997071, 0, 0, -0.997071, 438.926635, 158.730733)"/>
<g fill="var(--ink)" fill-opacity="1">
<use xlink:href="#lstm-multilayer-glyph-2-1" x="414.255067" y="154.53082"/>
</g>
<g fill="var(--ink)" fill-opacity="1">
<use xlink:href="#lstm-multilayer-glyph-3-0" x="419.372784" y="151.451455"/>
</g>
<g fill="var(--ink)" fill-opacity="1">
<use xlink:href="#lstm-multilayer-glyph-3-1" x="421.673373" y="151.451455"/>
<use xlink:href="#lstm-multilayer-glyph-3-2" x="426.441434" y="151.451455"/>
</g>
<g fill="var(--ink)" fill-opacity="1">
<use xlink:href="#lstm-multilayer-glyph-3-3" x="419.372784" y="156.833406"/>
</g>
<g fill="var(--ink)" fill-opacity="1">
<use xlink:href="#lstm-multilayer-glyph-3-1" x="422.21574" y="156.833406"/>
<use xlink:href="#lstm-multilayer-glyph-3-5" x="426.983801" y="156.833406"/>
</g>
<g clip-path="url(#lstm-multilayer-clip-1)">
<path fill="none" stroke-width="0.59776" stroke-linecap="butt" stroke-linejoin="miter" stroke="var(--line2)" stroke-opacity="1" stroke-dasharray="2.98883 2.98883" stroke-miterlimit="10" d="M 5.668892 100.363524 L 5.668892 166.095106 C 5.668892 168.296867 7.455374 170.079431 9.653218 170.079431 L 409.8762 170.079431 C 412.077961 170.079431 413.860526 168.296867 413.860526 166.095106 L 413.860526 100.363524 C 413.860526 98.161763 412.077961 96.379198 409.8762 96.379198 L 9.653218 96.379198 C 7.455374 96.379198 5.668892 98.161763 5.668892 100.363524 Z M 5.668892 100.363524 " transform="matrix(0.997071, 0, 0, -0.997071, 43.800836, 172.862541)"/>
</g>
<g fill="var(--soft)" fill-opacity="1">
<use xlink:href="#lstm-multilayer-glyph-0-0" x="6.765477" y="42.844535"/>
<use xlink:href="#lstm-multilayer-glyph-0-1" x="11.533538" y="42.844535"/>
<use xlink:href="#lstm-multilayer-glyph-0-2" x="16.301599" y="42.844535"/>
<use xlink:href="#lstm-multilayer-glyph-0-3" x="21.06966" y="42.844535"/>
<use xlink:href="#lstm-multilayer-glyph-0-4" x="25.837721" y="42.844535"/>
</g>
<g fill="var(--soft)" fill-opacity="1">
<use xlink:href="#lstm-multilayer-glyph-0-6" x="35.373844" y="42.844535"/>
</g>
<path fill-rule="nonzero" fill="var(--fc)" fill-opacity="0.16" stroke-width="0.69739" stroke-linecap="butt" stroke-linejoin="miter" stroke="var(--fc)" stroke-opacity="1" stroke-miterlimit="10" d="M 179.278936 159.090214 L 70.871581 159.090214 C 69.49646 159.090214 68.379908 157.973663 68.379908 156.598541 L 68.379908 110.557443 C 68.379908 109.182322 69.49646 108.06577 70.871581 108.06577 L 179.278936 108.06577 C 180.654057 108.06577 181.766691 109.182322 181.766691 110.557443 L 181.766691 156.598541 C 181.766691 157.973663 180.654057 159.090214 179.278936 159.090214 Z M 179.278936 159.090214 " transform="matrix(0.997071, 0, 0, -0.997071, 43.800836, 172.862541)"/>
<g fill="var(--ink)" fill-opacity="1">
<use xlink:href="#lstm-multilayer-glyph-1-0" x="146.855596" y="42.983517"/>
<use xlink:href="#lstm-multilayer-glyph-1-1" x="152.505748" y="42.983517"/>
<use xlink:href="#lstm-multilayer-glyph-1-2" x="157.252949" y="42.983517"/>
<use xlink:href="#lstm-multilayer-glyph-1-3" x="163.278586" y="42.983517"/>
</g>
<g fill="var(--ink)" fill-opacity="1">
<use xlink:href="#lstm-multilayer-glyph-1-4" x="174.087185" y="42.983517"/>
<use xlink:href="#lstm-multilayer-glyph-1-5" x="180.577708" y="42.983517"/>
<use xlink:href="#lstm-multilayer-glyph-1-6" x="184.904724" y="42.983517"/>
<use xlink:href="#lstm-multilayer-glyph-1-6" x="187.533117" y="42.983517"/>
</g>
<path fill-rule="nonzero" fill="var(--fc)" fill-opacity="0.16" stroke-width="0.69739" stroke-linecap="butt" stroke-linejoin="miter" stroke="var(--fc)" stroke-opacity="1" stroke-miterlimit="10" d="M 355.028057 159.090214 L 246.620702 159.090214 C 245.245581 159.090214 244.12903 157.973663 244.12903 156.598541 L 244.12903 110.557443 C 244.12903 109.182322 245.245581 108.06577 246.620702 108.06577 L 355.028057 108.06577 C 356.403179 108.06577 357.515812 109.182322 357.515812 110.557443 L 357.515812 156.598541 C 357.515812 157.973663 356.403179 159.090214 355.028057 159.090214 Z M 355.028057 159.090214 " transform="matrix(0.997071, 0, 0, -0.997071, 43.800836, 172.862541)"/>
<g fill="var(--ink)" fill-opacity="1">
<use xlink:href="#lstm-multilayer-glyph-1-0" x="322.090229" y="42.983517"/>
<use xlink:href="#lstm-multilayer-glyph-1-1" x="327.740381" y="42.983517"/>
<use xlink:href="#lstm-multilayer-glyph-1-2" x="332.487582" y="42.983517"/>
<use xlink:href="#lstm-multilayer-glyph-1-3" x="338.513219" y="42.983517"/>
</g>
<g fill="var(--ink)" fill-opacity="1">
<use xlink:href="#lstm-multilayer-glyph-1-4" x="349.321818" y="42.983517"/>
<use xlink:href="#lstm-multilayer-glyph-1-5" x="355.812341" y="42.983517"/>
<use xlink:href="#lstm-multilayer-glyph-1-6" x="360.139357" y="42.983517"/>
<use xlink:href="#lstm-multilayer-glyph-1-6" x="362.76775" y="42.983517"/>
</g>
<path fill="none" stroke-width="0.69739" stroke-linecap="butt" stroke-linejoin="miter" stroke="var(--ink)" stroke-opacity="1" stroke-miterlimit="10" d="M 22.675734 144.567209 L 64.117424 144.567209 " transform="matrix(0.997071, 0, 0, -0.997071, 43.800836, 172.862541)"/>
<path fill-rule="nonzero" fill="var(--ink)" fill-opacity="1" stroke-width="0.69739" stroke-linecap="butt" stroke-linejoin="miter" stroke="var(--ink)" stroke-opacity="1" stroke-miterlimit="10" d="M 5.216892 -0.000810575 L 1.150294 1.491842 L 2.494074 -0.000810575 L 1.150294 -1.489546 Z M 5.216892 -0.000810575 " transform="matrix(0.997071, 0, 0, -0.997071, 105.415575, 28.717942)"/>
<g fill="var(--ink)" fill-opacity="1">
<use xlink:href="#lstm-multilayer-glyph-2-0" x="80.182765" y="24.506114"/>
</g>
<g fill="var(--ink)" fill-opacity="1">
<use xlink:href="#lstm-multilayer-glyph-3-0" x="86.540171" y="21.426749"/>
</g>
<g fill="var(--ink)" fill-opacity="1">
<use xlink:href="#lstm-multilayer-glyph-3-1" x="88.84076" y="21.426749"/>
<use xlink:href="#lstm-multilayer-glyph-3-5" x="93.608821" y="21.426749"/>
</g>
<g fill="var(--ink)" fill-opacity="1">
<use xlink:href="#lstm-multilayer-glyph-3-3" x="86.142838" y="26.790813"/>
</g>
<g fill="var(--ink)" fill-opacity="1">
<use xlink:href="#lstm-multilayer-glyph-3-1" x="88.985794" y="26.790813"/>
<use xlink:href="#lstm-multilayer-glyph-3-4" x="93.753855" y="26.790813"/>
</g>
<path fill="none" stroke-width="0.69739" stroke-linecap="butt" stroke-linejoin="miter" stroke="var(--fe)" stroke-opacity="1" stroke-miterlimit="10" d="M 22.675734 121.89142 L 64.117424 121.89142 " transform="matrix(0.997071, 0, 0, -0.997071, 43.800836, 172.862541)"/>
<path fill-rule="nonzero" fill="var(--fe)" fill-opacity="1" stroke-width="0.69739" stroke-linecap="butt" stroke-linejoin="miter" stroke="var(--fe)" stroke-opacity="1" stroke-miterlimit="10" d="M 5.216892 0.000729979 L 1.150294 1.489465 L 2.494074 0.000729979 L 1.150294 -1.491923 Z M 5.216892 0.000729979 " transform="matrix(0.997071, 0, 0, -0.997071, 105.415575, 51.328853)"/>
<g fill="var(--ink)" fill-opacity="1">
<use xlink:href="#lstm-multilayer-glyph-2-1" x="80.603968" y="47.117045"/>
</g>
<g fill="var(--ink)" fill-opacity="1">
<use xlink:href="#lstm-multilayer-glyph-3-0" x="85.721685" y="44.03768"/>
</g>
<g fill="var(--ink)" fill-opacity="1">
<use xlink:href="#lstm-multilayer-glyph-3-1" x="88.022275" y="44.03768"/>
<use xlink:href="#lstm-multilayer-glyph-3-5" x="92.790336" y="44.03768"/>
</g>
<g fill="var(--ink)" fill-opacity="1">
<use xlink:href="#lstm-multilayer-glyph-3-3" x="85.721685" y="49.401744"/>
</g>
<g fill="var(--ink)" fill-opacity="1">
<use xlink:href="#lstm-multilayer-glyph-3-1" x="88.564641" y="49.401744"/>
<use xlink:href="#lstm-multilayer-glyph-3-4" x="93.332703" y="49.401744"/>
</g>
<path fill="none" stroke-width="0.69739" stroke-linecap="butt" stroke-linejoin="miter" stroke="var(--ink)" stroke-opacity="1" stroke-miterlimit="10" d="M 181.418013 144.567209 L 239.866545 144.567209 " transform="matrix(0.997071, 0, 0, -0.997071, 43.800836, 172.862541)"/>
<path fill-rule="nonzero" fill="var(--ink)" fill-opacity="1" stroke-width="0.69739" stroke-linecap="butt" stroke-linejoin="miter" stroke="var(--ink)" stroke-opacity="1" stroke-miterlimit="10" d="M 5.216644 -0.000810575 L 1.150046 1.491842 L 2.493825 -0.000810575 L 1.150046 -1.489546 Z M 5.216644 -0.000810575 " transform="matrix(0.997071, 0, 0, -0.997071, 280.650198, 28.717942)"/>
<g fill="var(--ink)" fill-opacity="1">
<use xlink:href="#lstm-multilayer-glyph-2-0" x="247.072411" y="24.541869"/>
</g>
<g fill="var(--ink)" fill-opacity="1">
<use xlink:href="#lstm-multilayer-glyph-3-0" x="253.429817" y="21.462504"/>
</g>
<g fill="var(--ink)" fill-opacity="1">
<use xlink:href="#lstm-multilayer-glyph-3-1" x="255.730406" y="21.462504"/>
<use xlink:href="#lstm-multilayer-glyph-3-5" x="260.498467" y="21.462504"/>
</g>
<g fill="var(--ink)" fill-opacity="1">
<use xlink:href="#lstm-multilayer-glyph-3-3" x="253.032484" y="26.820615"/>
</g>
<g fill="var(--ink)" fill-opacity="1">
<use xlink:href="#lstm-multilayer-glyph-3-1" x="255.87544" y="26.820615"/>
<use xlink:href="#lstm-multilayer-glyph-3-2" x="260.643502" y="26.820615"/>
</g>
<path fill="none" stroke-width="0.69739" stroke-linecap="butt" stroke-linejoin="miter" stroke="var(--fe)" stroke-opacity="1" stroke-miterlimit="10" d="M 181.418013 121.89142 L 239.866545 121.89142 " transform="matrix(0.997071, 0, 0, -0.997071, 43.800836, 172.862541)"/>
<path fill-rule="nonzero" fill="var(--fe)" fill-opacity="1" stroke-width="0.69739" stroke-linecap="butt" stroke-linejoin="miter" stroke="var(--fe)" stroke-opacity="1" stroke-miterlimit="10" d="M 5.216644 0.000729979 L 1.150046 1.489465 L 2.493825 0.000729979 L 1.150046 -1.491923 Z M 5.216644 0.000729979 " transform="matrix(0.997071, 0, 0, -0.997071, 280.650198, 51.328853)"/>
<g fill="var(--ink)" fill-opacity="1">
<use xlink:href="#lstm-multilayer-glyph-2-1" x="247.493584" y="47.15278"/>
</g>
<g fill="var(--ink)" fill-opacity="1">
<use xlink:href="#lstm-multilayer-glyph-3-0" x="252.611301" y="44.073415"/>
</g>
<g fill="var(--ink)" fill-opacity="1">
<use xlink:href="#lstm-multilayer-glyph-3-1" x="254.911891" y="44.073415"/>
<use xlink:href="#lstm-multilayer-glyph-3-5" x="259.679952" y="44.073415"/>
</g>
<g fill="var(--ink)" fill-opacity="1">
<use xlink:href="#lstm-multilayer-glyph-3-3" x="252.611301" y="49.431526"/>
</g>
<g fill="var(--ink)" fill-opacity="1">
<use xlink:href="#lstm-multilayer-glyph-3-1" x="255.454258" y="49.431526"/>
<use xlink:href="#lstm-multilayer-glyph-3-2" x="260.222319" y="49.431526"/>
</g>
<path fill="none" stroke-width="0.69739" stroke-linecap="butt" stroke-linejoin="miter" stroke="var(--ink)" stroke-opacity="1" stroke-miterlimit="10" d="M 357.167135 144.567209 L 398.604907 144.567209 " transform="matrix(0.997071, 0, 0, -0.997071, 43.800836, 172.862541)"/>
<path fill-rule="nonzero" fill="var(--ink)" fill-opacity="1" stroke-width="0.69739" stroke-linecap="butt" stroke-linejoin="miter" stroke="var(--ink)" stroke-opacity="1" stroke-miterlimit="10" d="M 5.217553 -0.000810575 L 1.147037 1.491842 L 2.494735 -0.000810575 L 1.147037 -1.489546 Z M 5.217553 -0.000810575 " transform="matrix(0.997071, 0, 0, -0.997071, 438.926635, 28.717942)"/>
<g fill="var(--ink)" fill-opacity="1">
<use xlink:href="#lstm-multilayer-glyph-2-0" x="413.833904" y="24.518039"/>
</g>
<g fill="var(--ink)" fill-opacity="1">
<use xlink:href="#lstm-multilayer-glyph-3-0" x="420.191309" y="21.438674"/>
</g>
<g fill="var(--ink)" fill-opacity="1">
<use xlink:href="#lstm-multilayer-glyph-3-1" x="422.491899" y="21.438674"/>
<use xlink:href="#lstm-multilayer-glyph-3-5" x="427.25996" y="21.438674"/>
</g>
<g fill="var(--ink)" fill-opacity="1">
<use xlink:href="#lstm-multilayer-glyph-3-3" x="419.793976" y="26.820625"/>
</g>
<g fill="var(--ink)" fill-opacity="1">
<use xlink:href="#lstm-multilayer-glyph-3-1" x="422.636933" y="26.820625"/>
<use xlink:href="#lstm-multilayer-glyph-3-5" x="427.404994" y="26.820625"/>
</g>
<path fill="none" stroke-width="0.69739" stroke-linecap="butt" stroke-linejoin="miter" stroke="var(--fe)" stroke-opacity="1" stroke-miterlimit="10" d="M 357.167135 121.89142 L 398.604907 121.89142 " transform="matrix(0.997071, 0, 0, -0.997071, 43.800836, 172.862541)"/>
<path fill-rule="nonzero" fill="var(--fe)" fill-opacity="1" stroke-width="0.69739" stroke-linecap="butt" stroke-linejoin="miter" stroke="var(--fe)" stroke-opacity="1" stroke-miterlimit="10" d="M 5.217553 0.000729979 L 1.147037 1.489465 L 2.494735 0.000729979 L 1.147037 -1.491923 Z M 5.217553 0.000729979 " transform="matrix(0.997071, 0, 0, -0.997071, 438.926635, 51.328853)"/>
<g fill="var(--ink)" fill-opacity="1">
<use xlink:href="#lstm-multilayer-glyph-2-1" x="414.255067" y="47.12896"/>
</g>
<g fill="var(--ink)" fill-opacity="1">
<use xlink:href="#lstm-multilayer-glyph-3-0" x="419.372784" y="44.049595"/>
</g>
<g fill="var(--ink)" fill-opacity="1">
<use xlink:href="#lstm-multilayer-glyph-3-1" x="421.673373" y="44.049595"/>
<use xlink:href="#lstm-multilayer-glyph-3-5" x="426.441434" y="44.049595"/>
</g>
<g fill="var(--ink)" fill-opacity="1">
<use xlink:href="#lstm-multilayer-glyph-3-3" x="419.372784" y="49.431546"/>
</g>
<g fill="var(--ink)" fill-opacity="1">
<use xlink:href="#lstm-multilayer-glyph-3-1" x="422.21574" y="49.431546"/>
<use xlink:href="#lstm-multilayer-glyph-3-5" x="426.983801" y="49.431546"/>
</g>
<path fill="none" stroke-width="0.69739" stroke-linecap="butt" stroke-linejoin="miter" stroke="var(--fe)" stroke-opacity="1" stroke-miterlimit="10" d="M 161.574739 51.023701 L 161.574739 70.866976 C 161.574739 75.564328 157.770628 79.372356 153.073277 79.372356 L 96.379885 79.372356 C 91.682534 79.372356 87.874505 83.176466 87.874505 87.873818 L 87.874505 103.799368 " transform="matrix(0.997071, 0, 0, -0.997071, 43.800836, 172.862541)"/>
<path fill-rule="nonzero" fill="var(--fe)" fill-opacity="1" stroke-width="0.69739" stroke-linecap="butt" stroke-linejoin="miter" stroke="var(--fe)" stroke-opacity="1" stroke-miterlimit="10" d="M 5.217404 0.000174623 L 1.146889 1.48891 L 2.494586 0.000174623 L 1.146889 -1.488561 Z M 5.217404 0.000174623 " transform="matrix(0, -0.997071, -0.997071, 0, 131.418143, 71.678686)"/>
<g fill="var(--ink)" fill-opacity="1">
<use xlink:href="#lstm-multilayer-glyph-2-1" x="159.876278" y="89.548254"/>
</g>
<g fill="var(--ink)" fill-opacity="1">
<use xlink:href="#lstm-multilayer-glyph-3-0" x="164.993995" y="86.46889"/>
</g>
<g fill="var(--ink)" fill-opacity="1">
<use xlink:href="#lstm-multilayer-glyph-3-1" x="167.294584" y="86.46889"/>
<use xlink:href="#lstm-multilayer-glyph-3-2" x="172.062645" y="86.46889"/>
</g>
<g fill="var(--ink)" fill-opacity="1">
<use xlink:href="#lstm-multilayer-glyph-3-3" x="164.993995" y="91.827001"/>
</g>
<g fill="var(--ink)" fill-opacity="1">
<use xlink:href="#lstm-multilayer-glyph-3-1" x="167.836951" y="91.827001"/>
<use xlink:href="#lstm-multilayer-glyph-3-2" x="172.605012" y="91.827001"/>
</g>
<path fill="none" stroke-width="0.69739" stroke-linecap="butt" stroke-linejoin="miter" stroke="var(--fe)" stroke-opacity="1" stroke-miterlimit="10" d="M 337.32386 51.023701 L 337.32386 70.866976 C 337.32386 75.564328 333.51975 79.372356 328.822398 79.372356 L 272.129007 79.372356 C 267.431655 79.372356 263.623627 83.176466 263.623627 87.873818 L 263.623627 103.799368 " transform="matrix(0.997071, 0, 0, -0.997071, 43.800836, 172.862541)"/>
<path fill-rule="nonzero" fill="var(--fe)" fill-opacity="1" stroke-width="0.69739" stroke-linecap="butt" stroke-linejoin="miter" stroke="var(--fe)" stroke-opacity="1" stroke-miterlimit="10" d="M 5.217404 0.000423243 L 1.146889 1.489159 L 2.494586 0.000423243 L 1.146889 -1.488312 Z M 5.217404 0.000423243 " transform="matrix(0, -0.997071, -0.997071, 0, 306.652766, 71.678686)"/>
<g fill="var(--ink)" fill-opacity="1">
<use xlink:href="#lstm-multilayer-glyph-2-1" x="335.116853" y="89.524424"/>
</g>
<g fill="var(--ink)" fill-opacity="1">
<use xlink:href="#lstm-multilayer-glyph-3-0" x="340.23457" y="86.44506"/>
</g>
<g fill="var(--ink)" fill-opacity="1">
<use xlink:href="#lstm-multilayer-glyph-3-1" x="342.53516" y="86.44506"/>
<use xlink:href="#lstm-multilayer-glyph-3-2" x="347.303221" y="86.44506"/>
</g>
<g fill="var(--ink)" fill-opacity="1">
<use xlink:href="#lstm-multilayer-glyph-3-3" x="340.23457" y="91.827011"/>
</g>
<g fill="var(--ink)" fill-opacity="1">
<use xlink:href="#lstm-multilayer-glyph-3-1" x="343.077527" y="91.827011"/>
<use xlink:href="#lstm-multilayer-glyph-3-5" x="347.845588" y="91.827011"/>
</g>
<path fill-rule="nonzero" fill="var(--fa)" fill-opacity="0.16" stroke-width="0.49814" stroke-linecap="butt" stroke-linejoin="miter" stroke="var(--fa)" stroke-opacity="1" stroke-miterlimit="10" d="M 75.118394 -43.938023 L 100.630616 -43.938023 L 100.630616 -29.763696 L 75.118394 -29.763696 Z M 75.118394 -43.938023 " transform="matrix(0.997071, 0, 0, -0.997071, 43.800836, 172.862541)"/>
<g fill="var(--ink)" fill-opacity="1">
<use xlink:href="#lstm-multilayer-glyph-0-7" x="124.265962" y="212.497943"/>
<use xlink:href="#lstm-multilayer-glyph-0-8" x="129.034023" y="212.497943"/>
<use xlink:href="#lstm-multilayer-glyph-0-9" x="133.802084" y="212.497943"/>
</g>
<path fill-rule="nonzero" fill="var(--fa)" fill-opacity="0.16" stroke-width="0.49814" stroke-linecap="butt" stroke-linejoin="miter" stroke="var(--fa)" stroke-opacity="1" stroke-miterlimit="10" d="M 75.118394 -58.609901 L 100.630616 -58.609901 L 100.630616 -44.435574 L 75.118394 -44.435574 Z M 75.118394 -58.609901 " transform="matrix(0.997071, 0, 0, -0.997071, 43.800836, 172.862541)"/>
<g fill="var(--ink)" fill-opacity="1">
<use xlink:href="#lstm-multilayer-glyph-0-10" x="124.265962" y="226.379486"/>
<use xlink:href="#lstm-multilayer-glyph-0-11" x="129.034023" y="226.379486"/>
<use xlink:href="#lstm-multilayer-glyph-0-12" x="133.802084" y="226.379486"/>
</g>
<path fill="none" stroke-width="0.49814" stroke-linecap="butt" stroke-linejoin="miter" stroke="var(--soft)" stroke-opacity="1" stroke-miterlimit="10" d="M 71.467075 -26.680446 L 69.198713 -26.680446 L 69.198713 -61.69315 L 71.467075 -61.69315 " transform="matrix(0.997071, 0, 0, -0.997071, 43.800836, 172.862541)"/>
<path fill="none" stroke-width="0.49814" stroke-linecap="butt" stroke-linejoin="miter" stroke="var(--soft)" stroke-opacity="1" stroke-miterlimit="10" d="M 104.281936 -26.680446 L 106.550298 -26.680446 L 106.550298 -61.69315 L 104.281936 -61.69315 " transform="matrix(0.997071, 0, 0, -0.997071, 43.800836, 172.862541)"/>
<path fill="none" stroke-width="0.69739" stroke-linecap="butt" stroke-linejoin="miter" stroke="var(--ink)" stroke-opacity="1" stroke-miterlimit="10" d="M 87.874505 -26.680446 L 87.874505 -3.914549 " transform="matrix(0.997071, 0, 0, -0.997071, 43.800836, 172.862541)"/>
<path fill-rule="nonzero" fill="var(--ink)" fill-opacity="1" stroke-width="0.69739" stroke-linecap="butt" stroke-linejoin="miter" stroke="var(--ink)" stroke-opacity="1" stroke-miterlimit="10" d="M 5.216919 0.000174623 L 1.150321 1.48891 L 2.4941 0.000174623 L 1.150321 -1.488561 Z M 5.216919 0.000174623 " transform="matrix(0, -0.997071, -0.997071, 0, 131.418143, 179.080546)"/>
<path fill-rule="nonzero" fill="var(--fa)" fill-opacity="0.16" stroke-width="0.49814" stroke-linecap="butt" stroke-linejoin="miter" stroke="var(--fa)" stroke-opacity="1" stroke-miterlimit="10" d="M 250.867516 -43.938023 L 276.379738 -43.938023 L 276.379738 -29.763696 L 250.867516 -29.763696 Z M 250.867516 -43.938023 " transform="matrix(0.997071, 0, 0, -0.997071, 43.800836, 172.862541)"/>
<g fill="var(--ink)" fill-opacity="1">
<use xlink:href="#lstm-multilayer-glyph-0-13" x="301.884642" y="212.52972"/>
<use xlink:href="#lstm-multilayer-glyph-0-10" x="306.652703" y="212.52972"/>
</g>
<path fill-rule="nonzero" fill="var(--fa)" fill-opacity="0.16" stroke-width="0.49814" stroke-linecap="butt" stroke-linejoin="miter" stroke="var(--fa)" stroke-opacity="1" stroke-miterlimit="10" d="M 250.867516 -58.609901 L 276.379738 -58.609901 L 276.379738 -44.435574 L 250.867516 -44.435574 Z M 250.867516 -58.609901 " transform="matrix(0.997071, 0, 0, -0.997071, 43.800836, 172.862541)"/>
<g fill="var(--ink)" fill-opacity="1">
<use xlink:href="#lstm-multilayer-glyph-0-14" x="297.116528" y="227.126502"/>
<use xlink:href="#lstm-multilayer-glyph-0-15" x="301.884589" y="227.126502"/>
<use xlink:href="#lstm-multilayer-glyph-0-16" x="306.65265" y="227.126502"/>
<use xlink:href="#lstm-multilayer-glyph-0-9" x="311.420712" y="227.126502"/>
</g>
<path fill="none" stroke-width="0.49814" stroke-linecap="butt" stroke-linejoin="miter" stroke="var(--soft)" stroke-opacity="1" stroke-miterlimit="10" d="M 247.216197 -26.680446 L 244.947834 -26.680446 L 244.947834 -61.69315 L 247.216197 -61.69315 " transform="matrix(0.997071, 0, 0, -0.997071, 43.800836, 172.862541)"/>
<path fill="none" stroke-width="0.49814" stroke-linecap="butt" stroke-linejoin="miter" stroke="var(--soft)" stroke-opacity="1" stroke-miterlimit="10" d="M 280.031057 -26.680446 L 282.299419 -26.680446 L 282.299419 -61.69315 L 280.031057 -61.69315 " transform="matrix(0.997071, 0, 0, -0.997071, 43.800836, 172.862541)"/>
<path fill="none" stroke-width="0.69739" stroke-linecap="butt" stroke-linejoin="miter" stroke="var(--ink)" stroke-opacity="1" stroke-miterlimit="10" d="M 263.623627 -26.680446 L 263.623627 -3.914549 " transform="matrix(0.997071, 0, 0, -0.997071, 43.800836, 172.862541)"/>
<path fill-rule="nonzero" fill="var(--ink)" fill-opacity="1" stroke-width="0.69739" stroke-linecap="butt" stroke-linejoin="miter" stroke="var(--ink)" stroke-opacity="1" stroke-miterlimit="10" d="M 5.216919 0.000423243 L 1.150321 1.489159 L 2.4941 0.000423243 L 1.150321 -1.488312 Z M 5.216919 0.000423243 " transform="matrix(0, -0.997071, -0.997071, 0, 306.652766, 179.080546)"/>
</svg>
